<svg width="36" height="36" viewBox="0 0 36 36" fill="none" xmlns="http://www.w3.org/2000/svg">
<path d="M27.3542 8.96432C25.5903 8.13255 23.7254 7.5393 21.8076 7.19995C21.5447 7.68473 21.3065 8.18273 21.0939 8.69202C19.05 8.37494 16.97 8.37494 14.9261 8.69202C14.7111 8.18262 14.4704 7.68462 14.2051 7.19995C12.2786 7.53687 10.4057 8.13279 8.63628 8.97178C5.09386 14.3395 4.13245 19.5729 4.61685 24.7355C6.67285 26.301 8.9824 27.4949 11.4429 28.2642C11.9945 27.4963 12.483 26.6841 12.9035 25.8359C12.1057 25.5316 11.3361 25.1572 10.6035 24.7168C10.7958 24.5713 10.9732 24.4221 11.1655 24.2655C13.2942 25.3003 15.6267 25.8377 17.9897 25.8377C20.3526 25.8377 22.6852 25.3003 24.8138 24.2655C24.9987 24.4221 25.1836 24.5713 25.3759 24.7168C24.6432 25.1594 23.8721 25.534 23.0722 25.8359C23.4972 26.6867 23.9919 27.5003 24.5513 28.2679C27.013 27.4972 29.3238 26.3021 31.381 24.7355C31.9408 19.1626 30.5131 13.5709 27.3542 8.96432ZM13.5099 21.5611C12.175 21.5611 11.0842 20.3078 11.0842 18.7784C11.0842 17.249 12.1528 15.9957 13.5099 15.9957C14.867 15.9957 15.9652 17.249 15.9356 18.7784C15.906 20.3078 14.8559 21.5611 13.5099 21.5611ZM22.4695 21.5611C21.142 21.5611 20.0327 20.3078 20.0327 18.7784C20.0327 17.249 21.105 15.9957 22.4584 15.9957C23.8118 15.9957 24.9063 17.249 24.8841 18.7784C24.8619 20.3078 23.8265 21.5611 22.4695 21.5611Z" fill="#FFB41F"/>
</svg>
