<svg width="36" height="36" viewBox="0 0 36 36" fill="none" xmlns="http://www.w3.org/2000/svg">
<g clip-path="url(#clip0_578_394)">
<path d="M19.2567 16.131C19.5527 15.7567 19.8678 15.3979 20.2007 15.0561C20.6956 14.5724 21.2814 14.1921 21.9241 13.9374C22.5669 13.6826 23.2537 13.5585 23.9447 13.5722C24.7382 13.5594 25.5297 13.6565 26.2967 13.8609C27.102 14.0814 27.8319 14.5186 28.4072 15.1252C28.9826 15.7317 29.3814 16.4845 29.5606 17.3021C29.8906 18.5905 30.0387 19.919 30.0007 21.2486C30.0007 24.0561 30.0007 26.8636 30.0007 29.6631C30.0007 29.9278 29.9206 30 29.6646 29.992C28.2246 29.992 26.7847 29.992 25.3447 29.992C25.0887 29.992 25.0327 29.9197 25.0327 29.6791C25.0327 27.008 25.0327 24.3369 25.0327 21.6577C25.0439 20.9872 24.9659 20.3182 24.8007 19.6684C24.6797 19.1245 24.3612 18.6451 23.9073 18.3234C23.4534 18.0017 22.8965 17.8607 22.3447 17.9278C21.9821 17.9093 21.6196 17.9649 21.2791 18.0911C20.9387 18.2174 20.6273 18.4116 20.364 18.6622C20.1006 18.9127 19.8908 19.2143 19.7472 19.5486C19.6036 19.8829 19.5293 20.2429 19.5287 20.6069C19.4808 21.0223 19.4568 21.4401 19.4567 21.8583C19.4567 24.4572 19.4567 27.0481 19.4567 29.647C19.4567 29.9037 19.3927 29.9839 19.1287 29.9759C17.6727 29.9759 16.2247 29.9759 14.7687 29.9759C14.5367 29.9759 14.4727 29.9197 14.4727 29.6791C14.4727 24.5454 14.4727 19.4064 14.4727 14.262C14.4727 14.0133 14.5527 13.9492 14.7927 13.9492C16.1687 13.9492 17.5527 13.9492 18.9287 13.9492C19.1847 13.9492 19.2487 14.0294 19.2407 14.27C19.2407 14.9037 19.2567 15.5133 19.2567 16.131Z" fill="#FFB41F"/>
<path d="M11.3598 22.0027C11.3598 24.5454 11.3598 27.0882 11.3598 29.631C11.3598 29.9117 11.2958 30 10.9998 29.992C9.5598 29.992 8.11979 29.992 6.67979 29.992C6.44779 29.992 6.38379 29.9358 6.38379 29.6952V14.254C6.38379 14.0454 6.43181 13.9652 6.65581 13.9652C8.11981 13.9652 9.5838 13.9652 11.0398 13.9652C11.3198 13.9652 11.3598 14.0695 11.3598 14.3182C11.3518 16.877 11.3598 19.4438 11.3598 22.0027Z" fill="#FFB41F"/>
<path d="M11.7522 8.87166C11.7553 9.4438 11.5889 10.004 11.274 10.4812C10.9592 10.9583 10.51 11.3309 9.98356 11.5517C9.45713 11.7725 8.87714 11.8315 8.31721 11.7213C7.75727 11.611 7.2426 11.3365 6.83854 10.9325C6.43449 10.5284 6.15925 10.0132 6.04772 9.45206C5.9362 8.89094 5.99345 8.30926 6.21218 7.78081C6.43091 7.25236 6.80128 6.80095 7.27629 6.48389C7.7513 6.16684 8.30952 5.99843 8.88015 6.00001C9.63982 6.00212 10.3679 6.30508 10.9058 6.84293C11.4437 7.38079 11.7479 8.10996 11.7522 8.87166Z" fill="#FFB41F"/>
</g>
<defs>
<clipPath id="clip0_578_394">
<rect width="24" height="24" fill="white" transform="translate(6 6)"/>
</clipPath>
</defs>
</svg>
