<svg width="256" height="80" viewBox="0 0 256 80" fill="none" xmlns="http://www.w3.org/2000/svg">
<path d="M98.7953 44.5837C98.4735 43.6895 98.0043 42.8566 97.4075 42.1202C96.7637 41.3389 95.954 40.7137 95.0382 40.2909C93.9026 39.7936 92.672 39.5558 91.4345 39.5948C89.7621 39.5439 88.1088 39.9659 86.6616 40.813C85.8683 41.302 85.1673 41.9293 84.5914 42.6655V33.1943H81.0068V61.0392H85.0706V50.1758C85.0472 49.11 85.1868 48.0469 85.4846 47.024C85.7076 46.2536 86.0934 45.5411 86.6156 44.9356C87.0732 44.4184 87.648 44.0204 88.2909 43.7754C88.9413 43.5336 89.6296 43.4118 90.3228 43.4157C91.2635 43.373 92.1962 43.6083 93.0064 44.0925C93.6807 44.5362 94.229 45.1493 94.5973 45.8715C94.9786 46.6214 95.2375 47.4284 95.3641 48.2615C95.4953 49.089 95.5619 49.9256 95.5634 50.7637V61.0315H99.6272V49.4294C99.6192 48.6787 99.5615 47.9294 99.4547 47.1864C99.3261 46.2979 99.105 45.4255 98.7953 44.5837Z" fill="white"/>
<path d="M118.979 40.9871C117.342 40.0661 115.5 39.5803 113.625 39.5756C111.751 39.5708 109.906 40.0473 108.264 40.9601C106.742 41.8829 105.512 43.2245 104.718 44.8274C103.845 46.6142 103.411 48.5866 103.453 50.5782C103.413 52.5615 103.837 54.5264 104.691 56.3134C105.471 57.9233 106.691 59.2746 108.207 60.2078C109.851 61.1299 111.702 61.6138 113.584 61.6138C115.465 61.6138 117.316 61.1299 118.96 60.2078C120.479 59.2751 121.704 57.9275 122.495 56.3212C123.32 54.5257 123.747 52.5706 123.747 50.5917C123.747 48.6128 123.32 46.6577 122.495 44.8622C121.706 43.2643 120.488 41.9217 118.979 40.9871ZM118.029 55.7913C117.055 57.1372 115.576 57.8101 113.593 57.8101C111.663 57.8101 110.2 57.1526 109.204 55.8377C108.207 54.5229 107.708 52.7697 107.708 50.5782C107.684 49.3025 107.898 48.0337 108.341 46.8384C108.719 45.8166 109.393 44.9337 110.277 44.3053C111.261 43.6596 112.42 43.338 113.593 43.3849C115.548 43.3849 117.022 44.0398 118.013 45.3495C119.005 46.6592 119.5 48.397 119.497 50.5627C119.497 52.7 119.008 54.4429 118.029 55.7913Z" fill="white"/>
<path d="M137.189 40.051C136.515 40.096 135.849 40.2259 135.207 40.4377C134.578 40.6407 133.985 40.9435 133.451 41.3349C132.902 41.7101 132.422 42.1785 132.032 42.7194C131.85 42.9658 131.683 43.2242 131.534 43.4929V40.1438H127.969V61.0274H132.013V50.5005C132.01 49.7111 132.094 48.9239 132.263 48.153C132.418 47.4371 132.692 46.7531 133.075 46.1304C133.496 45.4766 134.058 44.9268 134.718 44.5218C135.378 44.1168 136.121 43.8669 136.89 43.7907C137.644 43.7095 138.407 43.7618 139.144 43.9454V40.1554C138.499 40.0382 137.842 40.0032 137.189 40.051Z" fill="white"/>
<path d="M160.556 44.5838C160.235 43.6888 159.764 42.8557 159.165 42.1203C158.523 41.3382 157.714 40.7128 156.799 40.2911C155.664 39.7937 154.433 39.556 153.195 39.5949C151.523 39.544 149.87 39.966 148.423 40.8131C147.629 41.3022 146.928 41.9294 146.352 42.6656V40.1557H142.779V61.0393H146.843V50.176C146.82 49.1104 146.959 48.0476 147.253 47.0241C147.478 46.2544 147.863 45.5422 148.384 44.9357C148.843 44.4184 149.419 44.0204 150.063 43.7755C150.714 43.5331 151.402 43.4112 152.095 43.4159C153.036 43.3725 153.969 43.6078 154.779 44.0926C155.455 44.5341 156.004 45.1478 156.37 45.8716C156.753 46.6208 157.012 47.4281 157.137 48.2616C157.269 49.0891 157.337 49.9257 157.34 50.7638V61.0316H161.403V49.4296C161.395 48.6789 161.338 47.9295 161.231 47.1865C161.097 46.2974 160.871 45.425 160.556 44.5838Z" fill="white"/>
<path d="M171.731 44.3245C172.682 43.6656 173.818 43.3358 174.971 43.3847C176.075 43.3757 177.154 43.7225 178.049 44.3747C178.971 45.0527 179.654 46.0109 179.997 47.109L183.984 45.9488C183.532 44.0552 182.408 42.3943 180.825 41.2809C179.117 40.1151 177.089 39.5198 175.028 39.5792C173.143 39.528 171.281 40.0175 169.661 40.9908C168.167 41.9331 166.97 43.2853 166.21 44.8891C165.376 46.6743 164.957 48.6278 164.984 50.6012C164.957 52.5534 165.36 54.4872 166.164 56.2629C166.904 57.8727 168.085 59.235 169.569 60.1883C171.196 61.1822 173.073 61.6792 174.974 61.6192C176.988 61.682 178.971 61.1117 180.648 59.9872C182.249 58.8399 183.429 57.1905 184.003 55.2961L179.939 54.3293C179.59 55.3515 178.953 56.2491 178.107 56.9127C177.187 57.5485 176.087 57.8636 174.974 57.8099C173.083 57.8099 171.654 57.146 170.688 55.8182C169.722 54.4904 169.237 52.7501 169.231 50.5973C169.221 49.3316 169.435 48.0742 169.864 46.8846C170.225 45.8658 170.874 44.9758 171.731 44.3245Z" fill="white"/>
<path d="M192.299 32.6143H188.293V61.0392H192.299V32.6143Z" fill="white"/>
<path d="M214.17 43.5591C213.562 42.2131 212.488 41.1375 211.149 40.5348C209.624 39.865 207.974 39.5377 206.311 39.5757C203.921 39.5757 202.004 40.1043 200.56 41.1613C199.132 42.2076 198.101 43.7156 197.639 45.4347L201.377 46.5949C201.515 46.0674 201.755 45.5727 202.084 45.1398C202.413 44.7069 202.824 44.3444 203.294 44.0734C204.207 43.5579 205.238 43.2913 206.284 43.3C208.009 43.3 209.226 43.697 209.934 44.4911C210.555 45.1834 210.892 46.1966 210.954 47.5308L208.592 47.8634C207.314 48.0439 206.091 48.2373 204.923 48.4435C203.87 48.6255 202.827 48.8643 201.799 49.159C200.834 49.4579 199.927 49.9195 199.115 50.5242C198.409 51.0582 197.844 51.7578 197.467 52.5623C197.08 53.4377 196.89 54.3886 196.911 55.3467C196.9 56.4404 197.173 57.5179 197.704 58.4715C198.258 59.4408 199.073 60.232 200.054 60.7533C201.241 61.3591 202.559 61.6543 203.888 61.6118C205.587 61.6719 207.271 61.2712 208.765 60.4516C209.79 59.837 210.671 59.0042 211.345 58.0113V61.0395H214.891V48.1806C214.893 47.3605 214.855 46.5409 214.776 45.7248C214.704 44.9722 214.499 44.2387 214.17 43.5591ZM210.49 54.1749C210.317 54.8989 209.983 55.5735 209.512 56.1473C208.976 56.8049 208.302 57.3334 207.538 57.6942C206.619 58.1212 205.616 58.3289 204.605 58.3014C203.881 58.3285 203.16 58.1896 202.496 57.8953C201.989 57.6623 201.563 57.2827 201.27 56.8047C201.002 56.351 200.863 55.8321 200.867 55.3042C200.855 54.8059 200.988 54.3149 201.25 53.8926C201.514 53.4932 201.861 53.1566 202.266 52.9064C202.728 52.6196 203.221 52.3861 203.735 52.2103C204.466 51.9856 205.212 51.8086 205.966 51.6805C206.806 51.5335 207.741 51.3788 208.776 51.2241L210.911 50.9032C210.911 51.2474 210.892 51.6341 210.873 52.0634C210.851 52.7826 210.722 53.4945 210.49 54.1749Z" fill="white"/>
<path d="M242.022 40.1556L237.69 54.4841L233.32 40.1556H229.87L225.499 54.4841L221.167 40.1556L217.199 40.1401L223.525 61.0393H226.745L231.595 45.9179L236.425 61.0393H239.646L245.971 40.1556H242.022Z" fill="white"/>
<path d="M17.7234 8.30035C18.7143 10.2975 19.3053 12.472 19.4625 14.6997C19.6197 16.9274 19.3401 19.1644 18.6396 21.283L17.4895 24.7211C17.4317 24.8956 17.416 25.0816 17.4435 25.2635C17.471 25.4454 17.541 25.6181 17.6477 25.7673C17.7545 25.9166 17.8949 26.0381 18.0574 26.1217C18.2198 26.2054 18.3997 26.249 18.5821 26.2487H27.1006C27.2393 26.2489 27.3753 26.2871 27.4942 26.3592C27.6131 26.4313 27.7103 26.5345 27.7756 26.6579C27.8409 26.7814 27.8718 26.9203 27.865 27.0601C27.8582 27.1998 27.814 27.335 27.737 27.4514L21.2619 37.2513C21.2062 37.3363 21.1344 37.4094 21.0506 37.4663C20.9668 37.5233 20.8727 37.5629 20.7736 37.583C20.6746 37.6032 20.5726 37.6033 20.4735 37.5836C20.3744 37.5638 20.2801 37.5245 20.1961 37.4678L12.107 32.0226C11.3296 31.4999 10.7681 30.7089 10.5281 29.7981C10.2881 28.8873 10.386 27.9194 10.8035 27.0763L14.2539 20.0803C16.0403 16.4782 16.9709 12.506 16.972 8.47824C16.9486 8.37773 16.9657 8.27196 17.0196 8.1842C17.0736 8.09644 17.1598 8.03389 17.2595 8.0103C17.3591 7.98671 17.464 8.00402 17.551 8.05841C17.638 8.11281 17.7 8.19983 17.7234 8.30035Z" fill="#FFB41F"/>
<path d="M38.9316 43.1026C43.2483 43.1026 45.6329 44.6225 46.1198 49.5418H60.1013L45.2725 27.1112C45.0976 26.8461 44.8606 26.6287 44.5823 26.4782C44.3041 26.3278 43.9934 26.2489 43.6777 26.2488H34.1854C33.8697 26.2489 33.559 26.3278 33.2808 26.4782C33.0026 26.6287 32.7655 26.8461 32.5906 27.1112L17.7656 49.5418H31.7433C32.2302 44.6225 34.6186 43.1026 38.9316 43.1026Z" fill="#FFB41F"/>
<path d="M67.0481 27.0763L63.5977 20.0802C61.8125 16.4779 60.8832 12.5057 60.8835 8.47821C60.8847 8.3902 60.8562 8.30439 60.8025 8.23496C60.7489 8.16553 60.6734 8.11663 60.5885 8.09635C60.5036 8.07606 60.4144 8.0856 60.3356 8.12339C60.2568 8.16118 60.1931 8.22495 60.1551 8.30418C58.1575 12.3388 57.8293 17.0083 59.2426 21.2868L60.3928 24.7249C60.4505 24.8995 60.4663 25.0854 60.4388 25.2673C60.4113 25.4492 60.3413 25.6219 60.2345 25.7712C60.1278 25.9204 59.9874 26.0419 59.8249 26.1256C59.6624 26.2093 59.4826 26.2528 59.3001 26.2525H50.7701C50.6311 26.2521 50.4946 26.2898 50.3752 26.3615C50.2558 26.4333 50.158 26.5365 50.0922 26.6601C50.0264 26.7836 49.9952 26.9229 50.0019 27.0629C50.0085 27.203 50.0528 27.3386 50.1299 27.4553L56.6089 37.2551C56.7213 37.4257 56.8963 37.5444 57.0954 37.585C57.2945 37.6256 57.5015 37.5848 57.6708 37.4717L65.7638 32.0265C66.5389 31.5008 67.0971 30.7077 67.3335 29.7963C67.57 28.8848 67.4685 27.9176 67.0481 27.0763Z" fill="#FFB41F"/>
<path d="M46.1198 49.5417C46.1869 50.2293 46.2189 50.9199 46.2156 51.6108C46.2156 55.9499 44.3294 59.8637 40.534 60.7184V53.8461C40.5357 53.7363 40.5605 53.6282 40.6067 53.5288C40.653 53.4295 40.7197 53.3412 40.8024 53.2699L42.8994 51.3633C43.0536 51.2211 43.1617 51.0354 43.2096 50.8304C43.2575 50.6253 43.2431 50.4105 43.1682 50.2138C43.0933 50.0172 42.9614 49.8479 42.7896 49.728C42.6179 49.6081 42.4144 49.5432 42.2055 49.5417H35.6882C35.4793 49.542 35.2754 49.6061 35.1033 49.7255C34.9311 49.8449 34.7988 50.014 34.7238 50.2107C34.6487 50.4073 34.6343 50.6223 34.6826 50.8273C34.7309 51.0323 34.8396 51.2178 34.9943 51.3594L37.0837 53.266C37.1631 53.3383 37.2267 53.4266 37.2703 53.5252C37.3138 53.6238 37.3365 53.7304 37.3367 53.8384V60.7184C33.5375 59.8637 31.6513 55.9499 31.6513 51.6108C31.6513 50.8605 31.6858 50.176 31.7472 49.5417H17.7656C17.7659 52.2166 18.3538 54.8582 19.487 57.2764C20.8504 60.2058 22.9589 62.7185 25.5979 64.5586L35.7649 71.6088C36.7279 72.2833 37.8723 72.6448 39.0446 72.6448C40.217 72.6448 41.3614 72.2833 42.3244 71.6088L52.3342 64.5702C54.9293 62.7329 57.004 60.2441 58.3531 57.3499L58.38 57.2958C59.5132 54.8775 60.101 52.2359 60.1013 49.5611L46.1198 49.5417Z" fill="white"/>
</svg>
