<svg width="36" height="36" viewBox="0 0 36 36" fill="none" xmlns="http://www.w3.org/2000/svg">
<g clip-path="url(#clip0_578_381)">
<path d="M32.9374 6.53339C32.9151 6.42439 32.865 6.323 32.792 6.23904C32.719 6.15509 32.6256 6.09143 32.5207 6.05421C32.1258 5.97765 31.7177 6.00642 31.3374 6.13757C31.3374 6.13757 5.05406 15.5876 3.5499 16.6334C3.22906 16.8584 3.13323 16.9917 3.06656 17.1417C2.80823 17.8875 3.61656 18.2167 3.61656 18.2167L10.3916 20.425C10.5038 20.4524 10.621 20.4524 10.7332 20.425C12.2749 19.45 26.2374 10.6334 27.0457 10.3376C27.1707 10.3001 27.2666 10.3375 27.2416 10.4292C26.9166 11.5625 14.7874 22.3417 14.7874 22.3417C14.7578 22.3805 14.7327 22.4224 14.7124 22.4667L14.0832 29.1876C14.0832 29.1876 13.8166 31.2459 15.8749 29.1876C17.3291 27.7334 18.7332 26.5167 19.4374 25.9292C21.7666 27.5376 24.2749 29.3167 25.3541 30.2459C25.5365 30.4212 25.7521 30.5583 25.9882 30.6492C26.2243 30.7401 26.4762 30.7829 26.7291 30.7751C27.7541 30.7376 28.0416 29.6084 28.0416 29.6084C28.0416 29.6084 32.8332 10.3292 32.9916 7.7459C32.9916 7.4959 33.0291 7.32922 33.0291 7.15839C33.0315 6.94653 33.0006 6.73561 32.9374 6.53339Z" fill="#FFB41F"/>
</g>
<defs>
<clipPath id="clip0_578_381">
<rect width="30" height="24.75" fill="white" transform="translate(3 6)"/>
</clipPath>
</defs>
</svg>
