<svg width="36" height="36" viewBox="0 0 36 36" fill="none" xmlns="http://www.w3.org/2000/svg">
<path d="M12.784 29C23.3634 29 29.1339 20.1526 29.1339 12.4779C29.1339 12.2284 29.1339 11.979 29.1339 11.7295C30.2581 10.907 31.2285 9.88899 32 8.72312C30.9511 9.19058 29.8394 9.49845 28.7012 9.6367C29.9008 8.91021 30.7985 7.76818 31.2274 6.42299C30.1001 7.10033 28.8661 7.577 27.5791 7.83222C26.7906 6.98375 25.768 6.39423 24.6439 6.14012C23.5199 5.886 22.3462 5.97901 21.2751 6.40709C20.204 6.83516 19.2848 7.57855 18.6368 8.54087C17.9888 9.50318 17.6419 10.64 17.6409 11.804C17.6391 12.25 17.6886 12.6946 17.7884 13.129C15.5038 13.0133 13.2688 12.4133 11.2286 11.3679C9.18836 10.3225 7.38851 8.85519 5.94596 7.06119C5.21031 8.33949 4.9848 9.85319 5.31541 11.2937C5.64602 12.7342 6.50785 13.9931 7.72521 14.8136C6.81257 14.7854 5.91992 14.5366 5.12205 14.088C5.12038 14.1128 5.12038 14.1377 5.12205 14.1625C5.12243 15.5031 5.5817 16.8023 6.42195 17.8398C7.2622 18.8773 8.43171 19.5891 9.7321 19.8545C8.88635 20.0866 7.9994 20.1209 7.13855 19.9549C7.50782 21.1072 8.22295 22.1146 9.18465 22.8374C10.1464 23.5602 11.3069 23.9624 12.5051 23.9883C10.4692 25.6014 7.95602 26.4765 5.36891 26.4731C4.91141 26.4739 4.45427 26.4469 4 26.3921C6.62713 28.0971 9.68422 29.0024 12.8065 29" fill="#FFB41F"/>
</svg>
