<svg width="696" height="320" viewBox="0 0 696 320" fill="none" xmlns="http://www.w3.org/2000/svg">
<g opacity="0.5">
<path d="M46 254.916C45.5858 254.916 45.25 255.252 45.25 255.666C45.25 256.08 45.5858 256.416 46 256.416V254.916ZM46 256.416H661V254.916H46V256.416Z" fill="#383838"/>
<path d="M46 214.916C45.5858 214.916 45.25 215.252 45.25 215.666C45.25 216.08 45.5858 216.416 46 216.416V214.916ZM46 216.416H661V214.916H46V216.416Z" fill="#383838"/>
<path d="M46 174.916C45.5858 174.916 45.25 175.252 45.25 175.666C45.25 176.08 45.5858 176.416 46 176.416V174.916ZM46 176.416H661V174.916H46V176.416Z" fill="#383838"/>
<path d="M46 134.916C45.5858 134.916 45.25 135.252 45.25 135.666C45.25 136.08 45.5858 136.416 46 136.416V134.916ZM46 136.416H661V134.916H46V136.416Z" fill="#383838"/>
<path d="M46 94.9158C45.5858 94.9158 45.25 95.2516 45.25 95.6658C45.25 96.08 45.5858 96.4158 46 96.4158V94.9158ZM46 96.4158H661V94.9158H46V96.4158Z" fill="#383838"/>
<path d="M46 53.9158C45.5858 53.9158 45.25 54.2516 45.25 54.6658C45.25 55.08 45.5858 55.4158 46 55.4158V53.9158ZM46 55.4158H661V53.9158H46V55.4158Z" fill="#383838"/>
<path d="M46 13.9158C45.5858 13.9158 45.25 14.2516 45.25 14.6658C45.25 15.08 45.5858 15.4158 46 15.4158V13.9158ZM46 15.4158H661V13.9158H46V15.4158Z" fill="#383838"/>
<path d="M205.25 294.666C205.25 295.08 205.586 295.416 206 295.416C206.414 295.416 206.75 295.08 206.75 294.666H205.25ZM206.75 294.666L206.75 14.6658L205.25 14.6658L205.25 294.666H206.75Z" fill="#383838"/>
<path d="M165.25 294.666C165.25 295.08 165.586 295.416 166 295.416C166.414 295.416 166.75 295.08 166.75 294.666L165.25 294.666ZM166.75 294.666L166.75 14.6658L165.25 14.6658L165.25 294.666L166.75 294.666Z" fill="#383838"/>
<path d="M125.25 294.666C125.25 295.08 125.586 295.416 126 295.416C126.414 295.416 126.75 295.08 126.75 294.666H125.25ZM126.75 294.666L126.75 14.6658L125.25 14.6658L125.25 294.666H126.75Z" fill="#383838"/>
<path d="M85.25 294.666C85.25 295.08 85.5858 295.416 86 295.416C86.4142 295.416 86.75 295.08 86.75 294.666L85.25 294.666ZM86.75 294.666L86.75 14.6658L85.25 14.6658L85.25 294.666L86.75 294.666Z" fill="#383838"/>
<path d="M45.25 294.666C45.25 295.08 45.5858 295.416 46 295.416C46.4142 295.416 46.75 295.08 46.75 294.666L45.25 294.666ZM46.75 294.666L46.75 36.6658L45.25 36.6658L45.25 294.666L46.75 294.666Z" fill="#383838"/>
<path d="M245.25 294.666C245.25 295.08 245.586 295.416 246 295.416C246.414 295.416 246.75 295.08 246.75 294.666H245.25ZM246.75 294.666L246.75 14.6658H245.25L245.25 294.666H246.75Z" fill="#383838"/>
<path d="M285.25 294.666C285.25 295.08 285.586 295.416 286 295.416C286.414 295.416 286.75 295.08 286.75 294.666L285.25 294.666ZM286.75 294.666L286.75 14.6658L285.25 14.6658L285.25 294.666L286.75 294.666Z" fill="#383838"/>
<path d="M325.25 294.666C325.25 295.08 325.586 295.416 326 295.416C326.414 295.416 326.75 295.08 326.75 294.666L325.25 294.666ZM326.75 294.666L326.75 14.6658L325.25 14.6658L325.25 294.666L326.75 294.666Z" fill="#383838"/>
<path d="M365.25 294.666C365.25 295.08 365.586 295.416 366 295.416C366.414 295.416 366.75 295.08 366.75 294.666L365.25 294.666ZM366.75 294.666L366.75 14.6658L365.25 14.6658L365.25 294.666L366.75 294.666Z" fill="#383838"/>
<path d="M405.25 294.666C405.25 295.08 405.586 295.416 406 295.416C406.414 295.416 406.75 295.08 406.75 294.666L405.25 294.666ZM406.75 294.666L406.75 14.6658L405.25 14.6658L405.25 294.666L406.75 294.666Z" fill="#383838"/>
<path d="M445.25 294.666C445.25 295.08 445.586 295.416 446 295.416C446.414 295.416 446.75 295.08 446.75 294.666L445.25 294.666ZM446.75 294.666L446.75 14.6658L445.25 14.6658L445.25 294.666L446.75 294.666Z" fill="#383838"/>
<path d="M485.25 294.666C485.25 295.08 485.586 295.416 486 295.416C486.414 295.416 486.75 295.08 486.75 294.666L485.25 294.666ZM486.75 294.666L486.75 14.6658L485.25 14.6658L485.25 294.666L486.75 294.666Z" fill="#383838"/>
<path d="M525.25 294.666C525.25 295.08 525.586 295.416 526 295.416C526.414 295.416 526.75 295.08 526.75 294.666L525.25 294.666ZM526.75 294.666L526.75 14.6658L525.25 14.6658L525.25 294.666L526.75 294.666Z" fill="#383838"/>
<path d="M565.25 294.666C565.25 295.08 565.586 295.416 566 295.416C566.414 295.416 566.75 295.08 566.75 294.666L565.25 294.666ZM566.75 294.666L566.75 14.6658L565.25 14.6658L565.25 294.666L566.75 294.666Z" fill="#383838"/>
<path d="M605.25 294.666C605.25 295.08 605.586 295.416 606 295.416C606.414 295.416 606.75 295.08 606.75 294.666L605.25 294.666ZM606.75 294.666L606.75 14.6658L605.25 14.6658L605.25 294.666L606.75 294.666Z" fill="#383838"/>
<path d="M645.25 294.666C645.25 295.08 645.586 295.416 646 295.416C646.414 295.416 646.75 295.08 646.75 294.666L645.25 294.666ZM646.75 294.666L646.75 14.6658L645.25 14.6658L645.25 294.666L646.75 294.666Z" fill="#383838"/>
</g>
<path d="M46 14.6658V294.666H661" stroke="#383838" stroke-width="2" stroke-linecap="round"/>
<line x1="36" y1="14.6655" x2="46" y2="14.6655" stroke="#383838" stroke-width="2" stroke-linecap="round"/>
<line x1="36" y1="54.6655" x2="46" y2="54.6655" stroke="#383838" stroke-width="2" stroke-linecap="round"/>
<line x1="36" y1="94.6655" x2="46" y2="94.6655" stroke="#383838" stroke-width="2" stroke-linecap="round"/>
<line x1="36" y1="134.666" x2="46" y2="134.666" stroke="#383838" stroke-width="2" stroke-linecap="round"/>
<line x1="36" y1="174.666" x2="46" y2="174.666" stroke="#383838" stroke-width="2" stroke-linecap="round"/>
<line x1="36" y1="214.666" x2="46" y2="214.666" stroke="#383838" stroke-width="2" stroke-linecap="round"/>
<line x1="36" y1="254.666" x2="46" y2="254.666" stroke="#383838" stroke-width="2" stroke-linecap="round"/>
<line x1="36" y1="294.666" x2="46" y2="294.666" stroke="#383838" stroke-width="2" stroke-linecap="round"/>
<line x1="46" y1="304.666" x2="46" y2="294.666" stroke="#383838" stroke-width="2" stroke-linecap="round"/>
<line x1="86" y1="304.666" x2="86" y2="294.666" stroke="#383838" stroke-width="2" stroke-linecap="round"/>
<line x1="126" y1="304.666" x2="126" y2="294.666" stroke="#383838" stroke-width="2" stroke-linecap="round"/>
<line x1="166" y1="304.666" x2="166" y2="294.666" stroke="#383838" stroke-width="2" stroke-linecap="round"/>
<line x1="206" y1="304.666" x2="206" y2="294.666" stroke="#383838" stroke-width="2" stroke-linecap="round"/>
<line x1="246" y1="304.666" x2="246" y2="294.666" stroke="#383838" stroke-width="2" stroke-linecap="round"/>
<line x1="286" y1="304.666" x2="286" y2="294.666" stroke="#383838" stroke-width="2" stroke-linecap="round"/>
<line x1="326" y1="304.666" x2="326" y2="294.666" stroke="#383838" stroke-width="2" stroke-linecap="round"/>
<line x1="366" y1="304.666" x2="366" y2="294.666" stroke="#383838" stroke-width="2" stroke-linecap="round"/>
<line x1="406" y1="304.666" x2="406" y2="294.666" stroke="#383838" stroke-width="2" stroke-linecap="round"/>
<line x1="446" y1="304.666" x2="446" y2="294.666" stroke="#383838" stroke-width="2" stroke-linecap="round"/>
<line x1="486" y1="304.666" x2="486" y2="294.666" stroke="#383838" stroke-width="2" stroke-linecap="round"/>
<line x1="526" y1="304.666" x2="526" y2="294.666" stroke="#383838" stroke-width="2" stroke-linecap="round"/>
<line x1="566" y1="304.666" x2="566" y2="294.666" stroke="#383838" stroke-width="2" stroke-linecap="round"/>
<line x1="606" y1="304.666" x2="606" y2="294.666" stroke="#383838" stroke-width="2" stroke-linecap="round"/>
<path d="M46 294.666C62.5 249 102.804 220.031 133 214.5C188.5 204.334 214.5 234.5 246.5 207.666C270.358 187.659 287.423 133.753 354.081 133.753C427.5 133.753 455.059 129.5 480 88.4999C500.496 54.807 512 14.6656 646.5 14.6656" stroke="white" stroke-width="2" stroke-linecap="round"/>
<path d="M133 214.834C102.804 220.365 62.5 249.334 46 295H646.5V15C512 15 500.496 55.1413 480 88.8343C455.059 129.834 427.5 134.087 354.081 134.087C287.423 134.087 270.358 187.994 246.5 208C214.5 234.834 188.5 204.669 133 214.834Z" fill="url(#paint0_linear_578_469)"/>
<path d="M331.021 88.1146L336.399 80.0098C336.462 79.913 336.498 79.8009 336.503 79.6853C336.508 79.5696 336.482 79.4548 336.428 79.3529C336.373 79.251 336.292 79.1658 336.193 79.1063C336.094 79.0468 335.981 79.0152 335.866 79.0149H328.794C328.643 79.0139 328.495 78.9772 328.36 78.9077C328.226 78.8381 328.11 78.7378 328.022 78.6147C327.934 78.4917 327.876 78.3495 327.852 78.1996C327.829 78.0497 327.841 77.8965 327.888 77.7523L328.831 74.9079C330.005 71.37 329.732 67.5085 328.073 64.1728C328.04 64.1095 327.987 64.059 327.922 64.0292C327.858 63.9995 327.785 63.9922 327.716 64.0085C327.647 64.0249 327.585 64.0639 327.54 64.1194C327.496 64.175 327.471 64.2439 327.469 64.3153C327.47 67.6474 326.697 70.9338 325.214 73.914L322.336 79.6971C321.989 80.3944 321.907 81.195 322.107 81.9485C322.306 82.7019 322.773 83.3561 323.419 83.788L330.134 88.286C330.274 88.3811 330.446 88.4165 330.613 88.3844C330.779 88.3523 330.926 88.2553 331.021 88.1146Z" fill="#FFB41F"/>
<path d="M368.895 79.7002L366.017 73.9187C364.535 70.9391 363.762 67.6537 363.762 64.3225C363.763 64.2501 363.739 64.1797 363.694 64.1228C363.649 64.0658 363.587 64.0257 363.517 64.0088C363.447 63.992 363.373 63.9994 363.308 64.0299C363.243 64.0604 363.189 64.1122 363.157 64.1769C361.498 67.5117 361.225 71.3721 362.398 74.909L363.341 77.7527C363.388 77.8968 363.4 78.05 363.377 78.1999C363.354 78.3497 363.296 78.4919 363.207 78.6149C363.119 78.7379 363.003 78.8382 362.869 78.9078C362.735 78.9773 362.586 79.014 362.435 79.0149H355.364C355.249 79.0153 355.136 79.0469 355.037 79.1063C354.938 79.1658 354.858 79.251 354.803 79.3529C354.748 79.4548 354.722 79.5696 354.727 79.6851C354.732 79.8007 354.768 79.9128 354.831 80.0096L360.209 88.1122C360.303 88.2527 360.449 88.3502 360.614 88.3835C360.779 88.4167 360.951 88.3831 361.092 88.29L367.806 83.7932C368.454 83.3623 368.922 82.7081 369.123 81.9541C369.323 81.2001 369.242 80.3983 368.895 79.7002Z" fill="#FFB41F"/>
<path d="M363.28 98.3364H363.273L350.907 79.7279C350.761 79.508 350.563 79.3276 350.331 79.203C350.098 79.0783 349.839 79.0131 349.575 79.0132H341.647C341.384 79.0131 341.125 79.0782 340.893 79.203C340.661 79.3277 340.463 79.508 340.317 79.7279L327.958 98.3364H327.95H327.958L340.321 116.957C340.467 117.177 340.665 117.357 340.897 117.481C341.129 117.606 341.388 117.671 341.652 117.671H349.58C349.843 117.671 350.102 117.605 350.334 117.481C350.567 117.356 350.765 117.176 350.911 116.957L363.273 98.3472H363.28V98.3364ZM337.929 86.7509L342.391 89.727C342.049 90.1441 341.578 90.4349 341.053 90.5532C340.528 90.6716 339.979 90.6108 339.492 90.3805C338.226 89.8109 337.642 88.5211 337.929 86.7509ZM349.043 115.12C347.187 116.571 344.697 116.704 342.644 115.463C340.531 114.185 339.629 112.085 340.086 109.368C344.53 110.525 344.183 111.157 351.045 109.443C351.657 111.581 350.929 113.645 349.043 115.12ZM351.817 90.3483C350.87 90.8395 349.679 90.603 348.794 89.7593L353.323 86.724C353.501 88.3652 353.217 89.6239 351.817 90.3483Z" fill="#FFB41F"/>
<path d="M342.564 89.7875C342.228 90.1929 341.765 90.4755 341.248 90.5905C340.731 90.7056 340.19 90.6465 339.711 90.4227C338.464 89.869 337.89 88.6143 338.172 86.8947L342.564 89.7875Z" fill="#1A1A1A"/>
<path d="M351.783 90.4025C350.86 90.8779 349.699 90.6491 348.836 89.8324L353.252 86.8947C353.426 88.4832 353.149 89.7014 351.783 90.4025Z" fill="#1A1A1A"/>
<path d="M232.647 241.774C232.683 241.742 232.72 241.712 232.754 241.677L236.156 238.276C236.734 237.698 237.058 236.913 237.058 236.095C237.058 235.278 236.734 234.493 236.156 233.915L236.122 233.881C235.543 233.303 234.759 232.978 233.94 232.978C233.122 232.978 232.338 233.303 231.759 233.881L229.135 236.504L226.72 232.891C226.537 232.617 226.29 232.392 226 232.237C225.709 232.081 225.385 232 225.056 232H215.157C214.828 232 214.504 232.081 214.214 232.237C213.923 232.392 213.676 232.617 213.494 232.891L210.93 236.737L208.562 233.936C208.033 233.311 207.279 232.922 206.464 232.854C205.649 232.785 204.84 233.043 204.215 233.571L204.178 233.602C203.554 234.13 203.165 234.885 203.096 235.7C203.028 236.515 203.286 237.324 203.813 237.949L206.918 241.622C207.055 241.785 207.209 241.933 207.377 242.064L198.024 256.095H198C197.997 258.868 198.611 261.607 199.796 264.114C201.222 267.144 203.422 269.743 206.175 271.649L216.787 278.943C217.795 279.635 218.99 280.004 220.212 280C221.434 279.996 222.626 279.62 223.63 278.922L234.085 271.649C236.794 269.747 238.96 267.172 240.37 264.177L240.397 264.118C241.582 261.611 242.197 258.872 242.194 256.099L232.647 241.774ZM223.39 242.363C224.439 242.139 225.488 241.911 226.547 241.736C226.941 241.671 227.168 242.005 227.083 242.407C226.883 243.346 226.429 243.815 225.607 243.812C225.496 243.773 225.264 243.707 225.044 243.612C224.507 243.379 223.971 243.138 223.434 242.882C223.317 242.822 223.228 242.719 223.184 242.595C223.162 242.544 223.297 242.38 223.384 242.363H223.39ZM213.455 241.728C214.403 241.924 215.439 242.131 216.472 242.36C216.525 242.379 216.573 242.41 216.612 242.451C216.65 242.492 216.678 242.542 216.693 242.596C216.685 242.653 216.663 242.707 216.63 242.754C216.596 242.8 216.552 242.838 216.502 242.865C215.831 243.177 215.149 243.495 214.454 243.762C214.194 243.849 213.912 243.841 213.657 243.739C213.402 243.637 213.192 243.448 213.064 243.206C212.923 242.928 212.822 242.631 212.764 242.325C212.691 241.97 212.962 241.72 213.449 241.73L213.455 241.728ZM221.773 267.66V260.549C221.774 260.437 221.798 260.326 221.844 260.224C221.89 260.121 221.958 260.03 222.041 259.955L224.23 257.981C224.39 257.834 224.502 257.643 224.551 257.431C224.601 257.22 224.586 256.998 224.508 256.796C224.43 256.593 224.292 256.419 224.114 256.295C223.935 256.171 223.724 256.105 223.506 256.103H216.716C216.499 256.104 216.287 256.171 216.108 256.294C215.929 256.418 215.792 256.592 215.714 256.795C215.635 256.998 215.62 257.22 215.67 257.431C215.719 257.643 215.832 257.834 215.992 257.981L218.172 259.954C218.255 260.028 218.322 260.12 218.369 260.222C218.415 260.324 218.439 260.434 218.44 260.547V267.657C214.476 266.773 212.507 262.724 212.507 258.232C212.507 257.457 212.541 256.747 212.607 256.092H212.623C213.133 251.003 215.621 249.43 220.124 249.43C224.627 249.43 227.101 250.991 227.619 256.035H227.611C227.675 256.688 227.717 257.457 227.717 258.232C227.7 262.727 225.731 266.776 221.766 267.66H221.773Z" fill="#FFB41F"/>
<path d="M227.701 258.232C227.701 262.724 225.731 266.773 221.767 267.658V260.547C221.767 260.434 221.792 260.324 221.838 260.221C221.884 260.119 221.951 260.027 222.035 259.952L224.223 257.979C224.383 257.832 224.495 257.64 224.545 257.429C224.595 257.217 224.579 256.996 224.501 256.793C224.423 256.591 224.286 256.416 224.107 256.292C223.929 256.169 223.717 256.102 223.5 256.1H216.71C216.492 256.102 216.281 256.168 216.102 256.292C215.923 256.415 215.785 256.59 215.707 256.793C215.629 256.995 215.614 257.217 215.663 257.429C215.713 257.64 215.825 257.832 215.985 257.979L218.165 259.951C218.249 260.026 218.316 260.117 218.362 260.219C218.408 260.321 218.433 260.432 218.434 260.544V267.655C214.469 266.771 212.501 262.722 212.501 258.23C212.501 257.454 212.535 256.744 212.6 256.09H212.616C213.126 251.001 215.615 249.427 220.118 249.427C224.62 249.427 227.094 250.989 227.612 256.032H227.604C227.659 256.691 227.701 257.46 227.701 258.232Z" fill="#1A1A1A"/>
<path d="M216.689 242.596C216.68 242.653 216.659 242.707 216.625 242.753C216.592 242.8 216.548 242.838 216.497 242.865C215.826 243.177 215.145 243.495 214.45 243.762C214.19 243.848 213.909 243.839 213.656 243.737C213.402 243.635 213.193 243.447 213.065 243.205C212.924 242.927 212.823 242.631 212.765 242.325C212.692 241.966 212.963 241.716 213.45 241.724C214.399 241.92 215.434 242.127 216.468 242.356C216.521 242.375 216.57 242.407 216.608 242.449C216.647 242.49 216.675 242.541 216.689 242.596Z" fill="#1A1A1A"/>
<path d="M227.077 242.413C226.877 243.352 226.422 243.82 225.601 243.817C225.49 243.778 225.258 243.713 225.038 243.617C224.501 243.384 223.965 243.144 223.428 242.888C223.311 242.827 223.222 242.724 223.178 242.6C223.161 242.544 223.296 242.38 223.384 242.363C224.433 242.139 225.482 241.911 226.54 241.736C226.936 241.671 227.163 242.01 227.077 242.413Z" fill="#1A1A1A"/>
<circle cx="345" cy="134" r="8" fill="#FFB41F" fill-opacity="0.5"/>
<circle cx="345" cy="134" r="4" fill="#FFB41F"/>
<circle cx="220" cy="219" r="8" fill="#FFB41F" fill-opacity="0.5"/>
<circle cx="220" cy="219" r="4" fill="#FFB41F"/>
<defs>
<linearGradient id="paint0_linear_578_469" x1="385.5" y1="15" x2="385.5" y2="295" gradientUnits="userSpaceOnUse">
<stop stop-color="white"/>
<stop offset="1" stop-color="white" stop-opacity="0"/>
</linearGradient>
</defs>
</svg>
