<svg width="1554" height="434" viewBox="0 0 1554 434" fill="none" xmlns="http://www.w3.org/2000/svg">
<g filter="url(#filter0_d_578_464)">
<rect x="17" y="9" width="1520" height="400" rx="16" fill="#1A1A1A"/>
<rect x="17" y="9" width="1520" height="400" rx="16" stroke="#383838" stroke-width="2"/>
</g>
<path d="M95.7898 120H102.028L109.034 95.5057H109.307L116.295 120H122.534L132.386 85.0909H125.585L119.295 110.761H118.989L112.256 85.0909H106.068L99.3523 110.744H99.0284L92.7386 85.0909H85.9375L95.7898 120ZM142.669 104.659C142.669 100.875 145.021 98.6932 148.328 98.6932C151.567 98.6932 153.476 100.756 153.476 104.284V120H159.646V103.33C159.646 97.0057 156.067 93.4773 150.629 93.4773C146.607 93.4773 144.05 95.3011 142.839 98.267H142.533V85.0909H136.499V120H142.669V104.659ZM177.527 120.511C183.629 120.511 187.822 117.528 188.913 112.977L183.152 112.33C182.317 114.545 180.271 115.705 177.612 115.705C173.624 115.705 170.982 113.08 170.93 108.597H189.169V106.705C189.169 97.517 183.646 93.4773 177.203 93.4773C169.703 93.4773 164.811 98.983 164.811 107.062C164.811 115.278 169.635 120.511 177.527 120.511ZM170.947 104.438C171.135 101.097 173.607 98.2841 177.288 98.2841C180.834 98.2841 183.22 100.875 183.254 104.438H170.947ZM194.389 120H200.56V104.608C200.56 101.284 203.065 98.9318 206.457 98.9318C207.497 98.9318 208.793 99.1193 209.321 99.2898V93.6136C208.759 93.5114 207.787 93.4432 207.105 93.4432C204.105 93.4432 201.599 95.1477 200.645 98.1818H200.372V93.8182H194.389V120ZM223.933 120.511C230.036 120.511 234.229 117.528 235.32 112.977L229.558 112.33C228.723 114.545 226.678 115.705 224.018 115.705C220.03 115.705 217.388 113.08 217.337 108.597H235.575V106.705C235.575 97.517 230.053 93.4773 223.609 93.4773C216.109 93.4773 211.217 98.983 211.217 107.062C211.217 115.278 216.041 120.511 223.933 120.511ZM217.354 104.438C217.541 101.097 220.013 98.2841 223.695 98.2841C227.24 98.2841 229.626 100.875 229.661 104.438H217.354ZM265.776 93.8182H260.611V87.5455H254.44V93.8182H250.724V98.5909H254.44V113.148C254.406 118.074 257.986 120.494 262.622 120.358C264.378 120.307 265.588 119.966 266.253 119.744L265.213 114.92C264.872 115.006 264.173 115.159 263.406 115.159C261.855 115.159 260.611 114.614 260.611 112.125V98.5909H265.776V93.8182ZM277.669 104.659C277.669 100.875 280.021 98.6932 283.328 98.6932C286.567 98.6932 288.476 100.756 288.476 104.284V120H294.646V103.33C294.646 97.0057 291.067 93.4773 285.629 93.4773C281.607 93.4773 279.05 95.3011 277.839 98.267H277.533V85.0909H271.499V120H277.669V104.659ZM312.527 120.511C318.629 120.511 322.822 117.528 323.913 112.977L318.152 112.33C317.317 114.545 315.271 115.705 312.612 115.705C308.624 115.705 305.982 113.08 305.93 108.597H324.169V106.705C324.169 97.517 318.646 93.4773 312.203 93.4773C304.703 93.4773 299.811 98.983 299.811 107.062C299.811 115.278 304.635 120.511 312.527 120.511ZM305.947 104.438C306.135 101.097 308.607 98.2841 312.288 98.2841C315.834 98.2841 318.22 100.875 318.254 104.438H305.947ZM347.466 104.659C347.466 100.875 349.75 98.6932 353.006 98.6932C356.193 98.6932 358.102 100.79 358.102 104.284V120H364.273V103.33C364.29 97.0568 360.71 93.4773 355.307 93.4773C351.386 93.4773 348.693 95.3523 347.5 98.267H347.193V93.8182H341.295V120H347.466V104.659ZM382.136 120.511C388.239 120.511 392.432 117.528 393.523 112.977L387.761 112.33C386.926 114.545 384.881 115.705 382.222 115.705C378.233 115.705 375.591 113.08 375.54 108.597H393.778V106.705C393.778 97.517 388.256 93.4773 381.812 93.4773C374.312 93.4773 369.42 98.983 369.42 107.062C369.42 115.278 374.244 120.511 382.136 120.511ZM375.557 104.438C375.744 101.097 378.216 98.2841 381.898 98.2841C385.443 98.2841 387.83 100.875 387.864 104.438H375.557ZM404.261 120H410.705L415.614 102.307H415.972L420.881 120H427.307L434.722 93.8182H428.415L423.881 112.125H423.625L418.92 93.8182H412.699L407.994 112.227H407.756L403.153 93.8182H396.864L404.261 120ZM458.47 120.528C462.578 120.528 465.033 118.602 466.158 116.403H466.362V120H472.294V102.477C472.294 95.5568 466.652 93.4773 461.658 93.4773C456.152 93.4773 451.925 95.9318 450.561 100.705L456.322 101.523C456.936 99.733 458.675 98.1989 461.692 98.1989C464.555 98.1989 466.124 99.6648 466.124 102.239V102.341C466.124 104.114 464.266 104.199 459.646 104.693C454.567 105.239 449.709 106.756 449.709 112.653C449.709 117.801 453.476 120.528 458.47 120.528ZM460.072 115.994C457.499 115.994 455.658 114.818 455.658 112.551C455.658 110.182 457.72 109.193 460.482 108.801C462.101 108.58 465.339 108.17 466.141 107.523V110.608C466.141 113.523 463.788 115.994 460.072 115.994ZM489.885 130.364C496.959 130.364 502.175 127.125 502.175 120.426V93.8182H496.089V98.1477H495.749C494.811 96.2557 492.851 93.4773 488.232 93.4773C482.18 93.4773 477.425 98.2159 477.425 106.824C477.425 115.364 482.18 119.625 488.214 119.625C492.697 119.625 494.794 117.222 495.749 115.295H496.055V120.256C496.055 124.108 493.499 125.693 489.987 125.693C486.271 125.693 484.635 123.938 483.885 122.403L478.328 123.75C479.453 127.415 483.22 130.364 489.885 130.364ZM489.936 114.784C485.862 114.784 483.714 111.614 483.714 106.79C483.714 102.034 485.828 98.5398 489.936 98.5398C493.908 98.5398 496.089 101.83 496.089 106.79C496.089 111.784 493.874 114.784 489.936 114.784ZM520.089 120.511C526.192 120.511 530.385 117.528 531.476 112.977L525.714 112.33C524.879 114.545 522.834 115.705 520.175 115.705C516.186 115.705 513.544 113.08 513.493 108.597H531.732V106.705C531.732 97.517 526.209 93.4773 519.766 93.4773C512.266 93.4773 507.374 98.983 507.374 107.062C507.374 115.278 512.197 120.511 520.089 120.511ZM513.51 104.438C513.697 101.097 516.169 98.2841 519.851 98.2841C523.396 98.2841 525.783 100.875 525.817 104.438H513.51ZM561.932 93.8182H556.767V87.5455H550.597V93.8182H546.881V98.5909H550.597V113.148C550.562 118.074 554.142 120.494 558.778 120.358C560.534 120.307 561.744 119.966 562.409 119.744L561.369 114.92C561.028 115.006 560.33 115.159 559.562 115.159C558.011 115.159 556.767 114.614 556.767 112.125V98.5909H561.932V93.8182ZM567.092 120H573.263V104.608C573.263 101.284 575.768 98.9318 579.161 98.9318C580.2 98.9318 581.496 99.1193 582.024 99.2898V93.6136C581.462 93.5114 580.49 93.4432 579.808 93.4432C576.808 93.4432 574.303 95.1477 573.348 98.1818H573.075V93.8182H567.092V120ZM593.142 120.528C597.25 120.528 599.705 118.602 600.83 116.403H601.034V120H606.966V102.477C606.966 95.5568 601.324 93.4773 596.33 93.4773C590.824 93.4773 586.597 95.9318 585.233 100.705L590.994 101.523C591.608 99.733 593.347 98.1989 596.364 98.1989C599.227 98.1989 600.795 99.6648 600.795 102.239V102.341C600.795 104.114 598.938 104.199 594.318 104.693C589.239 105.239 584.381 106.756 584.381 112.653C584.381 117.801 588.148 120.528 593.142 120.528ZM594.744 115.994C592.17 115.994 590.33 114.818 590.33 112.551C590.33 110.182 592.392 109.193 595.153 108.801C596.773 108.58 600.011 108.17 600.812 107.523V110.608C600.812 113.523 598.46 115.994 594.744 115.994ZM622.886 120.46C627.386 120.46 629.415 117.784 630.386 115.875H630.761V120H636.83V85.0909H630.642V98.1477H630.386C629.449 96.2557 627.523 93.4773 622.903 93.4773C616.852 93.4773 612.097 98.2159 612.097 106.943C612.097 115.568 616.716 120.46 622.886 120.46ZM624.608 115.398C620.534 115.398 618.386 111.818 618.386 106.909C618.386 102.034 620.5 98.5398 624.608 98.5398C628.58 98.5398 630.761 101.83 630.761 106.909C630.761 111.989 628.545 115.398 624.608 115.398ZM654.996 120.511C661.098 120.511 665.291 117.528 666.382 112.977L660.621 112.33C659.786 114.545 657.74 115.705 655.081 115.705C651.092 115.705 648.45 113.08 648.399 108.597H666.638V106.705C666.638 97.517 661.115 93.4773 654.672 93.4773C647.172 93.4773 642.28 98.983 642.28 107.062C642.28 115.278 647.104 120.511 654.996 120.511ZM648.416 104.438C648.604 101.097 651.075 98.2841 654.757 98.2841C658.303 98.2841 660.689 100.875 660.723 104.438H648.416ZM671.858 120H678.028V104.608C678.028 101.284 680.534 98.9318 683.926 98.9318C684.966 98.9318 686.261 99.1193 686.79 99.2898V93.6136C686.227 93.5114 685.256 93.4432 684.574 93.4432C681.574 93.4432 679.068 95.1477 678.114 98.1818H677.841V93.8182H671.858V120ZM101.432 145.818H95.9943V143.756C95.9943 141.71 96.8466 140.568 99.1477 140.568C100.119 140.568 100.938 140.79 101.449 140.943L102.693 136.17C101.892 135.898 100.136 135.455 98.0057 135.455C93.4545 135.455 89.8239 138.062 89.8239 143.347V145.818H85.9545V150.591H89.8239V172H95.9943V150.591H101.432V145.818ZM106.264 172H112.435V145.818H106.264V172ZM109.366 142.102C111.327 142.102 112.929 140.602 112.929 138.761C112.929 136.903 111.327 135.403 109.366 135.403C107.389 135.403 105.787 136.903 105.787 138.761C105.787 140.602 107.389 142.102 109.366 142.102ZM124.95 156.659C124.95 152.875 127.234 150.693 130.49 150.693C133.678 150.693 135.587 152.79 135.587 156.284V172H141.757V155.33C141.774 149.057 138.195 145.477 132.791 145.477C128.871 145.477 126.178 147.352 124.984 150.267H124.678V145.818H118.78V172H124.95V156.659ZM157.746 172.46C162.246 172.46 164.274 169.784 165.246 167.875H165.621V172H171.689V137.091H165.501V150.148H165.246C164.308 148.256 162.382 145.477 157.763 145.477C151.712 145.477 146.956 150.216 146.956 158.943C146.956 167.568 151.575 172.46 157.746 172.46ZM159.467 167.398C155.393 167.398 153.246 163.818 153.246 158.909C153.246 154.034 155.359 150.54 159.467 150.54C163.439 150.54 165.621 153.83 165.621 158.909C165.621 163.989 163.405 167.398 159.467 167.398ZM198.957 152.739C198.105 148.307 194.56 145.477 188.423 145.477C182.116 145.477 177.821 148.58 177.838 153.42C177.821 157.239 180.173 159.761 185.202 160.801L189.668 161.739C192.071 162.267 193.196 163.239 193.196 164.722C193.196 166.511 191.253 167.858 188.321 167.858C185.491 167.858 183.651 166.631 183.122 164.278L177.105 164.858C177.872 169.665 181.912 172.511 188.338 172.511C194.884 172.511 199.503 169.119 199.52 164.159C199.503 160.426 197.099 158.142 192.156 157.068L187.69 156.114C185.031 155.517 183.974 154.597 183.991 153.08C183.974 151.307 185.935 150.08 188.509 150.08C191.355 150.08 192.855 151.631 193.332 153.352L198.957 152.739ZM229.588 145.818H224.423V139.545H218.253V145.818H214.537V150.591H218.253V165.148C218.219 170.074 221.798 172.494 226.435 172.358C228.19 172.307 229.401 171.966 230.065 171.744L229.026 166.92C228.685 167.006 227.986 167.159 227.219 167.159C225.668 167.159 224.423 166.614 224.423 164.125V150.591H229.588V145.818ZM234.749 172H240.919V156.608C240.919 153.284 243.425 150.932 246.817 150.932C247.857 150.932 249.152 151.119 249.68 151.29V145.614C249.118 145.511 248.146 145.443 247.464 145.443C244.464 145.443 241.959 147.148 241.004 150.182H240.732V145.818H234.749V172ZM270.467 160.989C270.467 164.977 267.621 166.955 264.893 166.955C261.928 166.955 259.95 164.858 259.95 161.534V145.818H253.78V162.489C253.78 168.778 257.359 172.341 262.507 172.341C266.428 172.341 269.189 170.278 270.382 167.347H270.655V172H276.638V145.818H270.467V160.989ZM294.574 172.511C300.676 172.511 304.869 169.528 305.96 164.977L300.199 164.33C299.364 166.545 297.318 167.705 294.659 167.705C290.67 167.705 288.028 165.08 287.977 160.597H306.216V158.705C306.216 149.517 300.693 145.477 294.25 145.477C286.75 145.477 281.858 150.983 281.858 159.062C281.858 167.278 286.682 172.511 294.574 172.511ZM287.994 156.438C288.182 153.097 290.653 150.284 294.335 150.284C297.881 150.284 300.267 152.875 300.301 156.438H287.994Z" fill="white"/>
<path d="M346.729 145.818H340.166L334.132 165.267H333.859L327.842 145.818H321.263L330.587 172H337.405L346.729 145.818ZM357.783 172.528C361.891 172.528 364.345 170.602 365.47 168.403H365.675V172H371.607V154.477C371.607 147.557 365.964 145.477 360.97 145.477C355.464 145.477 351.237 147.932 349.874 152.705L355.635 153.523C356.249 151.733 357.987 150.199 361.004 150.199C363.868 150.199 365.436 151.665 365.436 154.239V154.341C365.436 156.114 363.578 156.199 358.959 156.693C353.879 157.239 349.021 158.756 349.021 164.653C349.021 169.801 352.788 172.528 357.783 172.528ZM359.385 167.994C356.811 167.994 354.97 166.818 354.97 164.551C354.97 162.182 357.033 161.193 359.794 160.801C361.413 160.58 364.652 160.17 365.453 159.523V162.608C365.453 165.523 363.101 167.994 359.385 167.994ZM383.982 137.091H377.811V172H383.982V137.091ZM407.014 160.989C407.014 164.977 404.168 166.955 401.44 166.955C398.474 166.955 396.497 164.858 396.497 161.534V145.818H390.327V162.489C390.327 168.778 393.906 172.341 399.054 172.341C402.974 172.341 405.736 170.278 406.929 167.347H407.202V172H413.185V145.818H407.014V160.989ZM431.121 172.511C437.223 172.511 441.416 169.528 442.507 164.977L436.746 164.33C435.911 166.545 433.865 167.705 431.206 167.705C427.217 167.705 424.575 165.08 424.524 160.597H442.763V158.705C442.763 149.517 437.24 145.477 430.797 145.477C423.297 145.477 418.405 150.983 418.405 159.062C418.405 167.278 423.229 172.511 431.121 172.511ZM424.541 156.438C424.729 153.097 427.2 150.284 430.882 150.284C434.428 150.284 436.814 152.875 436.848 156.438H424.541Z" fill="#FFB41F"/>
<path d="M86.7614 222H88.5227V215.494H96.2784V222H98.0398V207.455H96.2784V213.932H88.5227V207.455H86.7614V222ZM105.771 222.227C108.725 222.227 110.714 219.983 110.714 216.602C110.714 213.193 108.725 210.949 105.771 210.949C102.816 210.949 100.827 213.193 100.827 216.602C100.827 219.983 102.816 222.227 105.771 222.227ZM105.771 220.722C103.526 220.722 102.504 218.79 102.504 216.602C102.504 214.415 103.526 212.455 105.771 212.455C108.015 212.455 109.038 214.415 109.038 216.602C109.038 218.79 108.015 220.722 105.771 220.722ZM113.272 222H114.949V215.097C114.949 213.619 116.113 212.54 117.704 212.54C118.152 212.54 118.613 212.625 118.727 212.653V210.949C118.535 210.935 118.095 210.92 117.846 210.92C116.539 210.92 115.403 211.659 115.005 212.739H114.892V211.091H113.272V222ZM122.39 215.438C122.39 213.534 123.569 212.455 125.174 212.455C126.729 212.455 127.674 213.47 127.674 215.182V222H129.35V215.068C129.35 212.284 127.866 210.949 125.657 210.949C124.009 210.949 122.987 211.688 122.475 212.795H122.333V211.091H120.714V222H122.39V215.438ZM136.845 222.227C139.26 222.227 140.85 220.75 141.135 218.818H139.458C139.146 220.011 138.152 220.722 136.845 220.722C134.856 220.722 133.578 219.074 133.578 216.545C133.578 214.074 134.885 212.455 136.845 212.455C138.322 212.455 139.203 213.364 139.458 214.358H141.135C140.85 212.312 139.118 210.949 136.816 210.949C133.862 210.949 131.902 213.278 131.902 216.602C131.902 219.869 133.777 222.227 136.845 222.227ZM145.261 207.455H143.585V222H145.261V207.455ZM151.541 222.256C153.445 222.256 154.439 221.233 154.78 220.523H154.865V222H156.541V214.812C156.541 211.347 153.899 210.949 152.507 210.949C150.859 210.949 148.984 211.517 148.132 213.506L149.723 214.074C150.092 213.278 150.966 212.426 152.564 212.426C154.105 212.426 154.865 213.243 154.865 214.642V214.699C154.865 215.509 154.041 215.438 152.053 215.693C150.028 215.956 147.82 216.403 147.82 218.903C147.82 221.034 149.467 222.256 151.541 222.256ZM151.797 220.75C150.462 220.75 149.496 220.153 149.496 218.989C149.496 217.71 150.661 217.312 151.967 217.142C152.678 217.057 154.581 216.858 154.865 216.517V218.051C154.865 219.415 153.786 220.75 151.797 220.75ZM162.072 222H163.72L166.106 213.619H166.277L168.663 222H170.311L173.635 211.091H171.873L169.515 219.415H169.402L167.1 211.091H165.311L162.981 219.443H162.868L160.51 211.091H158.748L162.072 222ZM181.475 226.091H183.152V220.324H183.294C183.663 220.92 184.373 222.227 186.475 222.227C189.203 222.227 191.106 220.04 191.106 216.574C191.106 213.136 189.203 210.949 186.447 210.949C184.316 210.949 183.663 212.256 183.294 212.824H183.095V211.091H181.475V226.091ZM183.123 216.545C183.123 214.102 184.203 212.455 186.248 212.455C188.379 212.455 189.43 214.244 189.43 216.545C189.43 218.875 188.35 220.722 186.248 220.722C184.231 220.722 183.123 219.017 183.123 216.545ZM193.663 222H195.339V215.097C195.339 213.619 196.504 212.54 198.095 212.54C198.542 212.54 199.004 212.625 199.118 212.653V210.949C198.926 210.935 198.485 210.92 198.237 210.92C196.93 210.92 195.794 211.659 195.396 212.739H195.282V211.091H193.663V222ZM205.204 222.227C208.159 222.227 210.147 219.983 210.147 216.602C210.147 213.193 208.159 210.949 205.204 210.949C202.25 210.949 200.261 213.193 200.261 216.602C200.261 219.983 202.25 222.227 205.204 222.227ZM205.204 220.722C202.96 220.722 201.937 218.79 201.937 216.602C201.937 214.415 202.96 212.455 205.204 212.455C207.449 212.455 208.471 214.415 208.471 216.602C208.471 218.79 207.449 220.722 205.204 220.722ZM221.236 211.091H219.418L216.406 219.784H216.293L213.281 211.091H211.463L215.497 222H217.202L221.236 211.091ZM223.448 222H225.124V211.091H223.448V222ZM224.3 209.273C224.954 209.273 225.494 208.761 225.494 208.136C225.494 207.511 224.954 207 224.3 207C223.647 207 223.107 207.511 223.107 208.136C223.107 208.761 223.647 209.273 224.3 209.273ZM232.314 222.227C234.416 222.227 235.126 220.92 235.495 220.324H235.694V222H237.314V207.455H235.637V212.824H235.495C235.126 212.256 234.473 210.949 232.342 210.949C229.586 210.949 227.683 213.136 227.683 216.574C227.683 220.04 229.586 222.227 232.314 222.227ZM232.541 220.722C230.439 220.722 229.359 218.875 229.359 216.545C229.359 214.244 230.41 212.455 232.541 212.455C234.586 212.455 235.666 214.102 235.666 216.545C235.666 219.017 234.558 220.722 232.541 220.722ZM245.19 222.227C247.406 222.227 249.025 221.119 249.537 219.472L247.917 219.017C247.491 220.153 246.504 220.722 245.19 220.722C243.223 220.722 241.866 219.45 241.788 217.114H249.707V216.403C249.707 212.341 247.292 210.949 245.02 210.949C242.065 210.949 240.105 213.278 240.105 216.631C240.105 219.983 242.037 222.227 245.19 222.227ZM241.788 215.665C241.902 213.967 243.102 212.455 245.02 212.455C246.838 212.455 248.002 213.818 248.002 215.665H241.788ZM259.984 213.534C259.458 211.986 258.279 210.949 256.12 210.949C253.819 210.949 252.115 212.256 252.115 214.102C252.115 215.608 253.01 216.616 255.012 217.085L256.831 217.511C257.931 217.767 258.45 218.293 258.45 219.045C258.45 219.983 257.456 220.75 255.893 220.75C254.522 220.75 253.663 220.161 253.365 218.989L251.774 219.386C252.164 221.24 253.691 222.227 255.922 222.227C258.457 222.227 260.183 220.842 260.183 218.96C260.183 217.44 259.231 216.482 257.285 216.006L255.666 215.608C254.373 215.288 253.791 214.855 253.791 214.017C253.791 213.08 254.785 212.398 256.12 212.398C257.583 212.398 258.187 213.207 258.478 213.96L259.984 213.534ZM271.541 222.256C273.445 222.256 274.439 221.233 274.78 220.523H274.865V222H276.541V214.812C276.541 211.347 273.899 210.949 272.507 210.949C270.859 210.949 268.984 211.517 268.132 213.506L269.723 214.074C270.092 213.278 270.966 212.426 272.564 212.426C274.105 212.426 274.865 213.243 274.865 214.642V214.699C274.865 215.509 274.041 215.438 272.053 215.693C270.028 215.956 267.82 216.403 267.82 218.903C267.82 221.034 269.467 222.256 271.541 222.256ZM271.797 220.75C270.462 220.75 269.496 220.153 269.496 218.989C269.496 217.71 270.661 217.312 271.967 217.142C272.678 217.057 274.581 216.858 274.865 216.517V218.051C274.865 219.415 273.786 220.75 271.797 220.75ZM285.225 222H286.902V215.097C286.902 213.619 288.066 212.54 289.657 212.54C290.105 212.54 290.566 212.625 290.68 212.653V210.949C290.488 210.935 290.048 210.92 289.799 210.92C288.493 210.92 287.356 211.659 286.958 212.739H286.845V211.091H285.225V222ZM296.909 222.227C299.125 222.227 300.744 221.119 301.255 219.472L299.636 219.017C299.21 220.153 298.223 220.722 296.909 220.722C294.941 220.722 293.585 219.45 293.507 217.114H301.426V216.403C301.426 212.341 299.011 210.949 296.738 210.949C293.784 210.949 291.824 213.278 291.824 216.631C291.824 219.983 293.755 222.227 296.909 222.227ZM293.507 215.665C293.62 213.967 294.821 212.455 296.738 212.455C298.556 212.455 299.721 213.818 299.721 215.665H293.507ZM305.652 207.455H303.975V222H305.652V207.455ZM308.722 222H310.398V211.091H308.722V222ZM309.574 209.273C310.227 209.273 310.767 208.761 310.767 208.136C310.767 207.511 310.227 207 309.574 207C308.92 207 308.381 207.511 308.381 208.136C308.381 208.761 308.92 209.273 309.574 209.273ZM316.678 222.256C318.581 222.256 319.576 221.233 319.917 220.523H320.002V222H321.678V214.812C321.678 211.347 319.036 210.949 317.644 210.949C315.996 210.949 314.121 211.517 313.269 213.506L314.86 214.074C315.229 213.278 316.103 212.426 317.701 212.426C319.242 212.426 320.002 213.243 320.002 214.642V214.699C320.002 215.509 319.178 215.438 317.189 215.693C315.165 215.956 312.956 216.403 312.956 218.903C312.956 221.034 314.604 222.256 316.678 222.256ZM316.934 220.75C315.598 220.75 314.632 220.153 314.632 218.989C314.632 217.71 315.797 217.312 317.104 217.142C317.814 217.057 319.718 216.858 320.002 216.517V218.051C320.002 219.415 318.922 220.75 316.934 220.75ZM324.964 222H326.584V220.324H326.783C327.152 220.92 327.862 222.227 329.964 222.227C332.692 222.227 334.595 220.04 334.595 216.574C334.595 213.136 332.692 210.949 329.936 210.949C327.805 210.949 327.152 212.256 326.783 212.824H326.641V207.455H324.964V222ZM326.612 216.545C326.612 214.102 327.692 212.455 329.737 212.455C331.868 212.455 332.919 214.244 332.919 216.545C332.919 218.875 331.839 220.722 329.737 220.722C327.72 220.722 326.612 219.017 326.612 216.545ZM338.835 207.455H337.159V222H338.835V207.455ZM346.479 222.227C348.695 222.227 350.314 221.119 350.826 219.472L349.206 219.017C348.78 220.153 347.793 220.722 346.479 220.722C344.512 220.722 343.155 219.45 343.077 217.114H350.996V216.403C350.996 212.341 348.581 210.949 346.309 210.949C343.354 210.949 341.394 213.278 341.394 216.631C341.394 219.983 343.326 222.227 346.479 222.227ZM343.077 215.665C343.191 213.967 344.391 212.455 346.309 212.455C348.127 212.455 349.292 213.818 349.292 215.665H343.077ZM362.381 222.256C364.284 222.256 365.279 221.233 365.62 220.523H365.705V222H367.381V214.812C367.381 211.347 364.739 210.949 363.347 210.949C361.699 210.949 359.824 211.517 358.972 213.506L360.563 214.074C360.932 213.278 361.806 212.426 363.404 212.426C364.945 212.426 365.705 213.243 365.705 214.642V214.699C365.705 215.509 364.881 215.438 362.892 215.693C360.868 215.956 358.659 216.403 358.659 218.903C358.659 221.034 360.307 222.256 362.381 222.256ZM362.637 220.75C361.301 220.75 360.336 220.153 360.336 218.989C360.336 217.71 361.5 217.312 362.807 217.142C363.517 217.057 365.421 216.858 365.705 216.517V218.051C365.705 219.415 364.625 220.75 362.637 220.75ZM378.97 211.091H377.152L374.141 219.784H374.027L371.016 211.091H369.197L373.232 222H374.936L378.97 211.091ZM385.366 222.227C387.582 222.227 389.201 221.119 389.712 219.472L388.093 219.017C387.667 220.153 386.68 220.722 385.366 220.722C383.398 220.722 382.042 219.45 381.964 217.114H389.883V216.403C389.883 212.341 387.468 210.949 385.195 210.949C382.241 210.949 380.281 213.278 380.281 216.631C380.281 219.983 382.212 222.227 385.366 222.227ZM381.964 215.665C382.077 213.967 383.278 212.455 385.195 212.455C387.013 212.455 388.178 213.818 388.178 215.665H381.964ZM394.109 215.438C394.109 213.534 395.288 212.455 396.893 212.455C398.448 212.455 399.393 213.47 399.393 215.182V222H401.069V215.068C401.069 212.284 399.585 210.949 397.376 210.949C395.728 210.949 394.705 211.688 394.194 212.795H394.052V211.091H392.433V222H394.109V215.438ZM411.007 217.54C411.007 219.585 409.444 220.523 408.194 220.523C406.802 220.523 405.808 219.5 405.808 217.909V211.091H404.132V218.023C404.132 220.807 405.609 222.142 407.654 222.142C409.302 222.142 410.382 221.261 410.893 220.153H411.007V222H412.683V211.091H411.007V217.54ZM420.327 222.227C422.543 222.227 424.162 221.119 424.673 219.472L423.054 219.017C422.628 220.153 421.641 220.722 420.327 220.722C418.359 220.722 417.003 219.45 416.925 217.114H424.844V216.403C424.844 212.341 422.429 210.949 420.156 210.949C417.202 210.949 415.241 213.278 415.241 216.631C415.241 219.983 417.173 222.227 420.327 222.227ZM416.925 215.665C417.038 213.967 418.239 212.455 420.156 212.455C421.974 212.455 423.139 213.818 423.139 215.665H416.925ZM437.763 211.091H435.433V208.477H433.757V211.091H432.109V212.511H433.757V219.33C433.757 221.233 435.291 222.142 436.712 222.142C437.337 222.142 437.734 222.028 437.962 221.943L437.621 220.438C437.479 220.466 437.251 220.523 436.882 220.523C436.143 220.523 435.433 220.295 435.433 218.875V212.511H437.763V211.091ZM444.599 222.227C447.553 222.227 449.542 219.983 449.542 216.602C449.542 213.193 447.553 210.949 444.599 210.949C441.644 210.949 439.656 213.193 439.656 216.602C439.656 219.983 441.644 222.227 444.599 222.227ZM444.599 220.722C442.354 220.722 441.332 218.79 441.332 216.602C441.332 214.415 442.354 212.455 444.599 212.455C446.843 212.455 447.866 214.415 447.866 216.602C447.866 218.79 446.843 220.722 444.599 220.722ZM462.47 211.091H460.14V208.477H458.464V211.091H456.816V212.511H458.464V219.33C458.464 221.233 459.998 222.142 461.419 222.142C462.044 222.142 462.441 222.028 462.669 221.943L462.328 220.438C462.186 220.466 461.958 220.523 461.589 220.523C460.85 220.523 460.14 220.295 460.14 218.875V212.511H462.47V211.091ZM464.991 222H466.667V215.097C466.667 213.619 467.832 212.54 469.423 212.54C469.87 212.54 470.332 212.625 470.446 212.653V210.949C470.254 210.935 469.814 210.92 469.565 210.92C468.258 210.92 467.122 211.659 466.724 212.739H466.61V211.091H464.991V222ZM475.643 222.256C477.546 222.256 478.54 221.233 478.881 220.523H478.967V222H480.643V214.812C480.643 211.347 478.001 210.949 476.609 210.949C474.961 210.949 473.086 211.517 472.234 213.506L473.825 214.074C474.194 213.278 475.067 212.426 476.665 212.426C478.207 212.426 478.967 213.243 478.967 214.642V214.699C478.967 215.509 478.143 215.438 476.154 215.693C474.13 215.956 471.921 216.403 471.921 218.903C471.921 221.034 473.569 222.256 475.643 222.256ZM475.898 220.75C474.563 220.75 473.597 220.153 473.597 218.989C473.597 217.71 474.762 217.312 476.069 217.142C476.779 217.057 478.683 216.858 478.967 216.517V218.051C478.967 219.415 477.887 220.75 475.898 220.75ZM487.821 222.227C489.924 222.227 490.634 220.92 491.003 220.324H491.202V222H492.821V207.455H491.145V212.824H491.003C490.634 212.256 489.98 210.949 487.85 210.949C485.094 210.949 483.191 213.136 483.191 216.574C483.191 220.04 485.094 222.227 487.821 222.227ZM488.049 220.722C485.946 220.722 484.867 218.875 484.867 216.545C484.867 214.244 485.918 212.455 488.049 212.455C490.094 212.455 491.174 214.102 491.174 216.545C491.174 219.017 490.066 220.722 488.049 220.722ZM500.698 222.227C502.914 222.227 504.533 221.119 505.044 219.472L503.425 219.017C502.999 220.153 502.012 220.722 500.698 220.722C498.73 220.722 497.374 219.45 497.296 217.114H505.215V216.403C505.215 212.341 502.8 210.949 500.527 210.949C497.573 210.949 495.613 213.278 495.613 216.631C495.613 219.983 497.544 222.227 500.698 222.227ZM497.296 215.665C497.409 213.967 498.61 212.455 500.527 212.455C502.346 212.455 503.51 213.818 503.51 215.665H497.296ZM513.39 222H515.066V211.091H513.39V222ZM514.242 209.273C514.895 209.273 515.435 208.761 515.435 208.136C515.435 207.511 514.895 207 514.242 207C513.588 207 513.049 207.511 513.049 208.136C513.049 208.761 513.588 209.273 514.242 209.273ZM519.812 215.438C519.812 213.534 520.991 212.455 522.596 212.455C524.151 212.455 525.096 213.47 525.096 215.182V222H526.772V215.068C526.772 212.284 525.288 210.949 523.079 210.949C521.431 210.949 520.408 211.688 519.897 212.795H519.755V211.091H518.136V222H519.812V215.438ZM543.187 213.534C542.662 211.986 541.483 210.949 539.324 210.949C537.022 210.949 535.318 212.256 535.318 214.102C535.318 215.608 536.213 216.616 538.216 217.085L540.034 217.511C541.135 217.767 541.653 218.293 541.653 219.045C541.653 219.983 540.659 220.75 539.096 220.75C537.725 220.75 536.866 220.161 536.568 218.989L534.977 219.386C535.368 221.24 536.895 222.227 539.125 222.227C541.66 222.227 543.386 220.842 543.386 218.96C543.386 217.44 542.434 216.482 540.488 216.006L538.869 215.608C537.576 215.288 536.994 214.855 536.994 214.017C536.994 213.08 537.988 212.398 539.324 212.398C540.787 212.398 541.39 213.207 541.681 213.96L543.187 213.534ZM545.909 226.091H547.585V220.324H547.727C548.097 220.92 548.807 222.227 550.909 222.227C553.636 222.227 555.54 220.04 555.54 216.574C555.54 213.136 553.636 210.949 550.881 210.949C548.75 210.949 548.097 212.256 547.727 212.824H547.528V211.091H545.909V226.091ZM547.557 216.545C547.557 214.102 548.636 212.455 550.682 212.455C552.812 212.455 553.864 214.244 553.864 216.545C553.864 218.875 552.784 220.722 550.682 220.722C548.665 220.722 547.557 219.017 547.557 216.545ZM562.528 222.227C565.483 222.227 567.472 219.983 567.472 216.602C567.472 213.193 565.483 210.949 562.528 210.949C559.574 210.949 557.585 213.193 557.585 216.602C557.585 219.983 559.574 222.227 562.528 222.227ZM562.528 220.722C560.284 220.722 559.261 218.79 559.261 216.602C559.261 214.415 560.284 212.455 562.528 212.455C564.773 212.455 565.795 214.415 565.795 216.602C565.795 218.79 564.773 220.722 562.528 220.722ZM570.03 222H571.706V215.097C571.706 213.619 572.871 212.54 574.462 212.54C574.909 212.54 575.371 212.625 575.485 212.653V210.949C575.293 210.935 574.853 210.92 574.604 210.92C573.297 210.92 572.161 211.659 571.763 212.739H571.65V211.091H570.03V222ZM582.9 211.091H580.57V208.477H578.894V211.091H577.246V212.511H578.894V219.33C578.894 221.233 580.428 222.142 581.848 222.142C582.473 222.142 582.871 222.028 583.098 221.943L582.757 220.438C582.615 220.466 582.388 220.523 582.019 220.523C581.28 220.523 580.57 220.295 580.57 218.875V212.511H582.9V211.091ZM592.953 213.534C592.427 211.986 591.248 210.949 589.089 210.949C586.788 210.949 585.083 212.256 585.083 214.102C585.083 215.608 585.978 216.616 587.981 217.085L589.799 217.511C590.9 217.767 591.419 218.293 591.419 219.045C591.419 219.983 590.424 220.75 588.862 220.75C587.491 220.75 586.632 220.161 586.333 218.989L584.743 219.386C585.133 221.24 586.66 222.227 588.89 222.227C591.426 222.227 593.152 220.842 593.152 218.96C593.152 217.44 592.2 216.482 590.254 216.006L588.635 215.608C587.342 215.288 586.76 214.855 586.76 214.017C586.76 213.08 587.754 212.398 589.089 212.398C590.552 212.398 591.156 213.207 591.447 213.96L592.953 213.534ZM604.51 222.256C606.413 222.256 607.408 221.233 607.749 220.523H607.834V222H609.51V214.812C609.51 211.347 606.868 210.949 605.476 210.949C603.828 210.949 601.953 211.517 601.101 213.506L602.692 214.074C603.061 213.278 603.935 212.426 605.533 212.426C607.074 212.426 607.834 213.243 607.834 214.642V214.699C607.834 215.509 607.01 215.438 605.021 215.693C602.997 215.956 600.788 216.403 600.788 218.903C600.788 221.034 602.436 222.256 604.51 222.256ZM604.766 220.75C603.43 220.75 602.464 220.153 602.464 218.989C602.464 217.71 603.629 217.312 604.936 217.142C605.646 217.057 607.55 216.858 607.834 216.517V218.051C607.834 219.415 606.754 220.75 604.766 220.75ZM614.245 215.438C614.245 213.534 615.424 212.455 617.029 212.455C618.585 212.455 619.529 213.47 619.529 215.182V222H621.206V215.068C621.206 212.284 619.721 210.949 617.512 210.949C615.865 210.949 614.842 211.688 614.331 212.795H614.189V211.091H612.569V222H614.245V215.438ZM628.388 222.227C630.49 222.227 631.2 220.92 631.57 220.324H631.768V222H633.388V207.455H631.712V212.824H631.57C631.2 212.256 630.547 210.949 628.416 210.949C625.661 210.949 623.757 213.136 623.757 216.574C623.757 220.04 625.661 222.227 628.388 222.227ZM628.615 220.722C626.513 220.722 625.433 218.875 625.433 216.545C625.433 214.244 626.484 212.455 628.615 212.455C630.661 212.455 631.74 214.102 631.74 216.545C631.74 219.017 630.632 220.722 628.615 220.722ZM646.719 226.318C649.332 226.318 651.435 225.125 651.435 222.312V211.091H649.815V212.824H649.645C649.276 212.256 648.594 210.949 646.463 210.949C643.707 210.949 641.804 213.136 641.804 216.489C641.804 219.898 643.793 221.83 646.435 221.83C648.565 221.83 649.247 220.58 649.616 219.983H649.759V222.199C649.759 224.017 648.48 224.841 646.719 224.841C644.737 224.841 644.041 223.797 643.594 223.193L642.259 224.131C642.94 225.274 644.283 226.318 646.719 226.318ZM646.662 220.324C644.56 220.324 643.48 218.733 643.48 216.46C643.48 214.244 644.531 212.455 646.662 212.455C648.707 212.455 649.787 214.102 649.787 216.46C649.787 218.875 648.679 220.324 646.662 220.324ZM657.713 222.256C659.616 222.256 660.611 221.233 660.952 220.523H661.037V222H662.713V214.812C662.713 211.347 660.071 210.949 658.679 210.949C657.031 210.949 655.156 211.517 654.304 213.506L655.895 214.074C656.264 213.278 657.138 212.426 658.736 212.426C660.277 212.426 661.037 213.243 661.037 214.642V214.699C661.037 215.509 660.213 215.438 658.224 215.693C656.2 215.956 653.991 216.403 653.991 218.903C653.991 221.034 655.639 222.256 657.713 222.256ZM657.969 220.75C656.634 220.75 655.668 220.153 655.668 218.989C655.668 217.71 656.832 217.312 658.139 217.142C658.849 217.057 660.753 216.858 661.037 216.517V218.051C661.037 219.415 659.957 220.75 657.969 220.75ZM665.772 222H667.449V215.182C667.449 213.584 668.613 212.455 669.92 212.455C671.191 212.455 672.079 213.286 672.079 214.528V222H673.784V214.898C673.784 213.491 674.664 212.455 676.199 212.455C677.392 212.455 678.414 213.087 678.414 214.699V222H680.091V214.699C680.091 212.135 678.713 210.949 676.767 210.949C675.204 210.949 674.061 211.666 673.5 212.795H673.386C672.846 211.631 671.895 210.949 670.46 210.949C669.039 210.949 667.988 211.631 667.534 212.795H667.392V211.091H665.772V222ZM687.729 222.227C689.945 222.227 691.564 221.119 692.076 219.472L690.456 219.017C690.03 220.153 689.043 220.722 687.729 220.722C685.762 220.722 684.405 219.45 684.327 217.114H692.246V216.403C692.246 212.341 689.831 210.949 687.559 210.949C684.604 210.949 682.644 213.278 682.644 216.631C682.644 219.983 684.576 222.227 687.729 222.227ZM684.327 215.665C684.441 213.967 685.641 212.455 687.559 212.455C689.377 212.455 690.542 213.818 690.542 215.665H684.327ZM702.523 213.534C701.998 211.986 700.819 210.949 698.659 210.949C696.358 210.949 694.654 212.256 694.654 214.102C694.654 215.608 695.549 216.616 697.551 217.085L699.37 217.511C700.471 217.767 700.989 218.293 700.989 219.045C700.989 219.983 699.995 220.75 698.432 220.75C697.061 220.75 696.202 220.161 695.904 218.989L694.313 219.386C694.703 221.24 696.23 222.227 698.461 222.227C700.996 222.227 702.722 220.842 702.722 218.96C702.722 217.44 701.77 216.482 699.824 216.006L698.205 215.608C696.912 215.288 696.33 214.855 696.33 214.017C696.33 213.08 697.324 212.398 698.659 212.398C700.123 212.398 700.726 213.207 701.017 213.96L702.523 213.534ZM86.7614 250H88.3807V248.324H88.5795C88.9489 248.92 89.6591 250.227 91.7614 250.227C94.4886 250.227 96.392 248.04 96.392 244.574C96.392 241.136 94.4886 238.949 91.733 238.949C89.6023 238.949 88.9489 240.256 88.5795 240.824H88.4375V235.455H86.7614V250ZM88.4091 244.545C88.4091 242.102 89.4886 240.455 91.5341 240.455C93.6648 240.455 94.7159 242.244 94.7159 244.545C94.7159 246.875 93.6364 248.722 91.5341 248.722C89.517 248.722 88.4091 247.017 88.4091 244.545ZM102.166 250.256C104.07 250.256 105.064 249.233 105.405 248.523H105.49V250H107.166V242.812C107.166 239.347 104.524 238.949 103.132 238.949C101.484 238.949 99.6094 239.517 98.7571 241.506L100.348 242.074C100.717 241.278 101.591 240.426 103.189 240.426C104.73 240.426 105.49 241.243 105.49 242.642V242.699C105.49 243.509 104.666 243.438 102.678 243.693C100.653 243.956 98.4446 244.403 98.4446 246.903C98.4446 249.034 100.092 250.256 102.166 250.256ZM102.422 248.75C101.087 248.75 100.121 248.153 100.121 246.989C100.121 245.71 101.286 245.312 102.592 245.142C103.303 245.057 105.206 244.858 105.49 244.517V246.051C105.49 247.415 104.411 248.75 102.422 248.75ZM117.953 241.534C117.427 239.986 116.248 238.949 114.089 238.949C111.788 238.949 110.083 240.256 110.083 242.102C110.083 243.608 110.978 244.616 112.981 245.085L114.799 245.511C115.9 245.767 116.419 246.293 116.419 247.045C116.419 247.983 115.424 248.75 113.862 248.75C112.491 248.75 111.632 248.161 111.333 246.989L109.743 247.386C110.133 249.24 111.66 250.227 113.89 250.227C116.426 250.227 118.152 248.842 118.152 246.96C118.152 245.44 117.2 244.482 115.254 244.006L113.635 243.608C112.342 243.288 111.76 242.855 111.76 242.017C111.76 241.08 112.754 240.398 114.089 240.398C115.552 240.398 116.156 241.207 116.447 241.96L117.953 241.534ZM125.249 250.227C127.464 250.227 129.084 249.119 129.595 247.472L127.976 247.017C127.55 248.153 126.562 248.722 125.249 248.722C123.281 248.722 121.925 247.45 121.847 245.114H129.766V244.403C129.766 240.341 127.351 238.949 125.078 238.949C122.124 238.949 120.163 241.278 120.163 244.631C120.163 247.983 122.095 250.227 125.249 250.227ZM121.847 243.665C121.96 241.967 123.161 240.455 125.078 240.455C126.896 240.455 128.061 241.818 128.061 243.665H121.847ZM136.435 250.227C138.537 250.227 139.247 248.92 139.616 248.324H139.815V250H141.435V235.455H139.759V240.824H139.616C139.247 240.256 138.594 238.949 136.463 238.949C133.707 238.949 131.804 241.136 131.804 244.574C131.804 248.04 133.707 250.227 136.435 250.227ZM136.662 248.722C134.56 248.722 133.48 246.875 133.48 244.545C133.48 242.244 134.531 240.455 136.662 240.455C138.707 240.455 139.787 242.102 139.787 244.545C139.787 247.017 138.679 248.722 136.662 248.722ZM154.482 250.227C156.584 250.227 157.294 248.92 157.663 248.324H157.862V250H159.482V235.455H157.805V240.824H157.663C157.294 240.256 156.641 238.949 154.51 238.949C151.754 238.949 149.851 241.136 149.851 244.574C149.851 248.04 151.754 250.227 154.482 250.227ZM154.709 248.722C152.607 248.722 151.527 246.875 151.527 244.545C151.527 242.244 152.578 240.455 154.709 240.455C156.754 240.455 157.834 242.102 157.834 244.545C157.834 247.017 156.726 248.722 154.709 248.722ZM162.784 250H164.46V239.091H162.784V250ZM163.636 237.273C164.29 237.273 164.83 236.761 164.83 236.136C164.83 235.511 164.29 235 163.636 235C162.983 235 162.443 235.511 162.443 236.136C162.443 236.761 162.983 237.273 163.636 237.273ZM171.934 254.318C174.547 254.318 176.65 253.125 176.65 250.312V239.091H175.03V240.824H174.86C174.49 240.256 173.809 238.949 171.678 238.949C168.922 238.949 167.019 241.136 167.019 244.489C167.019 247.898 169.007 249.83 171.65 249.83C173.78 249.83 174.462 248.58 174.831 247.983H174.973V250.199C174.973 252.017 173.695 252.841 171.934 252.841C169.952 252.841 169.256 251.797 168.809 251.193L167.473 252.131C168.155 253.274 169.498 254.318 171.934 254.318ZM171.877 248.324C169.775 248.324 168.695 246.733 168.695 244.46C168.695 242.244 169.746 240.455 171.877 240.455C173.922 240.455 175.002 242.102 175.002 244.46C175.002 246.875 173.894 248.324 171.877 248.324ZM179.718 250H181.394V239.091H179.718V250ZM180.57 237.273C181.223 237.273 181.763 236.761 181.763 236.136C181.763 235.511 181.223 235 180.57 235C179.917 235 179.377 235.511 179.377 236.136C179.377 236.761 179.917 237.273 180.57 237.273ZM189.208 239.091H186.879V236.477H185.202V239.091H183.555V240.511H185.202V247.33C185.202 249.233 186.737 250.142 188.157 250.142C188.782 250.142 189.18 250.028 189.407 249.943L189.066 248.438C188.924 248.466 188.697 248.523 188.327 248.523C187.589 248.523 186.879 248.295 186.879 246.875V240.511H189.208V239.091ZM194.94 250.256C196.843 250.256 197.837 249.233 198.178 248.523H198.263V250H199.94V242.812C199.94 239.347 197.298 238.949 195.906 238.949C194.258 238.949 192.383 239.517 191.531 241.506L193.121 242.074C193.491 241.278 194.364 240.426 195.962 240.426C197.504 240.426 198.263 241.243 198.263 242.642V242.699C198.263 243.509 197.44 243.438 195.451 243.693C193.427 243.956 191.218 244.403 191.218 246.903C191.218 249.034 192.866 250.256 194.94 250.256ZM195.195 248.75C193.86 248.75 192.894 248.153 192.894 246.989C192.894 245.71 194.059 245.312 195.366 245.142C196.076 245.057 197.979 244.858 198.263 244.517V246.051C198.263 247.415 197.184 248.75 195.195 248.75ZM204.675 235.455H202.999V250H204.675V235.455ZM216.58 250.256C218.484 250.256 219.478 249.233 219.819 248.523H219.904V250H221.58V242.812C221.58 239.347 218.938 238.949 217.546 238.949C215.898 238.949 214.023 239.517 213.171 241.506L214.762 242.074C215.131 241.278 216.005 240.426 217.603 240.426C219.144 240.426 219.904 241.243 219.904 242.642V242.699C219.904 243.509 219.08 243.438 217.092 243.693C215.067 243.956 212.859 244.403 212.859 246.903C212.859 249.034 214.506 250.256 216.58 250.256ZM216.836 248.75C215.501 248.75 214.535 248.153 214.535 246.989C214.535 245.71 215.7 245.312 217.006 245.142C217.717 245.057 219.62 244.858 219.904 244.517V246.051C219.904 247.415 218.825 248.75 216.836 248.75ZM232.367 241.534C231.841 239.986 230.662 238.949 228.503 238.949C226.202 238.949 224.498 240.256 224.498 242.102C224.498 243.608 225.392 244.616 227.395 245.085L229.213 245.511C230.314 245.767 230.833 246.293 230.833 247.045C230.833 247.983 229.838 248.75 228.276 248.75C226.905 248.75 226.046 248.161 225.748 246.989L224.157 247.386C224.547 249.24 226.074 250.227 228.304 250.227C230.84 250.227 232.566 248.842 232.566 246.96C232.566 245.44 231.614 244.482 229.668 244.006L228.049 243.608C226.756 243.288 226.174 242.855 226.174 242.017C226.174 241.08 227.168 240.398 228.503 240.398C229.966 240.398 230.57 241.207 230.861 241.96L232.367 241.534ZM242.816 241.534C242.29 239.986 241.112 238.949 238.952 238.949C236.651 238.949 234.947 240.256 234.947 242.102C234.947 243.608 235.842 244.616 237.844 245.085L239.663 245.511C240.763 245.767 241.282 246.293 241.282 247.045C241.282 247.983 240.288 248.75 238.725 248.75C237.354 248.75 236.495 248.161 236.197 246.989L234.606 247.386C234.996 249.24 236.523 250.227 238.754 250.227C241.289 250.227 243.015 248.842 243.015 246.96C243.015 245.44 242.063 244.482 240.117 244.006L238.498 243.608C237.205 243.288 236.623 242.855 236.623 242.017C236.623 241.08 237.617 240.398 238.952 240.398C240.415 240.398 241.019 241.207 241.31 241.96L242.816 241.534ZM250.112 250.227C252.328 250.227 253.947 249.119 254.458 247.472L252.839 247.017C252.413 248.153 251.426 248.722 250.112 248.722C248.145 248.722 246.788 247.45 246.71 245.114H254.629V244.403C254.629 240.341 252.214 238.949 249.941 238.949C246.987 238.949 245.027 241.278 245.027 244.631C245.027 247.983 246.958 250.227 250.112 250.227ZM246.71 243.665C246.824 241.967 248.024 240.455 249.941 240.455C251.76 240.455 252.924 241.818 252.924 243.665H246.71ZM261.923 239.091H259.593V236.477H257.917V239.091H256.27V240.511H257.917V247.33C257.917 249.233 259.451 250.142 260.872 250.142C261.497 250.142 261.895 250.028 262.122 249.943L261.781 248.438C261.639 248.466 261.412 248.523 261.042 248.523C260.304 248.523 259.593 248.295 259.593 246.875V240.511H261.923V239.091ZM271.976 241.534C271.451 239.986 270.272 238.949 268.113 238.949C265.811 238.949 264.107 240.256 264.107 242.102C264.107 243.608 265.002 244.616 267.005 245.085L268.823 245.511C269.924 245.767 270.442 246.293 270.442 247.045C270.442 247.983 269.448 248.75 267.885 248.75C266.515 248.75 265.655 248.161 265.357 246.989L263.766 247.386C264.157 249.24 265.684 250.227 267.914 250.227C270.449 250.227 272.175 248.842 272.175 246.96C272.175 245.44 271.223 244.482 269.277 244.006L267.658 243.608C266.365 243.288 265.783 242.855 265.783 242.017C265.783 241.08 266.777 240.398 268.113 240.398C269.576 240.398 270.179 241.207 270.471 241.96L271.976 241.534ZM282.795 250H284.442L286.829 241.619H286.999L289.386 250H291.033L294.357 239.091H292.596L290.238 247.415H290.124L287.823 239.091H286.033L283.704 247.443H283.59L281.232 239.091H279.471L282.795 250ZM298.249 243.438C298.249 241.534 299.464 240.455 301.119 240.455C302.695 240.455 303.647 241.449 303.647 243.182V250H305.323V243.068C305.323 240.263 303.832 238.949 301.602 238.949C299.883 238.949 298.903 239.666 298.391 240.795H298.249V235.455H296.573V250H298.249V243.438ZM312.963 250.227C315.179 250.227 316.799 249.119 317.31 247.472L315.691 247.017C315.265 248.153 314.277 248.722 312.963 248.722C310.996 248.722 309.64 247.45 309.561 245.114H317.48V244.403C317.48 240.341 315.066 238.949 312.793 238.949C309.838 238.949 307.878 241.278 307.878 244.631C307.878 247.983 309.81 250.227 312.963 250.227ZM309.561 243.665C309.675 241.967 310.875 240.455 312.793 240.455C314.611 240.455 315.776 241.818 315.776 243.665H309.561ZM320.03 250H321.706V243.097C321.706 241.619 322.871 240.54 324.462 240.54C324.909 240.54 325.371 240.625 325.485 240.653V238.949C325.293 238.935 324.853 238.92 324.604 238.92C323.297 238.92 322.161 239.659 321.763 240.739H321.65V239.091H320.03V250ZM331.713 250.227C333.929 250.227 335.549 249.119 336.06 247.472L334.441 247.017C334.015 248.153 333.027 248.722 331.713 248.722C329.746 248.722 328.39 247.45 328.311 245.114H336.23V244.403C336.23 240.341 333.816 238.949 331.543 238.949C328.588 238.949 326.628 241.278 326.628 244.631C326.628 247.983 328.56 250.227 331.713 250.227ZM328.311 243.665C328.425 241.967 329.625 240.455 331.543 240.455C333.361 240.455 334.526 241.818 334.526 243.665H328.311ZM349.263 239.091H346.82V237.983C346.82 236.903 347.275 236.335 348.382 236.335C348.865 236.335 349.15 236.449 349.32 236.506L349.803 235.057C349.547 234.943 349.036 234.773 348.212 234.773C346.65 234.773 345.144 235.71 345.144 237.585V239.091H343.382V240.511H345.144V250H346.82V240.511H349.263V239.091ZM358.487 245.54C358.487 247.585 356.925 248.523 355.675 248.523C354.283 248.523 353.288 247.5 353.288 245.909V239.091H351.612V246.023C351.612 248.807 353.089 250.142 355.135 250.142C356.783 250.142 357.862 249.261 358.374 248.153H358.487V250H360.163V239.091H358.487V245.54ZM364.909 243.438C364.909 241.534 366.088 240.455 367.694 240.455C369.249 240.455 370.194 241.47 370.194 243.182V250H371.87V243.068C371.87 240.284 370.385 238.949 368.176 238.949C366.529 238.949 365.506 239.688 364.995 240.795H364.853V239.091H363.233V250H364.909V243.438ZM379.052 250.227C381.154 250.227 381.864 248.92 382.234 248.324H382.433V250H384.052V235.455H382.376V240.824H382.234C381.864 240.256 381.211 238.949 379.08 238.949C376.325 238.949 374.421 241.136 374.421 244.574C374.421 248.04 376.325 250.227 379.052 250.227ZM379.279 248.722C377.177 248.722 376.097 246.875 376.097 244.545C376.097 242.244 377.148 240.455 379.279 240.455C381.325 240.455 382.404 242.102 382.404 244.545C382.404 247.017 381.296 248.722 379.279 248.722ZM390.565 250.256C392.468 250.256 393.462 249.233 393.803 248.523H393.888V250H395.565V242.812C395.565 239.347 392.923 238.949 391.531 238.949C389.883 238.949 388.008 239.517 387.156 241.506L388.746 242.074C389.116 241.278 389.989 240.426 391.587 240.426C393.129 240.426 393.888 241.243 393.888 242.642V242.699C393.888 243.509 393.065 243.438 391.076 243.693C389.052 243.956 386.843 244.403 386.843 246.903C386.843 249.034 388.491 250.256 390.565 250.256ZM390.82 248.75C389.485 248.75 388.519 248.153 388.519 246.989C388.519 245.71 389.684 245.312 390.991 245.142C391.701 245.057 393.604 244.858 393.888 244.517V246.051C393.888 247.415 392.809 248.75 390.82 248.75ZM398.624 250H400.3V243.182C400.3 241.584 401.465 240.455 402.772 240.455C404.043 240.455 404.931 241.286 404.931 242.528V250H406.635V242.898C406.635 241.491 407.516 240.455 409.05 240.455C410.243 240.455 411.266 241.087 411.266 242.699V250H412.942V242.699C412.942 240.135 411.564 238.949 409.618 238.949C408.056 238.949 406.912 239.666 406.351 240.795H406.238C405.698 239.631 404.746 238.949 403.311 238.949C401.891 238.949 400.84 239.631 400.385 240.795H400.243V239.091H398.624V250ZM420.581 250.227C422.797 250.227 424.416 249.119 424.927 247.472L423.308 247.017C422.882 248.153 421.895 248.722 420.581 248.722C418.613 248.722 417.257 247.45 417.179 245.114H425.098V244.403C425.098 240.341 422.683 238.949 420.41 238.949C417.456 238.949 415.495 241.278 415.495 244.631C415.495 247.983 417.427 250.227 420.581 250.227ZM417.179 243.665C417.292 241.967 418.493 240.455 420.41 240.455C422.228 240.455 423.393 241.818 423.393 243.665H417.179ZM429.324 243.438C429.324 241.534 430.502 240.455 432.108 240.455C433.663 240.455 434.608 241.47 434.608 243.182V250H436.284V243.068C436.284 240.284 434.799 238.949 432.591 238.949C430.943 238.949 429.92 239.688 429.409 240.795H429.267V239.091H427.647V250H429.324V243.438ZM444.091 239.091H441.761V236.477H440.085V239.091H438.438V240.511H440.085V247.33C440.085 249.233 441.619 250.142 443.04 250.142C443.665 250.142 444.062 250.028 444.29 249.943L443.949 248.438C443.807 248.466 443.58 248.523 443.21 248.523C442.472 248.523 441.761 248.295 441.761 246.875V240.511H444.091V239.091ZM449.822 250.256C451.726 250.256 452.72 249.233 453.061 248.523H453.146V250H454.822V242.812C454.822 239.347 452.18 238.949 450.788 238.949C449.141 238.949 447.266 239.517 446.413 241.506L448.004 242.074C448.374 241.278 449.247 240.426 450.845 240.426C452.386 240.426 453.146 241.243 453.146 242.642V242.699C453.146 243.509 452.322 243.438 450.334 243.693C448.31 243.956 446.101 244.403 446.101 246.903C446.101 249.034 447.749 250.256 449.822 250.256ZM450.078 248.75C448.743 248.75 447.777 248.153 447.777 246.989C447.777 245.71 448.942 245.312 450.249 245.142C450.959 245.057 452.862 244.858 453.146 244.517V246.051C453.146 247.415 452.067 248.75 450.078 248.75ZM459.558 235.455H457.882V250H459.558V235.455ZM477.173 239.091H475.355L472.344 247.784H472.23L469.219 239.091H467.401L471.435 250H473.139L477.173 239.091ZM482.264 250.256C484.167 250.256 485.162 249.233 485.502 248.523H485.588V250H487.264V242.812C487.264 239.347 484.622 238.949 483.23 238.949C481.582 238.949 479.707 239.517 478.855 241.506L480.446 242.074C480.815 241.278 481.689 240.426 483.287 240.426C484.828 240.426 485.588 241.243 485.588 242.642V242.699C485.588 243.509 484.764 243.438 482.775 243.693C480.751 243.956 478.542 244.403 478.542 246.903C478.542 249.034 480.19 250.256 482.264 250.256ZM482.52 248.75C481.184 248.75 480.218 248.153 480.218 246.989C480.218 245.71 481.383 245.312 482.69 245.142C483.4 245.057 485.304 244.858 485.588 244.517V246.051C485.588 247.415 484.508 248.75 482.52 248.75ZM491.999 235.455H490.323V250H491.999V235.455ZM501.944 245.54C501.944 247.585 500.382 248.523 499.132 248.523C497.74 248.523 496.745 247.5 496.745 245.909V239.091H495.069V246.023C495.069 248.807 496.547 250.142 498.592 250.142C500.24 250.142 501.319 249.261 501.831 248.153H501.944V250H503.62V239.091H501.944V245.54ZM511.264 250.227C513.48 250.227 515.099 249.119 515.611 247.472L513.991 247.017C513.565 248.153 512.578 248.722 511.264 248.722C509.297 248.722 507.94 247.45 507.862 245.114H515.781V244.403C515.781 240.341 513.366 238.949 511.094 238.949C508.139 238.949 506.179 241.278 506.179 244.631C506.179 247.983 508.111 250.227 511.264 250.227ZM507.862 243.665C507.976 241.967 509.176 240.455 511.094 240.455C512.912 240.455 514.077 241.818 514.077 243.665H507.862ZM523.956 250H525.632V239.091H523.956V250ZM524.808 237.273C525.462 237.273 526.001 236.761 526.001 236.136C526.001 235.511 525.462 235 524.808 235C524.155 235 523.615 235.511 523.615 236.136C523.615 236.761 524.155 237.273 524.808 237.273ZM536.429 241.534C535.904 239.986 534.725 238.949 532.566 238.949C530.265 238.949 528.56 240.256 528.56 242.102C528.56 243.608 529.455 244.616 531.458 245.085L533.276 245.511C534.377 245.767 534.895 246.293 534.895 247.045C534.895 247.983 533.901 248.75 532.338 248.75C530.968 248.75 530.108 248.161 529.81 246.989L528.219 247.386C528.61 249.24 530.137 250.227 532.367 250.227C534.902 250.227 536.628 248.842 536.628 246.96C536.628 245.44 535.676 244.482 533.73 244.006L532.111 243.608C530.819 243.288 530.236 242.855 530.236 242.017C530.236 241.08 531.23 240.398 532.566 240.398C534.029 240.398 534.632 241.207 534.924 241.96L536.429 241.534ZM548.896 250.227C550.998 250.227 551.708 248.92 552.077 248.324H552.276V250H553.896V235.455H552.219V240.824H552.077C551.708 240.256 551.055 238.949 548.924 238.949C546.168 238.949 544.265 241.136 544.265 244.574C544.265 248.04 546.168 250.227 548.896 250.227ZM549.123 248.722C547.021 248.722 545.941 246.875 545.941 244.545C545.941 242.244 546.992 240.455 549.123 240.455C551.168 240.455 552.248 242.102 552.248 244.545C552.248 247.017 551.14 248.722 549.123 248.722ZM561.772 250.227C563.988 250.227 565.607 249.119 566.119 247.472L564.499 247.017C564.073 248.153 563.086 248.722 561.772 248.722C559.805 248.722 558.448 247.45 558.37 245.114H566.289V244.403C566.289 240.341 563.874 238.949 561.602 238.949C558.647 238.949 556.687 241.278 556.687 244.631C556.687 247.983 558.619 250.227 561.772 250.227ZM558.37 243.665C558.484 241.967 559.684 240.455 561.602 240.455C563.42 240.455 564.585 241.818 564.585 243.665H558.37ZM568.839 250H570.515V243.097C570.515 241.619 571.68 240.54 573.271 240.54C573.718 240.54 574.18 240.625 574.293 240.653V238.949C574.102 238.935 573.661 238.92 573.413 238.92C572.106 238.92 570.969 239.659 570.572 240.739H570.458V239.091H568.839V250ZM576.28 250H577.956V239.091H576.28V250ZM577.132 237.273C577.786 237.273 578.326 236.761 578.326 236.136C578.326 235.511 577.786 235 577.132 235C576.479 235 575.939 235.511 575.939 236.136C575.939 236.761 576.479 237.273 577.132 237.273ZM589.947 239.091H588.129L585.117 247.784H585.004L581.992 239.091H580.174L584.208 250H585.913L589.947 239.091ZM596.342 250.227C598.558 250.227 600.178 249.119 600.689 247.472L599.07 247.017C598.643 248.153 597.656 248.722 596.342 248.722C594.375 248.722 593.018 247.45 592.94 245.114H600.859V244.403C600.859 240.341 598.445 238.949 596.172 238.949C593.217 238.949 591.257 241.278 591.257 244.631C591.257 247.983 593.189 250.227 596.342 250.227ZM592.94 243.665C593.054 241.967 594.254 240.455 596.172 240.455C597.99 240.455 599.155 241.818 599.155 243.665H592.94ZM607.528 250.227C609.631 250.227 610.341 248.92 610.71 248.324H610.909V250H612.528V235.455H610.852V240.824H610.71C610.341 240.256 609.688 238.949 607.557 238.949C604.801 238.949 602.898 241.136 602.898 244.574C602.898 248.04 604.801 250.227 607.528 250.227ZM607.756 248.722C605.653 248.722 604.574 246.875 604.574 244.545C604.574 242.244 605.625 240.455 607.756 240.455C609.801 240.455 610.881 242.102 610.881 244.545C610.881 247.017 609.773 248.722 607.756 248.722ZM626.314 239.091H623.871V237.983C623.871 236.903 624.325 236.335 625.433 236.335C625.916 236.335 626.2 236.449 626.371 236.506L626.854 235.057C626.598 234.943 626.087 234.773 625.263 234.773C623.7 234.773 622.195 235.71 622.195 237.585V239.091H620.433V240.511H622.195V250H623.871V240.511H626.314V239.091ZM628.663 250H630.339V243.097C630.339 241.619 631.504 240.54 633.095 240.54C633.542 240.54 634.004 240.625 634.118 240.653V238.949C633.926 238.935 633.485 238.92 633.237 238.92C631.93 238.92 630.794 239.659 630.396 240.739H630.282V239.091H628.663V250ZM640.204 250.227C643.159 250.227 645.147 247.983 645.147 244.602C645.147 241.193 643.159 238.949 640.204 238.949C637.25 238.949 635.261 241.193 635.261 244.602C635.261 247.983 637.25 250.227 640.204 250.227ZM640.204 248.722C637.96 248.722 636.937 246.79 636.937 244.602C636.937 242.415 637.96 240.455 640.204 240.455C642.449 240.455 643.471 242.415 643.471 244.602C643.471 246.79 642.449 248.722 640.204 248.722ZM647.706 250H649.382V243.182C649.382 241.584 650.547 240.455 651.854 240.455C653.125 240.455 654.013 241.286 654.013 242.528V250H655.717V242.898C655.717 241.491 656.598 240.455 658.132 240.455C659.325 240.455 660.348 241.087 660.348 242.699V250H662.024V242.699C662.024 240.135 660.646 238.949 658.7 238.949C657.138 238.949 655.994 239.666 655.433 240.795H655.32C654.78 239.631 653.828 238.949 652.393 238.949C650.973 238.949 649.922 239.631 649.467 240.795H649.325V239.091H647.706V250ZM670.714 250H672.39V243.097C672.39 241.619 673.555 240.54 675.146 240.54C675.593 240.54 676.055 240.625 676.168 240.653V238.949C675.977 238.935 675.536 238.92 675.288 238.92C673.981 238.92 672.844 239.659 672.447 240.739H672.333V239.091H670.714V250ZM682.397 250.227C684.613 250.227 686.232 249.119 686.744 247.472L685.124 247.017C684.698 248.153 683.711 248.722 682.397 248.722C680.43 248.722 679.073 247.45 678.995 245.114H686.914V244.403C686.914 240.341 684.499 238.949 682.227 238.949C679.272 238.949 677.312 241.278 677.312 244.631C677.312 247.983 679.244 250.227 682.397 250.227ZM678.995 243.665C679.109 241.967 680.309 240.455 682.227 240.455C684.045 240.455 685.21 241.818 685.21 243.665H678.995ZM692.674 250.256C694.577 250.256 695.572 249.233 695.913 248.523H695.998V250H697.674V242.812C697.674 239.347 695.032 238.949 693.64 238.949C691.992 238.949 690.117 239.517 689.265 241.506L690.856 242.074C691.225 241.278 692.099 240.426 693.697 240.426C695.238 240.426 695.998 241.243 695.998 242.642V242.699C695.998 243.509 695.174 243.438 693.185 243.693C691.161 243.956 688.952 244.403 688.952 246.903C688.952 249.034 690.6 250.256 692.674 250.256ZM692.93 248.75C691.594 248.75 690.629 248.153 690.629 246.989C690.629 245.71 691.793 245.312 693.1 245.142C693.81 245.057 695.714 244.858 695.998 244.517V246.051C695.998 247.415 694.918 248.75 692.93 248.75ZM702.409 235.455H700.733V250H702.409V235.455ZM88.2102 263.455H86.5341V278H88.2102V263.455ZM91.2802 278H92.9563V267.091H91.2802V278ZM92.1325 265.273C92.7859 265.273 93.3256 264.761 93.3256 264.136C93.3256 263.511 92.7859 263 92.1325 263C91.479 263 90.9393 263.511 90.9393 264.136C90.9393 264.761 91.479 265.273 92.1325 265.273ZM100.884 267.091H98.4411V265.983C98.4411 264.903 98.8956 264.335 100.004 264.335C100.487 264.335 100.771 264.449 100.941 264.506L101.424 263.057C101.168 262.943 100.657 262.773 99.8331 262.773C98.2706 262.773 96.7649 263.71 96.7649 265.585V267.091H95.0036V268.511H96.7649V278H98.4411V268.511H100.884V267.091ZM107.358 278.227C109.574 278.227 111.193 277.119 111.705 275.472L110.085 275.017C109.659 276.153 108.672 276.722 107.358 276.722C105.391 276.722 104.034 275.45 103.956 273.114H111.875V272.403C111.875 268.341 109.46 266.949 107.188 266.949C104.233 266.949 102.273 269.278 102.273 272.631C102.273 275.983 104.205 278.227 107.358 278.227ZM103.956 271.665C104.07 269.967 105.27 268.455 107.188 268.455C109.006 268.455 110.17 269.818 110.17 271.665H103.956ZM120.05 282.091H121.726V276.324H121.868C122.237 276.92 122.947 278.227 125.05 278.227C127.777 278.227 129.68 276.04 129.68 272.574C129.68 269.136 127.777 266.949 125.021 266.949C122.891 266.949 122.237 268.256 121.868 268.824H121.669V267.091H120.05V282.091ZM121.697 272.545C121.697 270.102 122.777 268.455 124.822 268.455C126.953 268.455 128.004 270.244 128.004 272.545C128.004 274.875 126.925 276.722 124.822 276.722C122.805 276.722 121.697 275.017 121.697 272.545ZM136.811 278.227C139.027 278.227 140.646 277.119 141.158 275.472L139.538 275.017C139.112 276.153 138.125 276.722 136.811 276.722C134.844 276.722 133.487 275.45 133.409 273.114H141.328V272.403C141.328 268.341 138.913 266.949 136.641 266.949C133.686 266.949 131.726 269.278 131.726 272.631C131.726 275.983 133.658 278.227 136.811 278.227ZM133.409 271.665C133.523 269.967 134.723 268.455 136.641 268.455C138.459 268.455 139.624 269.818 139.624 271.665H133.409ZM143.878 278H145.554V271.097C145.554 269.619 146.719 268.54 148.31 268.54C148.757 268.54 149.219 268.625 149.332 268.653V266.949C149.141 266.935 148.7 266.92 148.452 266.92C147.145 266.92 146.009 267.659 145.611 268.739H145.497V267.091H143.878V278ZM156.861 267.091H154.418V265.983C154.418 264.903 154.872 264.335 155.98 264.335C156.463 264.335 156.747 264.449 156.918 264.506L157.401 263.057C157.145 262.943 156.634 262.773 155.81 262.773C154.247 262.773 152.741 263.71 152.741 265.585V267.091H150.98V268.511H152.741V278H154.418V268.511H156.861V267.091ZM163.192 278.227C166.147 278.227 168.136 275.983 168.136 272.602C168.136 269.193 166.147 266.949 163.192 266.949C160.238 266.949 158.249 269.193 158.249 272.602C158.249 275.983 160.238 278.227 163.192 278.227ZM163.192 276.722C160.948 276.722 159.925 274.79 159.925 272.602C159.925 270.415 160.948 268.455 163.192 268.455C165.437 268.455 166.46 270.415 166.46 272.602C166.46 274.79 165.437 276.722 163.192 276.722ZM170.694 278H172.37V271.097C172.37 269.619 173.535 268.54 175.126 268.54C175.574 268.54 176.035 268.625 176.149 268.653V266.949C175.957 266.935 175.517 266.92 175.268 266.92C173.961 266.92 172.825 267.659 172.427 268.739H172.314V267.091H170.694V278ZM178.136 278H179.812V271.182C179.812 269.584 180.977 268.455 182.283 268.455C183.555 268.455 184.442 269.286 184.442 270.528V278H186.147V270.898C186.147 269.491 187.028 268.455 188.562 268.455C189.755 268.455 190.778 269.087 190.778 270.699V278H192.454V270.699C192.454 268.135 191.076 266.949 189.13 266.949C187.567 266.949 186.424 267.666 185.863 268.795H185.749C185.21 267.631 184.258 266.949 182.823 266.949C181.403 266.949 180.352 267.631 179.897 268.795H179.755V267.091H178.136V278ZM198.729 278.256C200.632 278.256 201.626 277.233 201.967 276.523H202.053V278H203.729V270.812C203.729 267.347 201.087 266.949 199.695 266.949C198.047 266.949 196.172 267.517 195.32 269.506L196.911 270.074C197.28 269.278 198.153 268.426 199.751 268.426C201.293 268.426 202.053 269.243 202.053 270.642V270.699C202.053 271.509 201.229 271.438 199.24 271.693C197.216 271.956 195.007 272.403 195.007 274.903C195.007 277.034 196.655 278.256 198.729 278.256ZM198.984 276.75C197.649 276.75 196.683 276.153 196.683 274.989C196.683 273.71 197.848 273.312 199.155 273.142C199.865 273.057 201.768 272.858 202.053 272.517V274.051C202.053 275.415 200.973 276.75 198.984 276.75ZM208.464 271.438C208.464 269.534 209.643 268.455 211.248 268.455C212.804 268.455 213.748 269.47 213.748 271.182V278H215.424V271.068C215.424 268.284 213.94 266.949 211.731 266.949C210.083 266.949 209.061 267.688 208.549 268.795H208.407V267.091H206.788V278H208.464V271.438ZM222.919 278.227C225.334 278.227 226.925 276.75 227.209 274.818H225.533C225.22 276.011 224.226 276.722 222.919 276.722C220.93 276.722 219.652 275.074 219.652 272.545C219.652 270.074 220.959 268.455 222.919 268.455C224.396 268.455 225.277 269.364 225.533 270.358H227.209C226.925 268.312 225.192 266.949 222.891 266.949C219.936 266.949 217.976 269.278 217.976 272.602C217.976 275.869 219.851 278.227 222.919 278.227ZM234.233 278.227C236.449 278.227 238.068 277.119 238.58 275.472L236.96 275.017C236.534 276.153 235.547 276.722 234.233 276.722C232.266 276.722 230.909 275.45 230.831 273.114H238.75V272.403C238.75 268.341 236.335 266.949 234.062 266.949C231.108 266.949 229.148 269.278 229.148 272.631C229.148 275.983 231.08 278.227 234.233 278.227ZM230.831 271.665C230.945 269.967 232.145 268.455 234.062 268.455C235.881 268.455 237.045 269.818 237.045 271.665H230.831ZM242.521 278.114C243.224 278.114 243.8 277.538 243.8 276.835C243.8 276.132 243.224 275.557 242.521 275.557C241.818 275.557 241.243 276.132 241.243 276.835C241.243 277.538 241.818 278.114 242.521 278.114Z" fill="#9E9E9E"/>
<line x1="1419" y1="355" x2="1419" y2="345" stroke="#383838" stroke-width="2" stroke-linecap="round"/>
<g opacity="0.5">
<path d="M819 303.916C818.586 303.916 818.25 304.252 818.25 304.666C818.25 305.08 818.586 305.416 819 305.416V303.916ZM819 305.416H1434V303.916H819V305.416Z" fill="#383838"/>
<path d="M819 263.916C818.586 263.916 818.25 264.252 818.25 264.666C818.25 265.08 818.586 265.416 819 265.416V263.916ZM819 265.416H1434V263.916H819V265.416Z" fill="#383838"/>
<path d="M819 223.916C818.586 223.916 818.25 224.252 818.25 224.666C818.25 225.08 818.586 225.416 819 225.416V223.916ZM819 225.416H1434V223.916H819V225.416Z" fill="#383838"/>
<path d="M819 183.916C818.586 183.916 818.25 184.252 818.25 184.666C818.25 185.08 818.586 185.416 819 185.416V183.916ZM819 185.416H1434V183.916H819V185.416Z" fill="#383838"/>
<path d="M819 143.916C818.586 143.916 818.25 144.252 818.25 144.666C818.25 145.08 818.586 145.416 819 145.416V143.916ZM819 145.416H1434V143.916H819V145.416Z" fill="#383838"/>
<path d="M819 102.916C818.586 102.916 818.25 103.252 818.25 103.666C818.25 104.08 818.586 104.416 819 104.416V102.916ZM819 104.416H1434V102.916H819V104.416Z" fill="#383838"/>
<path d="M819 62.9158C818.586 62.9158 818.25 63.2516 818.25 63.6658C818.25 64.08 818.586 64.4158 819 64.4158V62.9158ZM819 64.4158H1434V62.9158H819V64.4158Z" fill="#383838"/>
<path d="M978.25 343.666C978.25 344.08 978.586 344.416 979 344.416C979.414 344.416 979.75 344.08 979.75 343.666H978.25ZM979.75 343.666L979.75 63.6658L978.25 63.6658L978.25 343.666H979.75Z" fill="#383838"/>
<path d="M938.25 343.666C938.25 344.08 938.586 344.416 939 344.416C939.414 344.416 939.75 344.08 939.75 343.666L938.25 343.666ZM939.75 343.666L939.75 63.6658L938.25 63.6658L938.25 343.666L939.75 343.666Z" fill="#383838"/>
<path d="M898.25 343.666C898.25 344.08 898.586 344.416 899 344.416C899.414 344.416 899.75 344.08 899.75 343.666H898.25ZM899.75 343.666L899.75 63.6658L898.25 63.6658L898.25 343.666H899.75Z" fill="#383838"/>
<path d="M858.25 343.666C858.25 344.08 858.586 344.416 859 344.416C859.414 344.416 859.75 344.08 859.75 343.666L858.25 343.666ZM859.75 343.666L859.75 63.6658L858.25 63.6658L858.25 343.666L859.75 343.666Z" fill="#383838"/>
<path d="M818.25 343.666C818.25 344.08 818.586 344.416 819 344.416C819.414 344.416 819.75 344.08 819.75 343.666L818.25 343.666ZM819.75 343.666L819.75 85.6658L818.25 85.6658L818.25 343.666L819.75 343.666Z" fill="#383838"/>
<path d="M1018.25 343.666C1018.25 344.08 1018.59 344.416 1019 344.416C1019.41 344.416 1019.75 344.08 1019.75 343.666H1018.25ZM1019.75 343.666V63.6658H1018.25V343.666H1019.75Z" fill="#383838"/>
<path d="M1058.25 343.666C1058.25 344.08 1058.59 344.416 1059 344.416C1059.41 344.416 1059.75 344.08 1059.75 343.666L1058.25 343.666ZM1059.75 343.666L1059.75 63.6658L1058.25 63.6658L1058.25 343.666L1059.75 343.666Z" fill="#383838"/>
<path d="M1098.25 343.666C1098.25 344.08 1098.59 344.416 1099 344.416C1099.41 344.416 1099.75 344.08 1099.75 343.666L1098.25 343.666ZM1099.75 343.666L1099.75 63.6658L1098.25 63.6658L1098.25 343.666L1099.75 343.666Z" fill="#383838"/>
<path d="M1138.25 343.666C1138.25 344.08 1138.59 344.416 1139 344.416C1139.41 344.416 1139.75 344.08 1139.75 343.666L1138.25 343.666ZM1139.75 343.666L1139.75 63.6658L1138.25 63.6658L1138.25 343.666L1139.75 343.666Z" fill="#383838"/>
<path d="M1178.25 343.666C1178.25 344.08 1178.59 344.416 1179 344.416C1179.41 344.416 1179.75 344.08 1179.75 343.666L1178.25 343.666ZM1179.75 343.666L1179.75 63.6658L1178.25 63.6658L1178.25 343.666L1179.75 343.666Z" fill="#383838"/>
<path d="M1218.25 343.666C1218.25 344.08 1218.59 344.416 1219 344.416C1219.41 344.416 1219.75 344.08 1219.75 343.666L1218.25 343.666ZM1219.75 343.666L1219.75 63.6658L1218.25 63.6658L1218.25 343.666L1219.75 343.666Z" fill="#383838"/>
<path d="M1258.25 343.666C1258.25 344.08 1258.59 344.416 1259 344.416C1259.41 344.416 1259.75 344.08 1259.75 343.666L1258.25 343.666ZM1259.75 343.666L1259.75 63.6658L1258.25 63.6658L1258.25 343.666L1259.75 343.666Z" fill="#383838"/>
<path d="M1298.25 343.666C1298.25 344.08 1298.59 344.416 1299 344.416C1299.41 344.416 1299.75 344.08 1299.75 343.666L1298.25 343.666ZM1299.75 343.666L1299.75 63.6658L1298.25 63.6658L1298.25 343.666L1299.75 343.666Z" fill="#383838"/>
<path d="M1338.25 343.666C1338.25 344.08 1338.59 344.416 1339 344.416C1339.41 344.416 1339.75 344.08 1339.75 343.666L1338.25 343.666ZM1339.75 343.666L1339.75 63.6658L1338.25 63.6658L1338.25 343.666L1339.75 343.666Z" fill="#383838"/>
<path d="M1378.25 343.666C1378.25 344.08 1378.59 344.416 1379 344.416C1379.41 344.416 1379.75 344.08 1379.75 343.666L1378.25 343.666ZM1379.75 343.666L1379.75 63.6658L1378.25 63.6658L1378.25 343.666L1379.75 343.666Z" fill="#383838"/>
<path d="M1418.25 343.666C1418.25 344.08 1418.59 344.416 1419 344.416C1419.41 344.416 1419.75 344.08 1419.75 343.666L1418.25 343.666ZM1419.75 343.666L1419.75 63.6658L1418.25 63.6658L1418.25 343.666L1419.75 343.666Z" fill="#383838"/>
</g>
<path d="M819 63.6658V343.666H1434" stroke="#383838" stroke-width="2" stroke-linecap="round"/>
<line x1="809" y1="63.6655" x2="819" y2="63.6655" stroke="#383838" stroke-width="2" stroke-linecap="round"/>
<line x1="809" y1="103.666" x2="819" y2="103.666" stroke="#383838" stroke-width="2" stroke-linecap="round"/>
<line x1="809" y1="143.666" x2="819" y2="143.666" stroke="#383838" stroke-width="2" stroke-linecap="round"/>
<line x1="809" y1="183.666" x2="819" y2="183.666" stroke="#383838" stroke-width="2" stroke-linecap="round"/>
<line x1="809" y1="223.666" x2="819" y2="223.666" stroke="#383838" stroke-width="2" stroke-linecap="round"/>
<line x1="809" y1="263.666" x2="819" y2="263.666" stroke="#383838" stroke-width="2" stroke-linecap="round"/>
<line x1="809" y1="303.666" x2="819" y2="303.666" stroke="#383838" stroke-width="2" stroke-linecap="round"/>
<line x1="809" y1="343.666" x2="819" y2="343.666" stroke="#383838" stroke-width="2" stroke-linecap="round"/>
<line x1="819" y1="353.666" x2="819" y2="343.666" stroke="#383838" stroke-width="2" stroke-linecap="round"/>
<line x1="859" y1="353.666" x2="859" y2="343.666" stroke="#383838" stroke-width="2" stroke-linecap="round"/>
<line x1="899" y1="353.666" x2="899" y2="343.666" stroke="#383838" stroke-width="2" stroke-linecap="round"/>
<line x1="939" y1="353.666" x2="939" y2="343.666" stroke="#383838" stroke-width="2" stroke-linecap="round"/>
<line x1="979" y1="353.666" x2="979" y2="343.666" stroke="#383838" stroke-width="2" stroke-linecap="round"/>
<line x1="1019" y1="353.666" x2="1019" y2="343.666" stroke="#383838" stroke-width="2" stroke-linecap="round"/>
<line x1="1059" y1="353.666" x2="1059" y2="343.666" stroke="#383838" stroke-width="2" stroke-linecap="round"/>
<line x1="1099" y1="353.666" x2="1099" y2="343.666" stroke="#383838" stroke-width="2" stroke-linecap="round"/>
<line x1="1139" y1="353.666" x2="1139" y2="343.666" stroke="#383838" stroke-width="2" stroke-linecap="round"/>
<line x1="1179" y1="353.666" x2="1179" y2="343.666" stroke="#383838" stroke-width="2" stroke-linecap="round"/>
<line x1="1219" y1="353.666" x2="1219" y2="343.666" stroke="#383838" stroke-width="2" stroke-linecap="round"/>
<line x1="1259" y1="353.666" x2="1259" y2="343.666" stroke="#383838" stroke-width="2" stroke-linecap="round"/>
<line x1="1299" y1="353.666" x2="1299" y2="343.666" stroke="#383838" stroke-width="2" stroke-linecap="round"/>
<line x1="1339" y1="353.666" x2="1339" y2="343.666" stroke="#383838" stroke-width="2" stroke-linecap="round"/>
<line x1="1379" y1="353.666" x2="1379" y2="343.666" stroke="#383838" stroke-width="2" stroke-linecap="round"/>
<path d="M819 343.666C835.5 298 875.804 269.031 906 263.5C961.5 253.334 987.5 283.5 1019.5 256.666C1043.36 236.659 1060.42 182.753 1127.08 182.753C1200.5 182.753 1228.06 178.5 1253 137.5C1273.5 103.807 1285 63.6656 1419.5 63.6656" stroke="white" stroke-width="2" stroke-linecap="round"/>
<path d="M906 263.834C875.804 269.365 835.5 298.334 819 344H1419.5V64C1285 64 1273.5 104.141 1253 137.834C1228.06 178.834 1200.5 183.087 1127.08 183.087C1060.42 183.087 1043.36 236.994 1019.5 257C987.5 283.834 961.5 253.669 906 263.834Z" fill="url(#paint0_linear_578_464)"/>
<path d="M1104.02 137.115L1109.4 129.01C1109.46 128.913 1109.5 128.801 1109.5 128.685C1109.51 128.57 1109.48 128.455 1109.43 128.353C1109.37 128.251 1109.29 128.166 1109.19 128.106C1109.09 128.047 1108.98 128.015 1108.87 128.015H1101.79C1101.64 128.014 1101.49 127.977 1101.36 127.908C1101.23 127.838 1101.11 127.738 1101.02 127.615C1100.93 127.492 1100.88 127.349 1100.85 127.2C1100.83 127.05 1100.84 126.896 1100.89 126.752L1101.83 123.908C1103.01 120.37 1102.73 116.509 1101.07 113.173C1101.04 113.11 1100.99 113.059 1100.92 113.029C1100.86 112.999 1100.78 112.992 1100.72 113.009C1100.65 113.025 1100.58 113.064 1100.54 113.119C1100.5 113.175 1100.47 113.244 1100.47 113.315C1100.47 116.647 1099.7 119.934 1098.21 122.914L1095.34 128.697C1094.99 129.394 1094.91 130.195 1095.11 130.948C1095.31 131.702 1095.77 132.356 1096.42 132.788L1103.13 137.286C1103.27 137.381 1103.45 137.417 1103.61 137.384C1103.78 137.352 1103.93 137.255 1104.02 137.115Z" fill="#FFB41F"/>
<path d="M1141.89 128.7L1139.02 122.919C1137.53 119.939 1136.76 116.654 1136.76 113.322C1136.76 113.25 1136.74 113.18 1136.69 113.123C1136.65 113.066 1136.59 113.026 1136.52 113.009C1136.45 112.992 1136.37 112.999 1136.31 113.03C1136.24 113.06 1136.19 113.112 1136.16 113.177C1134.5 116.512 1134.22 120.372 1135.4 123.909L1136.34 126.753C1136.39 126.897 1136.4 127.05 1136.38 127.2C1136.35 127.35 1136.3 127.492 1136.21 127.615C1136.12 127.738 1136 127.838 1135.87 127.908C1135.73 127.977 1135.59 128.014 1135.44 128.015H1128.36C1128.25 128.015 1128.14 128.047 1128.04 128.106C1127.94 128.166 1127.86 128.251 1127.8 128.353C1127.75 128.455 1127.72 128.57 1127.73 128.685C1127.73 128.801 1127.77 128.913 1127.83 129.01L1133.21 137.112C1133.3 137.253 1133.45 137.35 1133.61 137.383C1133.78 137.417 1133.95 137.383 1134.09 137.29L1140.81 132.793C1141.45 132.362 1141.92 131.708 1142.12 130.954C1142.32 130.2 1142.24 129.398 1141.89 128.7Z" fill="#FFB41F"/>
<path d="M1136.28 147.336H1136.27L1123.91 128.728C1123.76 128.508 1123.56 128.328 1123.33 128.203C1123.1 128.078 1122.84 128.013 1122.58 128.013H1114.65C1114.38 128.013 1114.12 128.078 1113.89 128.203C1113.66 128.328 1113.46 128.508 1113.32 128.728L1100.96 147.336H1100.95H1100.96L1113.32 165.957C1113.47 166.177 1113.66 166.357 1113.9 166.481C1114.13 166.606 1114.39 166.671 1114.65 166.671H1122.58C1122.84 166.671 1123.1 166.605 1123.33 166.481C1123.57 166.356 1123.76 166.176 1123.91 165.957L1136.27 147.347H1136.28V147.336ZM1110.93 135.751L1115.39 138.727C1115.05 139.144 1114.58 139.435 1114.05 139.553C1113.53 139.672 1112.98 139.611 1112.49 139.381C1111.23 138.811 1110.64 137.521 1110.93 135.751ZM1122.04 164.12C1120.19 165.571 1117.7 165.704 1115.64 164.463C1113.53 163.185 1112.63 161.085 1113.09 158.368C1117.53 159.525 1117.18 160.157 1124.05 158.443C1124.66 160.581 1123.93 162.645 1122.04 164.12ZM1124.82 139.348C1123.87 139.839 1122.68 139.603 1121.79 138.759L1126.32 135.724C1126.5 137.365 1126.22 138.624 1124.82 139.348Z" fill="#FFB41F"/>
<path d="M1115.56 138.787C1115.23 139.193 1114.76 139.475 1114.25 139.591C1113.73 139.706 1113.19 139.647 1112.71 139.423C1111.46 138.869 1110.89 137.614 1111.17 135.895L1115.56 138.787Z" fill="#1A1A1A"/>
<path d="M1124.78 139.403C1123.86 139.878 1122.7 139.649 1121.84 138.832L1126.25 135.895C1126.43 137.483 1126.15 138.701 1124.78 139.403Z" fill="#1A1A1A"/>
<path d="M1005.65 290.774C1005.68 290.742 1005.72 290.712 1005.75 290.677L1009.16 287.276C1009.73 286.698 1010.06 285.913 1010.06 285.095C1010.06 284.278 1009.73 283.493 1009.16 282.915L1009.12 282.881C1008.54 282.303 1007.76 281.978 1006.94 281.978C1006.12 281.978 1005.34 282.303 1004.76 282.881L1002.13 285.504L999.72 281.891C999.537 281.617 999.29 281.392 999 281.237C998.709 281.081 998.385 281 998.056 281H988.157C987.828 281 987.504 281.081 987.214 281.237C986.923 281.392 986.676 281.617 986.494 281.891L983.93 285.737L981.562 282.936C981.033 282.311 980.279 281.922 979.464 281.854C978.649 281.785 977.84 282.043 977.215 282.571L977.178 282.602C976.554 283.13 976.165 283.885 976.096 284.7C976.028 285.515 976.286 286.324 976.813 286.949L979.918 290.622C980.055 290.785 980.209 290.933 980.377 291.064L971.024 305.095H971C970.997 307.868 971.611 310.607 972.796 313.114C974.222 316.144 976.422 318.743 979.175 320.649L989.787 327.943C990.795 328.635 991.99 329.004 993.212 329C994.434 328.996 995.626 328.62 996.63 327.922L1007.09 320.649C1009.79 318.747 1011.96 316.172 1013.37 313.177L1013.4 313.118C1014.58 310.611 1015.2 307.872 1015.19 305.099L1005.65 290.774ZM996.39 291.363C997.439 291.139 998.488 290.911 999.547 290.736C999.941 290.671 1000.17 291.005 1000.08 291.407C999.883 292.346 999.429 292.815 998.607 292.812C998.496 292.773 998.264 292.707 998.044 292.612C997.507 292.379 996.971 292.138 996.434 291.882C996.317 291.822 996.228 291.719 996.184 291.595C996.162 291.544 996.297 291.38 996.384 291.363H996.39ZM986.455 290.728C987.403 290.924 988.439 291.131 989.472 291.36C989.525 291.379 989.573 291.41 989.612 291.451C989.65 291.492 989.678 291.542 989.693 291.596C989.685 291.653 989.663 291.707 989.63 291.754C989.596 291.8 989.552 291.838 989.502 291.865C988.831 292.177 988.149 292.495 987.454 292.762C987.194 292.849 986.912 292.841 986.657 292.739C986.402 292.637 986.192 292.448 986.064 292.206C985.923 291.928 985.822 291.631 985.764 291.325C985.691 290.97 985.962 290.72 986.449 290.73L986.455 290.728ZM994.773 316.66V309.549C994.774 309.437 994.798 309.326 994.844 309.224C994.89 309.121 994.958 309.03 995.041 308.955L997.23 306.981C997.39 306.834 997.502 306.643 997.551 306.431C997.601 306.22 997.586 305.998 997.508 305.796C997.43 305.593 997.292 305.419 997.114 305.295C996.935 305.171 996.724 305.105 996.506 305.103H989.716C989.499 305.104 989.287 305.171 989.108 305.294C988.929 305.418 988.792 305.592 988.714 305.795C988.635 305.998 988.62 306.22 988.67 306.431C988.719 306.643 988.832 306.834 988.992 306.981L991.172 308.954C991.255 309.028 991.322 309.12 991.369 309.222C991.415 309.324 991.439 309.434 991.44 309.547V316.657C987.476 315.773 985.507 311.724 985.507 307.232C985.507 306.457 985.541 305.747 985.607 305.092H985.623C986.133 300.003 988.621 298.43 993.124 298.43C997.627 298.43 1000.1 299.991 1000.62 305.035H1000.61C1000.67 305.688 1000.72 306.457 1000.72 307.232C1000.7 311.727 998.731 315.776 994.766 316.66H994.773Z" fill="#FFB41F"/>
<path d="M1000.7 307.232C1000.7 311.724 998.731 315.773 994.767 316.658V309.547C994.767 309.434 994.792 309.324 994.838 309.221C994.884 309.119 994.951 309.027 995.035 308.952L997.223 306.979C997.383 306.832 997.495 306.64 997.545 306.429C997.595 306.217 997.579 305.996 997.501 305.793C997.423 305.591 997.286 305.416 997.107 305.292C996.929 305.169 996.717 305.102 996.5 305.1H989.71C989.492 305.102 989.281 305.168 989.102 305.292C988.923 305.415 988.785 305.59 988.707 305.793C988.629 305.995 988.614 306.217 988.663 306.429C988.713 306.64 988.825 306.832 988.985 306.979L991.165 308.951C991.249 309.026 991.316 309.117 991.362 309.219C991.408 309.321 991.433 309.432 991.434 309.544V316.655C987.469 315.771 985.501 311.722 985.501 307.23C985.501 306.454 985.535 305.744 985.6 305.09H985.616C986.126 300.001 988.615 298.427 993.118 298.427C997.62 298.427 1000.09 299.989 1000.61 305.032H1000.6C1000.66 305.691 1000.7 306.46 1000.7 307.232Z" fill="#1A1A1A"/>
<path d="M989.689 291.596C989.68 291.653 989.659 291.707 989.625 291.753C989.592 291.8 989.548 291.838 989.497 291.865C988.826 292.177 988.145 292.495 987.45 292.762C987.19 292.848 986.909 292.839 986.656 292.737C986.402 292.635 986.193 292.447 986.065 292.205C985.924 291.927 985.823 291.631 985.765 291.325C985.692 290.966 985.963 290.716 986.45 290.724C987.399 290.92 988.434 291.127 989.468 291.356C989.521 291.375 989.57 291.407 989.608 291.449C989.647 291.49 989.675 291.541 989.689 291.596Z" fill="#1A1A1A"/>
<path d="M1000.08 291.413C999.877 292.352 999.422 292.82 998.601 292.817C998.49 292.778 998.258 292.713 998.038 292.617C997.501 292.384 996.965 292.144 996.428 291.888C996.311 291.827 996.222 291.724 996.178 291.6C996.161 291.544 996.296 291.38 996.384 291.363C997.433 291.139 998.482 290.911 999.54 290.736C999.936 290.671 1000.16 291.01 1000.08 291.413Z" fill="#1A1A1A"/>
<circle cx="1118" cy="183" r="8" fill="#FFB41F" fill-opacity="0.5"/>
<circle cx="1118" cy="183" r="4" fill="#FFB41F"/>
<circle cx="993" cy="268" r="8" fill="#FFB41F" fill-opacity="0.5"/>
<circle cx="993" cy="268" r="4" fill="#FFB41F"/>
<defs>
<filter id="filter0_d_578_464" x="0" y="0" width="1554" height="434" filterUnits="userSpaceOnUse" color-interpolation-filters="sRGB">
<feFlood flood-opacity="0" result="BackgroundImageFix"/>
<feColorMatrix in="SourceAlpha" type="matrix" values="0 0 0 0 0 0 0 0 0 0 0 0 0 0 0 0 0 0 127 0" result="hardAlpha"/>
<feOffset dy="8"/>
<feGaussianBlur stdDeviation="8"/>
<feComposite in2="hardAlpha" operator="out"/>
<feColorMatrix type="matrix" values="0 0 0 0 0.101961 0 0 0 0 0.101961 0 0 0 0 0.101961 0 0 0 0.5 0"/>
<feBlend mode="normal" in2="BackgroundImageFix" result="effect1_dropShadow_578_464"/>
<feBlend mode="normal" in="SourceGraphic" in2="effect1_dropShadow_578_464" result="shape"/>
</filter>
<linearGradient id="paint0_linear_578_464" x1="1158.5" y1="64" x2="1158.5" y2="344" gradientUnits="userSpaceOnUse">
<stop stop-color="white"/>
<stop offset="1" stop-color="white" stop-opacity="0"/>
</linearGradient>
</defs>
</svg>
