<svg width="357" height="324" viewBox="0 0 357 324" fill="none" xmlns="http://www.w3.org/2000/svg">
<g filter="url(#filter0_d_578_617)">
<path d="M237 69H130.821H89C80.1634 69 73 76.1634 73 85V189.206V230.353C73 239.189 80.1634 246.353 89 246.353H92H236H237C245.837 246.353 253 239.189 253 230.353V189.206V85C253 76.1634 245.837 69 237 69Z" fill="#121212"/>
<path d="M237 69H130.821H89C80.1634 69 73 76.1634 73 85V189.206V230.353C73 239.189 80.1634 246.353 89 246.353H92H236H237C245.837 246.353 253 239.189 253 230.353V189.206V85C253 76.1634 245.837 69 237 69Z" stroke="#383838" stroke-width="2" stroke-linecap="round"/>
</g>
<path d="M92 246.353H89C80.1634 246.353 73 239.19 73 230.353V189.206V85C73 76.1634 80.1634 69 89 69H130.821H237C245.837 69 253 76.1634 253 85V189.206V230.353C253 239.189 245.837 246.353 237 246.353H236" stroke="#383838" stroke-width="2" stroke-linecap="round"/>
<path d="M113.191 89.693V88.693H113.191L113.191 89.693ZM188.999 89.693V90.693H188.999L188.999 89.693ZM216.359 202.015L216.359 201.015L216.359 202.015ZM121.528 107.663L122.528 107.655L121.528 107.663ZM110.911 107.663L110.911 108.663H110.911V107.663ZM113.191 90.693H188.999V88.693L113.191 88.693V90.693ZM188.999 90.693C191.328 90.693 195.772 90.5716 199.648 92.6127C201.56 93.6193 203.332 95.1542 204.636 97.5189C205.943 99.8915 206.809 103.156 206.809 107.663H208.809C208.809 102.903 207.894 99.2877 206.387 96.5536C204.876 93.8115 202.801 92.0123 200.58 90.8431C196.192 88.5327 191.231 88.693 188.999 88.693L188.999 90.693ZM206.809 107.663C206.809 107.694 206.809 107.726 206.809 107.758C206.809 107.79 206.809 107.822 206.809 107.854C206.809 107.885 206.809 107.917 206.809 107.95C206.809 107.982 206.809 108.014 206.809 108.046C206.809 108.078 206.809 108.11 206.809 108.143C206.809 108.175 206.809 108.207 206.809 108.24C206.809 108.272 206.809 108.305 206.809 108.337C206.809 108.37 206.809 108.402 206.809 108.435C206.809 108.468 206.809 108.5 206.809 108.533C206.809 108.566 206.809 108.599 206.809 108.632C206.809 108.664 206.809 108.697 206.809 108.73C206.809 108.763 206.809 108.797 206.809 108.83C206.809 108.863 206.809 108.896 206.809 108.929C206.809 108.962 206.809 108.996 206.809 109.029C206.809 109.062 206.809 109.096 206.809 109.129C206.809 109.163 206.809 109.196 206.809 109.23C206.809 109.264 206.809 109.297 206.809 109.331C206.809 109.365 206.809 109.398 206.809 109.432C206.809 109.466 206.809 109.5 206.809 109.534C206.809 109.568 206.809 109.602 206.809 109.636C206.809 109.67 206.809 109.704 206.809 109.738C206.809 109.772 206.809 109.807 206.809 109.841C206.809 109.875 206.809 109.91 206.809 109.944C206.809 109.978 206.809 110.013 206.809 110.047C206.809 110.082 206.809 110.116 206.809 110.151C206.809 110.186 206.809 110.22 206.809 110.255C206.809 110.29 206.809 110.325 206.809 110.36C206.809 110.394 206.809 110.429 206.809 110.464C206.809 110.499 206.809 110.534 206.809 110.569C206.809 110.604 206.809 110.64 206.809 110.675C206.809 110.71 206.809 110.745 206.809 110.781C206.809 110.816 206.809 110.851 206.809 110.887C206.809 110.922 206.809 110.958 206.809 110.993C206.809 111.029 206.809 111.064 206.809 111.1C206.809 111.135 206.809 111.171 206.809 111.207C206.809 111.243 206.809 111.278 206.809 111.314C206.809 111.35 206.809 111.386 206.809 111.422C206.809 111.458 206.809 111.494 206.809 111.53C206.809 111.566 206.809 111.602 206.809 111.639C206.809 111.675 206.809 111.711 206.809 111.747C206.809 111.784 206.809 111.82 206.809 111.856C206.809 111.893 206.809 111.929 206.809 111.966C206.809 112.002 206.809 112.039 206.809 112.075C206.809 112.112 206.809 112.149 206.809 112.185C206.809 112.222 206.809 112.259 206.809 112.296C206.809 112.333 206.809 112.37 206.809 112.407C206.809 112.443 206.809 112.48 206.809 112.518C206.809 112.555 206.809 112.592 206.809 112.629C206.809 112.666 206.809 112.703 206.809 112.741C206.809 112.778 206.809 112.815 206.809 112.852C206.809 112.89 206.809 112.927 206.809 112.965C206.809 113.002 206.809 113.04 206.809 113.077C206.809 113.115 206.809 113.153 206.809 113.19C206.809 113.228 206.809 113.266 206.809 113.304C206.809 113.341 206.809 113.379 206.809 113.417C206.809 113.455 206.809 113.493 206.809 113.531C206.809 113.569 206.809 113.607 206.809 113.645C206.809 113.683 206.809 113.721 206.809 113.76C206.809 113.798 206.809 113.836 206.809 113.874C206.809 113.913 206.809 113.951 206.809 113.99C206.809 114.028 206.809 114.066 206.809 114.105C206.809 114.143 206.809 114.182 206.809 114.221C206.809 114.259 206.809 114.298 206.809 114.337C206.809 114.375 206.809 114.414 206.809 114.453C206.809 114.492 206.809 114.531 206.809 114.57C206.809 114.609 206.809 114.648 206.809 114.687C206.809 114.726 206.809 114.765 206.809 114.804C206.809 114.843 206.809 114.882 206.809 114.921C206.809 114.961 206.809 115 206.809 115.039C206.809 115.079 206.809 115.118 206.809 115.157C206.809 115.197 206.809 115.236 206.809 115.276C206.809 115.315 206.809 115.355 206.809 115.395C206.809 115.434 206.809 115.474 206.809 115.514C206.809 115.554 206.809 115.593 206.809 115.633C206.809 115.673 206.809 115.713 206.809 115.753C206.809 115.793 206.809 115.833 206.809 115.873C206.809 115.913 206.809 115.953 206.809 115.993C206.809 116.033 206.809 116.073 206.809 116.114C206.809 116.154 206.809 116.194 206.809 116.234C206.809 116.275 206.809 116.315 206.809 116.356C206.809 116.396 206.809 116.436 206.809 116.477C206.809 116.517 206.809 116.558 206.809 116.599C206.809 116.639 206.809 116.68 206.809 116.721C206.809 116.761 206.809 116.802 206.809 116.843C206.809 116.884 206.809 116.925 206.809 116.966C206.809 117.006 206.809 117.047 206.809 117.088C206.809 117.129 206.809 117.17 206.809 117.212C206.809 117.253 206.809 117.294 206.809 117.335C206.809 117.376 206.809 117.417 206.809 117.459C206.809 117.5 206.809 117.541 206.809 117.583C206.809 117.624 206.809 117.666 206.809 117.707C206.809 117.748 206.809 117.79 206.809 117.832C206.809 117.873 206.809 117.915 206.809 117.956C206.809 117.998 206.809 118.04 206.809 118.082C206.809 118.123 206.809 118.165 206.809 118.207C206.809 118.249 206.809 118.291 206.809 118.333C206.809 118.375 206.809 118.417 206.809 118.459C206.809 118.501 206.809 118.543 206.809 118.585C206.809 118.627 206.809 118.669 206.809 118.711C206.809 118.754 206.809 118.796 206.809 118.838C206.809 118.881 206.809 118.923 206.809 118.965C206.809 119.008 206.809 119.05 206.809 119.093C206.809 119.135 206.809 119.178 206.809 119.22C206.809 119.263 206.809 119.305 206.809 119.348C206.809 119.391 206.809 119.434 206.809 119.476C206.809 119.519 206.809 119.562 206.809 119.605C206.809 119.648 206.809 119.69 206.809 119.733C206.809 119.776 206.809 119.819 206.809 119.862C206.809 119.905 206.809 119.948 206.809 119.992C206.809 120.035 206.809 120.078 206.809 120.121C206.809 120.164 206.809 120.208 206.809 120.251C206.809 120.294 206.809 120.337 206.809 120.381C206.809 120.424 206.809 120.468 206.809 120.511C206.809 120.555 206.809 120.598 206.809 120.642C206.809 120.685 206.809 120.729 206.809 120.773C206.809 120.816 206.809 120.86 206.809 120.904C206.809 120.947 206.809 120.991 206.809 121.035C206.809 121.079 206.809 121.123 206.809 121.167C206.809 121.21 206.809 121.254 206.809 121.298C206.809 121.342 206.809 121.386 206.809 121.43C206.809 121.475 206.809 121.519 206.809 121.563C206.809 121.607 206.809 121.651 206.809 121.695C206.809 121.74 206.809 121.784 206.809 121.828C206.809 121.873 206.809 121.917 206.809 121.961C206.809 122.006 206.809 122.05 206.809 122.095C206.809 122.139 206.809 122.184 206.809 122.228C206.809 122.273 206.809 122.318 206.809 122.362C206.809 122.407 206.809 122.452 206.809 122.496C206.809 122.541 206.809 122.586 206.809 122.631C206.809 122.676 206.809 122.721 206.809 122.765C206.809 122.81 206.809 122.855 206.809 122.9C206.809 122.945 206.809 122.99 206.809 123.035C206.809 123.081 206.809 123.126 206.809 123.171C206.809 123.216 206.809 123.261 206.809 123.306C206.809 123.352 206.809 123.397 206.809 123.442C206.809 123.488 206.809 123.533 206.809 123.578C206.809 123.624 206.809 123.669 206.809 123.715C206.809 123.76 206.809 123.806 206.809 123.851C206.809 123.897 206.809 123.943 206.809 123.988C206.809 124.034 206.809 124.08 206.809 124.125C206.809 124.171 206.809 124.217 206.809 124.263C206.809 124.308 206.809 124.354 206.809 124.4C206.809 124.446 206.809 124.492 206.809 124.538C206.809 124.584 206.809 124.63 206.809 124.676C206.809 124.722 206.809 124.768 206.809 124.814C206.809 124.86 206.809 124.906 206.809 124.953C206.809 124.999 206.809 125.045 206.809 125.091C206.809 125.138 206.809 125.184 206.809 125.23C206.809 125.277 206.809 125.323 206.809 125.369C206.809 125.416 206.809 125.462 206.809 125.509C206.809 125.555 206.809 125.602 206.809 125.648C206.809 125.695 206.809 125.742 206.809 125.788C206.809 125.835 206.809 125.882 206.809 125.928C206.809 125.975 206.809 126.022 206.809 126.069C206.809 126.116 206.809 126.162 206.809 126.209C206.809 126.256 206.809 126.303 206.809 126.35C206.809 126.397 206.809 126.444 206.809 126.491C206.809 126.538 206.809 126.585 206.809 126.632C206.809 126.679 206.809 126.727 206.809 126.774C206.809 126.821 206.809 126.868 206.809 126.915C206.809 126.963 206.809 127.01 206.809 127.057C206.809 127.105 206.809 127.152 206.809 127.199C206.809 127.247 206.809 127.294 206.809 127.342C206.809 127.389 206.809 127.437 206.809 127.484C206.809 127.532 206.809 127.579 206.809 127.627C206.809 127.675 206.809 127.722 206.809 127.77C206.809 127.818 206.809 127.865 206.809 127.913C206.809 127.961 206.809 128.009 206.809 128.057C206.809 128.104 206.809 128.152 206.809 128.2C206.809 128.248 206.809 128.296 206.809 128.344C206.809 128.392 206.809 128.44 206.809 128.488C206.809 128.536 206.809 128.584 206.809 128.632C206.809 128.68 206.809 128.729 206.809 128.777C206.809 128.825 206.809 128.873 206.809 128.921C206.809 128.97 206.809 129.018 206.809 129.066C206.809 129.115 206.809 129.163 206.809 129.211C206.809 129.26 206.809 129.308 206.809 129.357C206.809 129.405 206.809 129.454 206.809 129.502C206.809 129.551 206.809 129.599 206.809 129.648C206.809 129.697 206.809 129.745 206.809 129.794C206.809 129.842 206.809 129.891 206.809 129.94C206.809 129.989 206.809 130.037 206.809 130.086C206.809 130.135 206.809 130.184 206.809 130.233C206.809 130.282 206.809 130.331 206.809 130.379C206.809 130.428 206.809 130.477 206.809 130.526C206.809 130.575 206.809 130.624 206.809 130.674C206.809 130.723 206.809 130.772 206.809 130.821C206.809 130.87 206.809 130.919 206.809 130.968C206.809 131.018 206.809 131.067 206.809 131.116C206.809 131.165 206.809 131.215 206.809 131.264C206.809 131.313 206.809 131.363 206.809 131.412C206.809 131.461 206.809 131.511 206.809 131.56C206.809 131.61 206.809 131.659 206.809 131.709C206.809 131.758 206.809 131.808 206.809 131.857C206.809 131.907 206.809 131.957 206.809 132.006C206.809 132.056 206.809 132.106 206.809 132.155C206.809 132.205 206.809 132.255 206.809 132.305C206.809 132.354 206.809 132.404 206.809 132.454C206.809 132.504 206.809 132.554 206.809 132.604C206.809 132.654 206.809 132.703 206.809 132.753C206.809 132.803 206.809 132.853 206.809 132.903C206.809 132.953 206.809 133.004 206.809 133.054C206.809 133.104 206.809 133.154 206.809 133.204C206.809 133.254 206.809 133.304 206.809 133.354C206.809 133.405 206.809 133.455 206.809 133.505C206.809 133.555 206.809 133.606 206.809 133.656C206.809 133.706 206.809 133.757 206.809 133.807C206.809 133.858 206.809 133.908 206.809 133.958C206.809 134.009 206.809 134.059 206.809 134.11C206.809 134.16 206.809 134.211 206.809 134.261C206.809 134.312 206.809 134.363 206.809 134.413C206.809 134.464 206.809 134.515 206.809 134.565C206.809 134.616 206.809 134.667 206.809 134.717C206.809 134.768 206.809 134.819 206.809 134.87C206.809 134.92 206.809 134.971 206.809 135.022C206.809 135.073 206.809 135.124 206.809 135.175C206.809 135.226 206.809 135.277 206.809 135.328C206.809 135.379 206.809 135.43 206.809 135.481C206.809 135.532 206.809 135.583 206.809 135.634C206.809 135.685 206.809 135.736 206.809 135.787C206.809 135.838 206.809 135.889 206.809 135.941C206.809 135.992 206.809 136.043 206.809 136.094C206.809 136.146 206.809 136.197 206.809 136.248C206.809 136.299 206.809 136.351 206.809 136.402C206.809 136.454 206.809 136.505 206.809 136.556C206.809 136.608 206.809 136.659 206.809 136.711C206.809 136.762 206.809 136.814 206.809 136.865C206.809 136.917 206.809 136.968 206.809 137.02C206.809 137.071 206.809 137.123 206.809 137.175C206.809 137.226 206.809 137.278 206.809 137.33C206.809 137.381 206.809 137.433 206.809 137.485C206.809 137.536 206.809 137.588 206.809 137.64C206.809 137.692 206.809 137.744 206.809 137.795C206.809 137.847 206.809 137.899 206.809 137.951C206.809 138.003 206.809 138.055 206.809 138.107C206.809 138.159 206.809 138.211 206.809 138.263C206.809 138.315 206.809 138.367 206.809 138.419C206.809 138.471 206.809 138.523 206.809 138.575C206.809 138.627 206.809 138.679 206.809 138.731C206.809 138.784 206.809 138.836 206.809 138.888C206.809 138.94 206.809 138.992 206.809 139.045C206.809 139.097 206.809 139.149 206.809 139.201C206.809 139.254 206.809 139.306 206.809 139.358C206.809 139.411 206.809 139.463 206.809 139.515C206.809 139.568 206.809 139.62 206.809 139.673C206.809 139.725 206.809 139.778 206.809 139.83C206.809 139.883 206.809 139.935 206.809 139.988C206.809 140.04 206.809 140.093 206.809 140.145C206.809 140.198 206.809 140.251 206.809 140.303C206.809 140.356 206.809 140.408 206.809 140.461C206.809 140.514 206.809 140.567 206.809 140.619C206.809 140.672 206.809 140.725 206.809 140.778C206.809 140.83 206.809 140.883 206.809 140.936C206.809 140.989 206.809 141.042 206.809 141.094C206.809 141.147 206.809 141.2 206.809 141.253C206.809 141.306 206.809 141.359 206.809 141.412C206.809 141.465 206.809 141.518 206.809 141.571C206.809 141.624 206.809 141.677 206.809 141.73C206.809 141.783 206.809 141.836 206.809 141.889C206.809 141.942 206.809 141.995 206.809 142.048C206.809 142.102 206.809 142.155 206.809 142.208C206.809 142.261 206.809 142.314 206.809 142.368C206.809 142.421 206.809 142.474 206.809 142.527C206.809 142.581 206.809 142.634 206.809 142.687C206.809 142.74 206.809 142.794 206.809 142.847C206.809 142.901 206.809 142.954 206.809 143.007C206.809 143.061 206.809 143.114 206.809 143.168C206.809 143.221 206.809 143.274 206.809 143.328C206.809 143.381 206.809 143.435 206.809 143.488C206.809 143.542 206.809 143.595 206.809 143.649C206.809 143.703 206.809 143.756 206.809 143.81C206.809 143.863 206.809 143.917 206.809 143.971C206.809 144.024 206.809 144.078 206.809 144.132C206.809 144.185 206.809 144.239 206.809 144.293C206.809 144.346 206.809 144.4 206.809 144.454C206.809 144.508 206.809 144.562 206.809 144.615C206.809 144.669 206.809 144.723 206.809 144.777C206.809 144.831 206.809 144.884 206.809 144.938C206.809 144.992 206.809 145.046 206.809 145.1C206.809 145.154 206.809 145.208 206.809 145.262C206.809 145.316 206.809 145.37 206.809 145.424C206.809 145.478 206.809 145.532 206.809 145.586C206.809 145.64 206.809 145.694 206.809 145.748C206.809 145.802 206.809 145.856 206.809 145.91C206.809 145.964 206.809 146.018 206.809 146.073C206.809 146.127 206.809 146.181 206.809 146.235C206.809 146.289 206.809 146.343 206.809 146.398C206.809 146.452 206.809 146.506 206.809 146.56C206.809 146.615 206.809 146.669 206.809 146.723C206.809 146.778 206.809 146.832 206.809 146.886C206.809 146.94 206.809 146.995 206.809 147.049C206.809 147.104 206.809 147.158 206.809 147.212C206.809 147.267 206.809 147.321 206.809 147.376C206.809 147.43 206.809 147.484 206.809 147.539C206.809 147.593 206.809 147.648 206.809 147.702C206.809 147.757 206.809 147.811 206.809 147.866C206.809 147.92 206.809 147.975 206.809 148.029C206.809 148.084 206.809 148.139 206.809 148.193C206.809 148.248 206.809 148.302 206.809 148.357C206.809 148.412 206.809 148.466 206.809 148.521C206.809 148.576 206.809 148.63 206.809 148.685C206.809 148.74 206.809 148.794 206.809 148.849C206.809 148.904 206.809 148.959 206.809 149.013C206.809 149.068 206.809 149.123 206.809 149.178C206.809 149.232 206.809 149.287 206.809 149.342C206.809 149.397 206.809 149.452 206.809 149.507C206.809 149.561 206.809 149.616 206.809 149.671C206.809 149.726 206.809 149.781 206.809 149.836C206.809 149.891 206.809 149.946 206.809 150.001C206.809 150.055 206.809 150.11 206.809 150.165C206.809 150.22 206.809 150.275 206.809 150.33C206.809 150.385 206.809 150.44 206.809 150.495C206.809 150.55 206.809 150.605 206.809 150.66C206.809 150.716 206.809 150.771 206.809 150.826C206.809 150.881 206.809 150.936 206.809 150.991C206.809 151.046 206.809 151.101 206.809 151.156C206.809 151.211 206.809 151.267 206.809 151.322C206.809 151.377 206.809 151.432 206.809 151.487C206.809 151.543 206.809 151.598 206.809 151.653C206.809 151.708 206.809 151.763 206.809 151.819C206.809 151.874 206.809 151.929 206.809 151.984C206.809 152.04 206.809 152.095 206.809 152.15C206.809 152.206 206.809 152.261 206.809 152.316C206.809 152.371 206.809 152.427 206.809 152.482C206.809 152.538 206.809 152.593 206.809 152.648C206.809 152.704 206.809 152.759 206.809 152.814C206.809 152.87 206.809 152.925 206.809 152.981C206.809 153.036 206.809 153.091 206.809 153.147C206.809 153.202 206.809 153.258 206.809 153.313C206.809 153.369 206.809 153.424 206.809 153.48C206.809 153.535 206.809 153.591 206.809 153.646C206.809 153.702 206.809 153.757 206.809 153.813C206.809 153.868 206.809 153.924 206.809 153.979C206.809 154.035 206.809 154.091 206.809 154.146C206.809 154.202 206.809 154.257 206.809 154.313C206.809 154.369 206.809 154.424 206.809 154.48C206.809 154.535 206.809 154.591 206.809 154.647C206.809 154.702 206.809 154.758 206.809 154.814C206.809 154.869 206.809 154.925 206.809 154.981C206.809 155.036 206.809 155.092 206.809 155.148C206.809 155.204 206.809 155.259 206.809 155.315C206.809 155.371 206.809 155.426 206.809 155.482C206.809 155.538 206.809 155.594 206.809 155.649C206.809 155.705 206.809 155.761 206.809 155.817C206.809 155.873 206.809 155.928 206.809 155.984C206.809 156.04 206.809 156.096 206.809 156.152C206.809 156.207 206.809 156.263 206.809 156.319C206.809 156.375 206.809 156.431 206.809 156.487C206.809 156.543 206.809 156.598 206.809 156.654C206.809 156.71 206.809 156.766 206.809 156.822C206.809 156.878 206.809 156.934 206.809 156.99C206.809 157.046 206.809 157.102 206.809 157.157C206.809 157.213 206.809 157.269 206.809 157.325C206.809 157.381 206.809 157.437 206.809 157.493C206.809 157.549 206.809 157.605 206.809 157.661C206.809 157.717 206.809 157.773 206.809 157.829C206.809 157.885 206.809 157.941 206.809 157.997C206.809 158.053 206.809 158.109 206.809 158.165C206.809 158.221 206.809 158.277 206.809 158.333C206.809 158.389 206.809 158.445 206.809 158.501C206.809 158.557 206.809 158.613 206.809 158.67C206.809 158.726 206.809 158.782 206.809 158.838C206.809 158.894 206.809 158.95 206.809 159.006C206.809 159.062 206.809 159.118 206.809 159.174C206.809 159.23 206.809 159.287 206.809 159.343C206.809 159.399 206.809 159.455 206.809 159.511C206.809 159.567 206.809 159.623 206.809 159.68C206.809 159.736 206.809 159.792 206.809 159.848C206.809 159.904 206.809 159.96 206.809 160.017C206.809 160.073 206.809 160.129 206.809 160.185C206.809 160.241 206.809 160.297 206.809 160.354C206.809 160.41 206.809 160.466 206.809 160.522C206.809 160.578 206.809 160.635 206.809 160.691C206.809 160.747 206.809 160.803 206.809 160.86C206.809 160.916 206.809 160.972 206.809 161.028C206.809 161.085 206.809 161.141 206.809 161.197C206.809 161.253 206.809 161.31 206.809 161.366C206.809 161.422 206.809 161.478 206.809 161.535C206.809 161.591 206.809 161.647 206.809 161.703C206.809 161.76 206.809 161.816 206.809 161.872C206.809 161.929 206.809 161.985 206.809 162.041C206.809 162.097 206.809 162.154 206.809 162.21C206.809 162.266 206.809 162.323 206.809 162.379C206.809 162.435 206.809 162.492 206.809 162.548C206.809 162.604 206.809 162.66 206.809 162.717C206.809 162.773 206.809 162.829 206.809 162.886C206.809 162.942 206.809 162.998 206.809 163.055C206.809 163.111 206.809 163.167 206.809 163.224C206.809 163.28 206.809 163.337 206.809 163.393C206.809 163.449 206.809 163.506 206.809 163.562C206.809 163.618 206.809 163.675 206.809 163.731C206.809 163.787 206.809 163.844 206.809 163.9C206.809 163.956 206.809 164.013 206.809 164.069C206.809 164.126 206.809 164.182 206.809 164.238C206.809 164.295 206.809 164.351 206.809 164.407C206.809 164.464 206.809 164.52 206.809 164.577C206.809 164.633 206.809 164.689 206.809 164.746C206.809 164.802 206.809 164.859 206.809 164.915C206.809 164.971 206.809 165.028 206.809 165.084C206.809 165.14 206.809 165.197 206.809 165.253C206.809 165.31 206.809 165.366 206.809 165.422C206.809 165.479 206.809 165.535 206.809 165.592C206.809 165.648 206.809 165.704 206.809 165.761C206.809 165.817 206.809 165.874 206.809 165.93C206.809 165.987 206.809 166.043 206.809 166.099C206.809 166.156 206.809 166.212 206.809 166.269C206.809 166.325 206.809 166.381 206.809 166.438C206.809 166.494 206.809 166.551 206.809 166.607C206.809 166.663 206.809 166.72 206.809 166.776C206.809 166.833 206.809 166.889 206.809 166.945C206.809 167.002 206.809 167.058 206.809 167.115C206.809 167.171 206.809 167.227 206.809 167.284C206.809 167.34 206.809 167.397 206.809 167.453C206.809 167.509 206.809 167.566 206.809 167.622C206.809 167.679 206.809 167.735 206.809 167.792C206.809 167.848 206.809 167.904 206.809 167.961C206.809 168.017 206.809 168.074 206.809 168.13C206.809 168.186 206.809 168.243 206.809 168.299C206.809 168.355 206.809 168.412 206.809 168.468C206.809 168.525 206.809 168.581 206.809 168.637C206.809 168.694 206.809 168.75 206.809 168.807C206.809 168.863 206.809 168.919 206.809 168.976C206.809 169.032 206.809 169.089 206.809 169.145C206.809 169.201 206.809 169.258 206.809 169.314C206.809 169.37 206.809 169.427 206.809 169.483C206.809 169.54 206.809 169.596 206.809 169.652C206.809 169.709 206.809 169.765 206.809 169.821C206.809 169.878 206.809 169.934 206.809 169.99C206.809 170.047 206.809 170.103 206.809 170.159C206.809 170.216 206.809 170.272 206.809 170.328C206.809 170.385 206.809 170.441 206.809 170.497C206.809 170.554 206.809 170.61 206.809 170.666C206.809 170.723 206.809 170.779 206.809 170.835C206.809 170.892 206.809 170.948 206.809 171.004C206.809 171.061 206.809 171.117 206.809 171.173C206.809 171.23 206.809 171.286 206.809 171.342C206.809 171.399 206.809 171.455 206.809 171.511C206.809 171.567 206.809 171.624 206.809 171.68C206.809 171.736 206.809 171.793 206.809 171.849C206.809 171.905 206.809 171.961 206.809 172.018C206.809 172.074 206.809 172.13 206.809 172.186C206.809 172.243 206.809 172.299 206.809 172.355C206.809 172.411 206.809 172.468 206.809 172.524C206.809 172.58 206.809 172.636 206.809 172.693C206.809 172.749 206.809 172.805 206.809 172.861C206.809 172.917 206.809 172.974 206.809 173.03C206.809 173.086 206.809 173.142 206.809 173.198C206.809 173.255 206.809 173.311 206.809 173.367C206.809 173.423 206.809 173.479 206.809 173.535C206.809 173.592 206.809 173.648 206.809 173.704C206.809 173.76 206.809 173.816 206.809 173.872C206.809 173.929 206.809 173.985 206.809 174.041C206.809 174.097 206.809 174.153 206.809 174.209C206.809 174.265 206.809 174.321 206.809 174.378C206.809 174.434 206.809 174.49 206.809 174.546C206.809 174.602 206.809 174.658 206.809 174.714C206.809 174.77 206.809 174.826 206.809 174.882C206.809 174.938 206.809 174.994 206.809 175.05C206.809 175.106 206.809 175.163 206.809 175.219C206.809 175.275 206.809 175.331 206.809 175.387C206.809 175.443 206.809 175.499 206.809 175.555C206.809 175.611 206.809 175.667 206.809 175.723C206.809 175.779 206.809 175.835 206.809 175.891C206.809 175.947 206.809 176.003 206.809 176.059C206.809 176.114 206.809 176.17 206.809 176.226C206.809 176.282 206.809 176.338 206.809 176.394C206.809 176.45 206.809 176.506 206.809 176.562C206.809 176.618 206.809 176.674 206.809 176.73C206.809 176.785 206.809 176.841 206.809 176.897C206.809 176.953 206.809 177.009 206.809 177.065C206.809 177.121 206.809 177.176 206.809 177.232C206.809 177.288 206.809 177.344 206.809 177.4C206.809 177.456 206.809 177.511 206.809 177.567C206.809 177.623 206.809 177.679 206.809 177.735C206.809 177.79 206.809 177.846 206.809 177.902C206.809 177.958 206.809 178.013 206.809 178.069C206.809 178.125 206.809 178.181 206.809 178.236C206.809 178.292 206.809 178.348 206.809 178.403C206.809 178.459 206.809 178.515 206.809 178.57C206.809 178.626 206.809 178.682 206.809 178.738C206.809 178.793 206.809 178.849 206.809 178.904C206.809 178.96 206.809 179.016 206.809 179.071C206.809 179.127 206.809 179.183 206.809 179.238C206.809 179.294 206.809 179.349 206.809 179.405C206.809 179.46 206.809 179.516 206.809 179.572C206.809 179.627 206.809 179.683 206.809 179.738C206.809 179.794 206.809 179.849 206.809 179.905C206.809 179.96 206.809 180.016 206.809 180.071C206.809 180.127 206.809 180.182 206.809 180.238C206.809 180.293 206.809 180.348 206.809 180.404C206.809 180.459 206.809 180.515 206.809 180.57C206.809 180.626 206.809 180.681 206.809 180.736C206.809 180.792 206.809 180.847 206.809 180.902C206.809 180.958 206.809 181.013 206.809 181.068C206.809 181.124 206.809 181.179 206.809 181.234C206.809 181.29 206.809 181.345 206.809 181.4C206.809 181.456 206.809 181.511 206.809 181.566C206.809 181.621 206.809 181.677 206.809 181.732C206.809 181.787 206.809 181.842 206.809 181.897C206.809 181.953 206.809 182.008 206.809 182.063C206.809 182.118 206.809 182.173 206.809 182.229C206.809 182.284 206.809 182.339 206.809 182.394C206.809 182.449 206.809 182.504 206.809 182.559C206.809 182.614 206.809 182.669 206.809 182.725C206.809 182.78 206.809 182.835 206.809 182.89C206.809 182.945 206.809 183 206.809 183.055C206.809 183.11 206.809 183.165 206.809 183.22C206.809 183.275 206.809 183.33 206.809 183.385C206.809 183.44 206.809 183.494 206.809 183.549C206.809 183.604 206.809 183.659 206.809 183.714C206.809 183.769 206.809 183.824 206.809 183.879C206.809 183.934 206.809 183.988 206.809 184.043H208.809C208.809 183.988 208.809 183.934 208.809 183.879C208.809 183.824 208.809 183.769 208.809 183.714C208.809 183.659 208.809 183.604 208.809 183.549C208.809 183.494 208.809 183.44 208.809 183.385C208.809 183.33 208.809 183.275 208.809 183.22C208.809 183.165 208.809 183.11 208.809 183.055C208.809 183 208.809 182.945 208.809 182.89C208.809 182.835 208.809 182.78 208.809 182.725C208.809 182.669 208.809 182.614 208.809 182.559C208.809 182.504 208.809 182.449 208.809 182.394C208.809 182.339 208.809 182.284 208.809 182.229C208.809 182.173 208.809 182.118 208.809 182.063C208.809 182.008 208.809 181.953 208.809 181.897C208.809 181.842 208.809 181.787 208.809 181.732C208.809 181.677 208.809 181.621 208.809 181.566C208.809 181.511 208.809 181.456 208.809 181.4C208.809 181.345 208.809 181.29 208.809 181.234C208.809 181.179 208.809 181.124 208.809 181.068C208.809 181.013 208.809 180.958 208.809 180.902C208.809 180.847 208.809 180.792 208.809 180.736C208.809 180.681 208.809 180.626 208.809 180.57C208.809 180.515 208.809 180.459 208.809 180.404C208.809 180.348 208.809 180.293 208.809 180.238C208.809 180.182 208.809 180.127 208.809 180.071C208.809 180.016 208.809 179.96 208.809 179.905C208.809 179.849 208.809 179.794 208.809 179.738C208.809 179.683 208.809 179.627 208.809 179.572C208.809 179.516 208.809 179.46 208.809 179.405C208.809 179.349 208.809 179.294 208.809 179.238C208.809 179.183 208.809 179.127 208.809 179.071C208.809 179.016 208.809 178.96 208.809 178.904C208.809 178.849 208.809 178.793 208.809 178.738C208.809 178.682 208.809 178.626 208.809 178.57C208.809 178.515 208.809 178.459 208.809 178.403C208.809 178.348 208.809 178.292 208.809 178.236C208.809 178.181 208.809 178.125 208.809 178.069C208.809 178.013 208.809 177.958 208.809 177.902C208.809 177.846 208.809 177.79 208.809 177.735C208.809 177.679 208.809 177.623 208.809 177.567C208.809 177.511 208.809 177.456 208.809 177.4C208.809 177.344 208.809 177.288 208.809 177.232C208.809 177.176 208.809 177.121 208.809 177.065C208.809 177.009 208.809 176.953 208.809 176.897C208.809 176.841 208.809 176.785 208.809 176.73C208.809 176.674 208.809 176.618 208.809 176.562C208.809 176.506 208.809 176.45 208.809 176.394C208.809 176.338 208.809 176.282 208.809 176.226C208.809 176.17 208.809 176.114 208.809 176.059C208.809 176.003 208.809 175.947 208.809 175.891C208.809 175.835 208.809 175.779 208.809 175.723C208.809 175.667 208.809 175.611 208.809 175.555C208.809 175.499 208.809 175.443 208.809 175.387C208.809 175.331 208.809 175.275 208.809 175.219C208.809 175.163 208.809 175.106 208.809 175.05C208.809 174.994 208.809 174.938 208.809 174.882C208.809 174.826 208.809 174.77 208.809 174.714C208.809 174.658 208.809 174.602 208.809 174.546C208.809 174.49 208.809 174.434 208.809 174.378C208.809 174.321 208.809 174.265 208.809 174.209C208.809 174.153 208.809 174.097 208.809 174.041C208.809 173.985 208.809 173.929 208.809 173.872C208.809 173.816 208.809 173.76 208.809 173.704C208.809 173.648 208.809 173.592 208.809 173.535C208.809 173.479 208.809 173.423 208.809 173.367C208.809 173.311 208.809 173.255 208.809 173.198C208.809 173.142 208.809 173.086 208.809 173.03C208.809 172.974 208.809 172.917 208.809 172.861C208.809 172.805 208.809 172.749 208.809 172.693C208.809 172.636 208.809 172.58 208.809 172.524C208.809 172.468 208.809 172.411 208.809 172.355C208.809 172.299 208.809 172.243 208.809 172.186C208.809 172.13 208.809 172.074 208.809 172.018C208.809 171.961 208.809 171.905 208.809 171.849C208.809 171.793 208.809 171.736 208.809 171.68C208.809 171.624 208.809 171.567 208.809 171.511C208.809 171.455 208.809 171.399 208.809 171.342C208.809 171.286 208.809 171.23 208.809 171.173C208.809 171.117 208.809 171.061 208.809 171.004C208.809 170.948 208.809 170.892 208.809 170.835C208.809 170.779 208.809 170.723 208.809 170.666C208.809 170.61 208.809 170.554 208.809 170.497C208.809 170.441 208.809 170.385 208.809 170.328C208.809 170.272 208.809 170.216 208.809 170.159C208.809 170.103 208.809 170.047 208.809 169.99C208.809 169.934 208.809 169.878 208.809 169.821C208.809 169.765 208.809 169.709 208.809 169.652C208.809 169.596 208.809 169.54 208.809 169.483C208.809 169.427 208.809 169.37 208.809 169.314C208.809 169.258 208.809 169.201 208.809 169.145C208.809 169.089 208.809 169.032 208.809 168.976C208.809 168.919 208.809 168.863 208.809 168.807C208.809 168.75 208.809 168.694 208.809 168.637C208.809 168.581 208.809 168.525 208.809 168.468C208.809 168.412 208.809 168.355 208.809 168.299C208.809 168.243 208.809 168.186 208.809 168.13C208.809 168.074 208.809 168.017 208.809 167.961C208.809 167.904 208.809 167.848 208.809 167.792C208.809 167.735 208.809 167.679 208.809 167.622C208.809 167.566 208.809 167.509 208.809 167.453C208.809 167.397 208.809 167.34 208.809 167.284C208.809 167.227 208.809 167.171 208.809 167.115C208.809 167.058 208.809 167.002 208.809 166.945C208.809 166.889 208.809 166.833 208.809 166.776C208.809 166.72 208.809 166.663 208.809 166.607C208.809 166.551 208.809 166.494 208.809 166.438C208.809 166.381 208.809 166.325 208.809 166.269C208.809 166.212 208.809 166.156 208.809 166.099C208.809 166.043 208.809 165.987 208.809 165.93C208.809 165.874 208.809 165.817 208.809 165.761C208.809 165.704 208.809 165.648 208.809 165.592C208.809 165.535 208.809 165.479 208.809 165.422C208.809 165.366 208.809 165.31 208.809 165.253C208.809 165.197 208.809 165.14 208.809 165.084C208.809 165.028 208.809 164.971 208.809 164.915C208.809 164.859 208.809 164.802 208.809 164.746C208.809 164.689 208.809 164.633 208.809 164.577C208.809 164.52 208.809 164.464 208.809 164.407C208.809 164.351 208.809 164.295 208.809 164.238C208.809 164.182 208.809 164.126 208.809 164.069C208.809 164.013 208.809 163.956 208.809 163.9C208.809 163.844 208.809 163.787 208.809 163.731C208.809 163.675 208.809 163.618 208.809 163.562C208.809 163.506 208.809 163.449 208.809 163.393C208.809 163.337 208.809 163.28 208.809 163.224C208.809 163.167 208.809 163.111 208.809 163.055C208.809 162.998 208.809 162.942 208.809 162.886C208.809 162.829 208.809 162.773 208.809 162.717C208.809 162.66 208.809 162.604 208.809 162.548C208.809 162.492 208.809 162.435 208.809 162.379C208.809 162.323 208.809 162.266 208.809 162.21C208.809 162.154 208.809 162.097 208.809 162.041C208.809 161.985 208.809 161.929 208.809 161.872C208.809 161.816 208.809 161.76 208.809 161.703C208.809 161.647 208.809 161.591 208.809 161.535C208.809 161.478 208.809 161.422 208.809 161.366C208.809 161.31 208.809 161.253 208.809 161.197C208.809 161.141 208.809 161.085 208.809 161.028C208.809 160.972 208.809 160.916 208.809 160.86C208.809 160.803 208.809 160.747 208.809 160.691C208.809 160.635 208.809 160.578 208.809 160.522C208.809 160.466 208.809 160.41 208.809 160.354C208.809 160.297 208.809 160.241 208.809 160.185C208.809 160.129 208.809 160.073 208.809 160.017C208.809 159.96 208.809 159.904 208.809 159.848C208.809 159.792 208.809 159.736 208.809 159.68C208.809 159.623 208.809 159.567 208.809 159.511C208.809 159.455 208.809 159.399 208.809 159.343C208.809 159.287 208.809 159.23 208.809 159.174C208.809 159.118 208.809 159.062 208.809 159.006C208.809 158.95 208.809 158.894 208.809 158.838C208.809 158.782 208.809 158.726 208.809 158.67C208.809 158.613 208.809 158.557 208.809 158.501C208.809 158.445 208.809 158.389 208.809 158.333C208.809 158.277 208.809 158.221 208.809 158.165C208.809 158.109 208.809 158.053 208.809 157.997C208.809 157.941 208.809 157.885 208.809 157.829C208.809 157.773 208.809 157.717 208.809 157.661C208.809 157.605 208.809 157.549 208.809 157.493C208.809 157.437 208.809 157.381 208.809 157.325C208.809 157.269 208.809 157.213 208.809 157.157C208.809 157.102 208.809 157.046 208.809 156.99C208.809 156.934 208.809 156.878 208.809 156.822C208.809 156.766 208.809 156.71 208.809 156.654C208.809 156.598 208.809 156.543 208.809 156.487C208.809 156.431 208.809 156.375 208.809 156.319C208.809 156.263 208.809 156.207 208.809 156.152C208.809 156.096 208.809 156.04 208.809 155.984C208.809 155.928 208.809 155.873 208.809 155.817C208.809 155.761 208.809 155.705 208.809 155.649C208.809 155.594 208.809 155.538 208.809 155.482C208.809 155.426 208.809 155.371 208.809 155.315C208.809 155.259 208.809 155.204 208.809 155.148C208.809 155.092 208.809 155.036 208.809 154.981C208.809 154.925 208.809 154.869 208.809 154.814C208.809 154.758 208.809 154.702 208.809 154.647C208.809 154.591 208.809 154.535 208.809 154.48C208.809 154.424 208.809 154.369 208.809 154.313C208.809 154.257 208.809 154.202 208.809 154.146C208.809 154.091 208.809 154.035 208.809 153.979C208.809 153.924 208.809 153.868 208.809 153.813C208.809 153.757 208.809 153.702 208.809 153.646C208.809 153.591 208.809 153.535 208.809 153.48C208.809 153.424 208.809 153.369 208.809 153.313C208.809 153.258 208.809 153.202 208.809 153.147C208.809 153.091 208.809 153.036 208.809 152.981C208.809 152.925 208.809 152.87 208.809 152.814C208.809 152.759 208.809 152.704 208.809 152.648C208.809 152.593 208.809 152.538 208.809 152.482C208.809 152.427 208.809 152.371 208.809 152.316C208.809 152.261 208.809 152.206 208.809 152.15C208.809 152.095 208.809 152.04 208.809 151.984C208.809 151.929 208.809 151.874 208.809 151.819C208.809 151.763 208.809 151.708 208.809 151.653C208.809 151.598 208.809 151.543 208.809 151.487C208.809 151.432 208.809 151.377 208.809 151.322C208.809 151.267 208.809 151.211 208.809 151.156C208.809 151.101 208.809 151.046 208.809 150.991C208.809 150.936 208.809 150.881 208.809 150.826C208.809 150.771 208.809 150.716 208.809 150.66C208.809 150.605 208.809 150.55 208.809 150.495C208.809 150.44 208.809 150.385 208.809 150.33C208.809 150.275 208.809 150.22 208.809 150.165C208.809 150.11 208.809 150.055 208.809 150.001C208.809 149.946 208.809 149.891 208.809 149.836C208.809 149.781 208.809 149.726 208.809 149.671C208.809 149.616 208.809 149.561 208.809 149.507C208.809 149.452 208.809 149.397 208.809 149.342C208.809 149.287 208.809 149.232 208.809 149.178C208.809 149.123 208.809 149.068 208.809 149.013C208.809 148.959 208.809 148.904 208.809 148.849C208.809 148.794 208.809 148.74 208.809 148.685C208.809 148.63 208.809 148.576 208.809 148.521C208.809 148.466 208.809 148.412 208.809 148.357C208.809 148.302 208.809 148.248 208.809 148.193C208.809 148.139 208.809 148.084 208.809 148.029C208.809 147.975 208.809 147.92 208.809 147.866C208.809 147.811 208.809 147.757 208.809 147.702C208.809 147.648 208.809 147.593 208.809 147.539C208.809 147.484 208.809 147.43 208.809 147.376C208.809 147.321 208.809 147.267 208.809 147.212C208.809 147.158 208.809 147.104 208.809 147.049C208.809 146.995 208.809 146.94 208.809 146.886C208.809 146.832 208.809 146.778 208.809 146.723C208.809 146.669 208.809 146.615 208.809 146.56C208.809 146.506 208.809 146.452 208.809 146.398C208.809 146.343 208.809 146.289 208.809 146.235C208.809 146.181 208.809 146.127 208.809 146.073C208.809 146.018 208.809 145.964 208.809 145.91C208.809 145.856 208.809 145.802 208.809 145.748C208.809 145.694 208.809 145.64 208.809 145.586C208.809 145.532 208.809 145.478 208.809 145.424C208.809 145.37 208.809 145.316 208.809 145.262C208.809 145.208 208.809 145.154 208.809 145.1C208.809 145.046 208.809 144.992 208.809 144.938C208.809 144.884 208.809 144.831 208.809 144.777C208.809 144.723 208.809 144.669 208.809 144.615C208.809 144.562 208.809 144.508 208.809 144.454C208.809 144.4 208.809 144.346 208.809 144.293C208.809 144.239 208.809 144.185 208.809 144.132C208.809 144.078 208.809 144.024 208.809 143.971C208.809 143.917 208.809 143.863 208.809 143.81C208.809 143.756 208.809 143.703 208.809 143.649C208.809 143.595 208.809 143.542 208.809 143.488C208.809 143.435 208.809 143.381 208.809 143.328C208.809 143.274 208.809 143.221 208.809 143.168C208.809 143.114 208.809 143.061 208.809 143.007C208.809 142.954 208.809 142.901 208.809 142.847C208.809 142.794 208.809 142.74 208.809 142.687C208.809 142.634 208.809 142.581 208.809 142.527C208.809 142.474 208.809 142.421 208.809 142.368C208.809 142.314 208.809 142.261 208.809 142.208C208.809 142.155 208.809 142.102 208.809 142.048C208.809 141.995 208.809 141.942 208.809 141.889C208.809 141.836 208.809 141.783 208.809 141.73C208.809 141.677 208.809 141.624 208.809 141.571C208.809 141.518 208.809 141.465 208.809 141.412C208.809 141.359 208.809 141.306 208.809 141.253C208.809 141.2 208.809 141.147 208.809 141.094C208.809 141.042 208.809 140.989 208.809 140.936C208.809 140.883 208.809 140.83 208.809 140.778C208.809 140.725 208.809 140.672 208.809 140.619C208.809 140.567 208.809 140.514 208.809 140.461C208.809 140.408 208.809 140.356 208.809 140.303C208.809 140.251 208.809 140.198 208.809 140.145C208.809 140.093 208.809 140.04 208.809 139.988C208.809 139.935 208.809 139.883 208.809 139.83C208.809 139.778 208.809 139.725 208.809 139.673C208.809 139.62 208.809 139.568 208.809 139.515C208.809 139.463 208.809 139.411 208.809 139.358C208.809 139.306 208.809 139.254 208.809 139.201C208.809 139.149 208.809 139.097 208.809 139.045C208.809 138.992 208.809 138.94 208.809 138.888C208.809 138.836 208.809 138.784 208.809 138.731C208.809 138.679 208.809 138.627 208.809 138.575C208.809 138.523 208.809 138.471 208.809 138.419C208.809 138.367 208.809 138.315 208.809 138.263C208.809 138.211 208.809 138.159 208.809 138.107C208.809 138.055 208.809 138.003 208.809 137.951C208.809 137.899 208.809 137.847 208.809 137.795C208.809 137.744 208.809 137.692 208.809 137.64C208.809 137.588 208.809 137.536 208.809 137.485C208.809 137.433 208.809 137.381 208.809 137.33C208.809 137.278 208.809 137.226 208.809 137.175C208.809 137.123 208.809 137.071 208.809 137.02C208.809 136.968 208.809 136.917 208.809 136.865C208.809 136.814 208.809 136.762 208.809 136.711C208.809 136.659 208.809 136.608 208.809 136.556C208.809 136.505 208.809 136.454 208.809 136.402C208.809 136.351 208.809 136.299 208.809 136.248C208.809 136.197 208.809 136.146 208.809 136.094C208.809 136.043 208.809 135.992 208.809 135.941C208.809 135.889 208.809 135.838 208.809 135.787C208.809 135.736 208.809 135.685 208.809 135.634C208.809 135.583 208.809 135.532 208.809 135.481C208.809 135.43 208.809 135.379 208.809 135.328C208.809 135.277 208.809 135.226 208.809 135.175C208.809 135.124 208.809 135.073 208.809 135.022C208.809 134.971 208.809 134.92 208.809 134.87C208.809 134.819 208.809 134.768 208.809 134.717C208.809 134.667 208.809 134.616 208.809 134.565C208.809 134.515 208.809 134.464 208.809 134.413C208.809 134.363 208.809 134.312 208.809 134.261C208.809 134.211 208.809 134.16 208.809 134.11C208.809 134.059 208.809 134.009 208.809 133.958C208.809 133.908 208.809 133.858 208.809 133.807C208.809 133.757 208.809 133.706 208.809 133.656C208.809 133.606 208.809 133.555 208.809 133.505C208.809 133.455 208.809 133.405 208.809 133.354C208.809 133.304 208.809 133.254 208.809 133.204C208.809 133.154 208.809 133.104 208.809 133.054C208.809 133.004 208.809 132.953 208.809 132.903C208.809 132.853 208.809 132.803 208.809 132.753C208.809 132.703 208.809 132.654 208.809 132.604C208.809 132.554 208.809 132.504 208.809 132.454C208.809 132.404 208.809 132.354 208.809 132.305C208.809 132.255 208.809 132.205 208.809 132.155C208.809 132.106 208.809 132.056 208.809 132.006C208.809 131.957 208.809 131.907 208.809 131.857C208.809 131.808 208.809 131.758 208.809 131.709C208.809 131.659 208.809 131.61 208.809 131.56C208.809 131.511 208.809 131.461 208.809 131.412C208.809 131.363 208.809 131.313 208.809 131.264C208.809 131.215 208.809 131.165 208.809 131.116C208.809 131.067 208.809 131.018 208.809 130.968C208.809 130.919 208.809 130.87 208.809 130.821C208.809 130.772 208.809 130.723 208.809 130.674C208.809 130.624 208.809 130.575 208.809 130.526C208.809 130.477 208.809 130.428 208.809 130.379C208.809 130.331 208.809 130.282 208.809 130.233C208.809 130.184 208.809 130.135 208.809 130.086C208.809 130.037 208.809 129.989 208.809 129.94C208.809 129.891 208.809 129.842 208.809 129.794C208.809 129.745 208.809 129.697 208.809 129.648C208.809 129.599 208.809 129.551 208.809 129.502C208.809 129.454 208.809 129.405 208.809 129.357C208.809 129.308 208.809 129.26 208.809 129.211C208.809 129.163 208.809 129.115 208.809 129.066C208.809 129.018 208.809 128.97 208.809 128.921C208.809 128.873 208.809 128.825 208.809 128.777C208.809 128.729 208.809 128.68 208.809 128.632C208.809 128.584 208.809 128.536 208.809 128.488C208.809 128.44 208.809 128.392 208.809 128.344C208.809 128.296 208.809 128.248 208.809 128.2C208.809 128.152 208.809 128.104 208.809 128.057C208.809 128.009 208.809 127.961 208.809 127.913C208.809 127.865 208.809 127.818 208.809 127.77C208.809 127.722 208.809 127.675 208.809 127.627C208.809 127.579 208.809 127.532 208.809 127.484C208.809 127.437 208.809 127.389 208.809 127.342C208.809 127.294 208.809 127.247 208.809 127.199C208.809 127.152 208.809 127.105 208.809 127.057C208.809 127.01 208.809 126.963 208.809 126.915C208.809 126.868 208.809 126.821 208.809 126.774C208.809 126.727 208.809 126.679 208.809 126.632C208.809 126.585 208.809 126.538 208.809 126.491C208.809 126.444 208.809 126.397 208.809 126.35C208.809 126.303 208.809 126.256 208.809 126.209C208.809 126.162 208.809 126.116 208.809 126.069C208.809 126.022 208.809 125.975 208.809 125.928C208.809 125.882 208.809 125.835 208.809 125.788C208.809 125.742 208.809 125.695 208.809 125.648C208.809 125.602 208.809 125.555 208.809 125.509C208.809 125.462 208.809 125.416 208.809 125.369C208.809 125.323 208.809 125.277 208.809 125.23C208.809 125.184 208.809 125.138 208.809 125.091C208.809 125.045 208.809 124.999 208.809 124.953C208.809 124.906 208.809 124.86 208.809 124.814C208.809 124.768 208.809 124.722 208.809 124.676C208.809 124.63 208.809 124.584 208.809 124.538C208.809 124.492 208.809 124.446 208.809 124.4C208.809 124.354 208.809 124.308 208.809 124.263C208.809 124.217 208.809 124.171 208.809 124.125C208.809 124.08 208.809 124.034 208.809 123.988C208.809 123.943 208.809 123.897 208.809 123.851C208.809 123.806 208.809 123.76 208.809 123.715C208.809 123.669 208.809 123.624 208.809 123.578C208.809 123.533 208.809 123.488 208.809 123.442C208.809 123.397 208.809 123.352 208.809 123.306C208.809 123.261 208.809 123.216 208.809 123.171C208.809 123.126 208.809 123.081 208.809 123.035C208.809 122.99 208.809 122.945 208.809 122.9C208.809 122.855 208.809 122.81 208.809 122.765C208.809 122.721 208.809 122.676 208.809 122.631C208.809 122.586 208.809 122.541 208.809 122.496C208.809 122.452 208.809 122.407 208.809 122.362C208.809 122.318 208.809 122.273 208.809 122.228C208.809 122.184 208.809 122.139 208.809 122.095C208.809 122.05 208.809 122.006 208.809 121.961C208.809 121.917 208.809 121.873 208.809 121.828C208.809 121.784 208.809 121.74 208.809 121.695C208.809 121.651 208.809 121.607 208.809 121.563C208.809 121.519 208.809 121.475 208.809 121.43C208.809 121.386 208.809 121.342 208.809 121.298C208.809 121.254 208.809 121.21 208.809 121.167C208.809 121.123 208.809 121.079 208.809 121.035C208.809 120.991 208.809 120.947 208.809 120.904C208.809 120.86 208.809 120.816 208.809 120.773C208.809 120.729 208.809 120.685 208.809 120.642C208.809 120.598 208.809 120.555 208.809 120.511C208.809 120.468 208.809 120.424 208.809 120.381C208.809 120.337 208.809 120.294 208.809 120.251C208.809 120.208 208.809 120.164 208.809 120.121C208.809 120.078 208.809 120.035 208.809 119.992C208.809 119.948 208.809 119.905 208.809 119.862C208.809 119.819 208.809 119.776 208.809 119.733C208.809 119.69 208.809 119.648 208.809 119.605C208.809 119.562 208.809 119.519 208.809 119.476C208.809 119.434 208.809 119.391 208.809 119.348C208.809 119.305 208.809 119.263 208.809 119.22C208.809 119.178 208.809 119.135 208.809 119.093C208.809 119.05 208.809 119.008 208.809 118.965C208.809 118.923 208.809 118.881 208.809 118.838C208.809 118.796 208.809 118.754 208.809 118.711C208.809 118.669 208.809 118.627 208.809 118.585C208.809 118.543 208.809 118.501 208.809 118.459C208.809 118.417 208.809 118.375 208.809 118.333C208.809 118.291 208.809 118.249 208.809 118.207C208.809 118.165 208.809 118.123 208.809 118.082C208.809 118.04 208.809 117.998 208.809 117.956C208.809 117.915 208.809 117.873 208.809 117.832C208.809 117.79 208.809 117.748 208.809 117.707C208.809 117.666 208.809 117.624 208.809 117.583C208.809 117.541 208.809 117.5 208.809 117.459C208.809 117.417 208.809 117.376 208.809 117.335C208.809 117.294 208.809 117.253 208.809 117.212C208.809 117.17 208.809 117.129 208.809 117.088C208.809 117.047 208.809 117.006 208.809 116.966C208.809 116.925 208.809 116.884 208.809 116.843C208.809 116.802 208.809 116.761 208.809 116.721C208.809 116.68 208.809 116.639 208.809 116.599C208.809 116.558 208.809 116.517 208.809 116.477C208.809 116.436 208.809 116.396 208.809 116.356C208.809 116.315 208.809 116.275 208.809 116.234C208.809 116.194 208.809 116.154 208.809 116.114C208.809 116.073 208.809 116.033 208.809 115.993C208.809 115.953 208.809 115.913 208.809 115.873C208.809 115.833 208.809 115.793 208.809 115.753C208.809 115.713 208.809 115.673 208.809 115.633C208.809 115.593 208.809 115.554 208.809 115.514C208.809 115.474 208.809 115.434 208.809 115.395C208.809 115.355 208.809 115.315 208.809 115.276C208.809 115.236 208.809 115.197 208.809 115.157C208.809 115.118 208.809 115.079 208.809 115.039C208.809 115 208.809 114.961 208.809 114.921C208.809 114.882 208.809 114.843 208.809 114.804C208.809 114.765 208.809 114.726 208.809 114.687C208.809 114.648 208.809 114.609 208.809 114.57C208.809 114.531 208.809 114.492 208.809 114.453C208.809 114.414 208.809 114.375 208.809 114.337C208.809 114.298 208.809 114.259 208.809 114.221C208.809 114.182 208.809 114.143 208.809 114.105C208.809 114.066 208.809 114.028 208.809 113.99C208.809 113.951 208.809 113.913 208.809 113.874C208.809 113.836 208.809 113.798 208.809 113.76C208.809 113.721 208.809 113.683 208.809 113.645C208.809 113.607 208.809 113.569 208.809 113.531C208.809 113.493 208.809 113.455 208.809 113.417C208.809 113.379 208.809 113.341 208.809 113.304C208.809 113.266 208.809 113.228 208.809 113.19C208.809 113.153 208.809 113.115 208.809 113.077C208.809 113.04 208.809 113.002 208.809 112.965C208.809 112.927 208.809 112.89 208.809 112.852C208.809 112.815 208.809 112.778 208.809 112.741C208.809 112.703 208.809 112.666 208.809 112.629C208.809 112.592 208.809 112.555 208.809 112.518C208.809 112.48 208.809 112.443 208.809 112.407C208.809 112.37 208.809 112.333 208.809 112.296C208.809 112.259 208.809 112.222 208.809 112.185C208.809 112.149 208.809 112.112 208.809 112.075C208.809 112.039 208.809 112.002 208.809 111.966C208.809 111.929 208.809 111.893 208.809 111.856C208.809 111.82 208.809 111.784 208.809 111.747C208.809 111.711 208.809 111.675 208.809 111.639C208.809 111.602 208.809 111.566 208.809 111.53C208.809 111.494 208.809 111.458 208.809 111.422C208.809 111.386 208.809 111.35 208.809 111.314C208.809 111.278 208.809 111.243 208.809 111.207C208.809 111.171 208.809 111.135 208.809 111.1C208.809 111.064 208.809 111.029 208.809 110.993C208.809 110.958 208.809 110.922 208.809 110.887C208.809 110.851 208.809 110.816 208.809 110.781C208.809 110.745 208.809 110.71 208.809 110.675C208.809 110.64 208.809 110.604 208.809 110.569C208.809 110.534 208.809 110.499 208.809 110.464C208.809 110.429 208.809 110.394 208.809 110.36C208.809 110.325 208.809 110.29 208.809 110.255C208.809 110.22 208.809 110.186 208.809 110.151C208.809 110.116 208.809 110.082 208.809 110.047C208.809 110.013 208.809 109.978 208.809 109.944C208.809 109.91 208.809 109.875 208.809 109.841C208.809 109.807 208.809 109.772 208.809 109.738C208.809 109.704 208.809 109.67 208.809 109.636C208.809 109.602 208.809 109.568 208.809 109.534C208.809 109.5 208.809 109.466 208.809 109.432C208.809 109.398 208.809 109.365 208.809 109.331C208.809 109.297 208.809 109.264 208.809 109.23C208.809 109.196 208.809 109.163 208.809 109.129C208.809 109.096 208.809 109.062 208.809 109.029C208.809 108.996 208.809 108.962 208.809 108.929C208.809 108.896 208.809 108.863 208.809 108.83C208.809 108.797 208.809 108.763 208.809 108.73C208.809 108.697 208.809 108.664 208.809 108.632C208.809 108.599 208.809 108.566 208.809 108.533C208.809 108.5 208.809 108.468 208.809 108.435C208.809 108.402 208.809 108.37 208.809 108.337C208.809 108.305 208.809 108.272 208.809 108.24C208.809 108.207 208.809 108.175 208.809 108.143C208.809 108.11 208.809 108.078 208.809 108.046C208.809 108.014 208.809 107.982 208.809 107.95C208.809 107.917 208.809 107.885 208.809 107.854C208.809 107.822 208.809 107.79 208.809 107.758C208.809 107.726 208.809 107.694 208.809 107.663H206.809ZM206.809 184.043C206.809 186.275 206.804 190.897 207.913 194.976C208.468 197.017 209.324 199.011 210.673 200.508C212.052 202.037 213.919 203.015 216.359 203.015L216.359 201.015C214.524 201.015 213.185 200.307 212.159 199.169C211.104 197.998 210.357 196.341 209.843 194.451C208.814 190.668 208.809 186.305 208.809 184.043H206.809ZM122.528 184.041C122.528 171.912 122.718 131.996 122.528 107.655L120.529 107.67C120.718 132.002 120.528 171.892 120.528 184.041H122.528ZM122.528 107.655C122.516 106.042 122.717 101.399 121.744 97.1898C121.256 95.08 120.453 92.9741 119.1 91.38C117.714 89.7479 115.782 88.693 113.191 88.693V90.693C115.161 90.693 116.547 91.4634 117.575 92.6745C118.636 93.9234 119.342 95.6785 119.796 97.6402C120.705 101.574 120.515 105.915 120.529 107.67L122.528 107.655ZM216.359 201.015C208.949 201.015 191.137 201.014 174.607 201.014C158.078 201.013 142.83 201.013 140.55 201.013V203.013C142.83 203.013 158.078 203.013 174.607 203.014C191.137 203.014 208.949 203.015 216.359 203.015V201.015ZM140.55 201.013C133.769 201.013 129.343 199.887 126.587 197.346C123.853 194.825 122.528 190.688 122.528 184.041H120.528C120.528 190.873 121.875 195.722 125.232 198.816C128.567 201.891 133.652 203.013 140.55 203.013V201.013ZM207.809 185.043H219.209V183.043H207.809V185.043ZM219.209 185.043C219.089 185.043 219.062 184.995 219.146 185.056C219.225 185.113 219.347 185.227 219.502 185.427C219.81 185.826 220.158 186.443 220.494 187.24C221.164 188.828 221.725 190.967 221.88 193.101C222.036 195.255 221.77 197.266 220.929 198.702C220.136 200.057 218.768 201.015 216.359 201.015L216.359 203.015C219.423 203.015 221.476 201.726 222.655 199.712C223.788 197.778 224.044 195.296 223.874 192.957C223.703 190.598 223.089 188.245 222.337 186.462C221.962 185.575 221.536 184.788 221.084 184.204C220.858 183.912 220.603 183.641 220.318 183.435C220.038 183.232 219.659 183.043 219.209 183.043V185.043ZM113.191 88.693C109.668 88.6932 107.351 89.9196 106.099 91.9821C104.894 93.9656 104.819 96.4982 105.214 98.8443C105.614 101.216 106.522 103.568 107.496 105.337C107.983 106.221 108.504 106.992 109.012 107.558C109.265 107.84 109.537 108.097 109.822 108.289C110.092 108.472 110.47 108.663 110.911 108.663L110.911 106.663C111.041 106.663 111.061 106.713 110.942 106.632C110.838 106.562 110.688 106.432 110.5 106.223C110.126 105.806 109.689 105.174 109.248 104.373C108.368 102.773 107.544 100.633 107.186 98.5119C106.825 96.3658 106.967 94.4059 107.808 93.0201C108.602 91.7133 110.159 90.6932 113.191 90.693L113.191 88.693ZM110.911 108.663H121.528V106.663H110.911V108.663Z" fill="url(#paint0_linear_578_617)"/>
<path d="M185.936 92.4992L121.527 92.4993C123.807 94.1817 124.125 102.639 124.165 107.692C124.355 132.021 124.165 169.665 124.165 181.801C124.165 195.836 127.021 199.766 143.187 199.766C147.747 199.766 193.346 199.766 208.166 199.766C205.886 197.519 204.997 190.218 204.997 181.794C204.997 153.73 205.098 126.134 205.098 109.909C205.098 90.2582 194.486 92.4991 185.936 92.4992Z" fill="url(#paint1_linear_578_617)"/>
<path d="M135.205 112.313H194.484" stroke="#1A1A1A" stroke-width="2" stroke-linecap="round"/>
<path d="M135.205 122.167H183.205" stroke="#1A1A1A" stroke-width="2" stroke-linecap="round"/>
<path d="M135.205 132.019H183.205" stroke="#1A1A1A" stroke-width="2" stroke-linecap="round"/>
<path d="M135.205 141.872H183.205" stroke="#1A1A1A" stroke-width="2" stroke-linecap="round"/>
<ellipse cx="218" cy="246.353" rx="11" ry="10.8382" fill="#121212" stroke="url(#paint2_linear_578_617)" stroke-width="2"/>
<path d="M214 246.353H223" stroke="#FFAA00" stroke-width="2" stroke-linecap="round"/>
<path d="M161.151 237.64C162.057 234.892 165.943 234.892 166.849 237.64L167.362 239.194C167.767 240.424 168.916 241.255 170.211 241.255H171.774C174.691 241.255 175.892 244.996 173.521 246.694L172.333 247.545C171.265 248.309 170.819 249.677 171.23 250.924L171.702 252.354C172.61 255.11 169.466 257.422 167.106 255.733L165.746 254.76C164.702 254.012 163.298 254.012 162.254 254.76L160.894 255.733C158.534 257.422 155.39 255.11 156.298 252.354L156.77 250.924C157.181 249.677 156.735 248.309 155.667 247.545L154.479 246.694C152.108 244.996 153.309 241.255 156.226 241.255H157.789C159.084 241.255 160.233 240.424 160.638 239.194L161.151 237.64Z" fill="#121212" stroke="url(#paint3_linear_578_617)" stroke-width="2"/>
<path d="M128 246.353H146.5" stroke="#383838" stroke-width="2" stroke-linecap="round"/>
<ellipse cx="110" cy="246.353" rx="11" ry="10.8382" fill="#121212" stroke="url(#paint4_linear_578_617)" stroke-width="2"/>
<path d="M181.5 246.353H200" stroke="#383838" stroke-width="2" stroke-linecap="round"/>
<path d="M105 246.353H115" stroke="#FFAA00" stroke-width="2" stroke-linecap="round"/>
<path d="M110 241.427V251.279" stroke="#FFAA00" stroke-width="2" stroke-linecap="round"/>
<defs>
<filter id="filter0_d_578_617" x="0" y="0" width="326" height="323.353" filterUnits="userSpaceOnUse" color-interpolation-filters="sRGB">
<feFlood flood-opacity="0" result="BackgroundImageFix"/>
<feColorMatrix in="SourceAlpha" type="matrix" values="0 0 0 0 0 0 0 0 0 0 0 0 0 0 0 0 0 0 127 0" result="hardAlpha"/>
<feOffset dy="4"/>
<feGaussianBlur stdDeviation="36"/>
<feComposite in2="hardAlpha" operator="out"/>
<feColorMatrix type="matrix" values="0 0 0 0 0 0 0 0 0 0 0 0 0 0 0 0 0 0 0.6 0"/>
<feBlend mode="normal" in2="BackgroundImageFix" result="effect1_dropShadow_578_617"/>
<feBlend mode="normal" in="SourceGraphic" in2="effect1_dropShadow_578_617" result="shape"/>
</filter>
<linearGradient id="paint0_linear_578_617" x1="164.461" y1="89.6912" x2="164.461" y2="202.015" gradientUnits="userSpaceOnUse">
<stop stop-color="#FFB41F"/>
<stop offset="1" stop-color="#FFB41F" stop-opacity="0.2"/>
</linearGradient>
<linearGradient id="paint1_linear_578_617" x1="164.847" y1="92.4219" x2="164.847" y2="199.766" gradientUnits="userSpaceOnUse">
<stop stop-color="#FFAA00"/>
<stop offset="1" stop-color="#FFAA00" stop-opacity="0"/>
</linearGradient>
<linearGradient id="paint2_linear_578_617" x1="218" y1="235.515" x2="218" y2="257.191" gradientUnits="userSpaceOnUse">
<stop stop-color="#FFAA00"/>
<stop offset="1" stop-color="#FFAA00"/>
</linearGradient>
<linearGradient id="paint3_linear_578_617" x1="164" y1="232.8" x2="164" y2="260.037" gradientUnits="userSpaceOnUse">
<stop stop-color="#FFAA00"/>
<stop offset="1" stop-color="#FFAA00"/>
</linearGradient>
<linearGradient id="paint4_linear_578_617" x1="110" y1="235.515" x2="110" y2="257.191" gradientUnits="userSpaceOnUse">
<stop stop-color="#FFAA00"/>
<stop offset="1" stop-color="#FFAA00"/>
</linearGradient>
</defs>
</svg>
